<?xml version="1.0" standalone="no"?>
<!DOCTYPE svg PUBLIC "-//W3C//DTD SVG 1.1//EN" "http://www.w3.org/Graphics/SVG/1.1/DTD/svg11.dtd" >
<svg xmlns="http://www.w3.org/2000/svg" xmlns:xlink="http://www.w3.org/1999/xlink" version="1.1">
<metadata></metadata>
<defs>
<font id="tengwar_annatarregular" horiz-adv-x="0" >
<font-face units-per-em="2048" ascent="1638" descent="-410" />
<missing-glyph horiz-adv-x="720" />
<glyph />
<glyph />
<glyph unicode="&#xd;" horiz-adv-x="666" />
<glyph unicode=" "  horiz-adv-x="720" />
<glyph unicode="&#x09;" horiz-adv-x="720" />
<glyph unicode="&#xa0;" horiz-adv-x="720" />
<glyph unicode="!" horiz-adv-x="1322" d="M-214 -1014q0 10 8 30l76 98l2 2q178 278 184 1236v252q0 412 18 572q12 92 30 174q56 238 194 396q90 96 132 96q14 0 14 -20q-4 -32 -56 -88q-16 -16 -22 -26q-118 -172 -134 -610q-4 -114 -4 -510l64 66q140 134 290 210q112 56 206 56q184 0 276 -188q44 -88 44 -184 q0 -238 -214 -432q-4 -6 -10 -10q-144 -126 -282 -126q-58 0 -106 26q-54 30 -54 88q0 70 50 112q40 36 84 36q36 0 60 -16l66 -48q28 -18 74 -18q36 0 70 16q20 10 28 24q60 78 60 186q0 188 -122 294q-80 66 -168 66q-106 0 -230 -88q-76 -54 -122 -112q-68 -94 -68 -282 l-6 -168q-24 -442 -96 -672q-16 -52 -34 -100q-60 -162 -190 -294q-60 -60 -98 -60q-14 0 -14 16z" />
<glyph unicode="&#x22;" d="M-1902 -344q0 16 20 40q26 42 72 74q24 16 42 18l38 -8q140 -28 250 -28h804q182 0 294 28l38 8q12 -2 12 -16q0 -6 -4 -18q-30 -68 -98 -102q-16 -10 -82 -24l-128 -18q-78 -6 -346 -6h-546q-156 0 -266 20l-66 12q-26 6 -28 8q-6 4 -6 12z" />
<glyph unicode="#" d="M-1346 1440q0 10 26 36l76 76l36 28q10 0 26 -16l50 -48q34 -32 66 -72v-2q0 -16 -26 -36l-76 -76q-30 -30 -36 -30q-10 0 -26 16l-96 96q-20 20 -20 28zM-1156 1710q0 10 26 36l76 76q28 28 36 28q10 0 26 -16l50 -48l46 -48q18 -18 18 -26q0 -12 -24 -36l-76 -76 q-30 -30 -40 -30q-10 2 -22 16l-50 50l-48 46q-18 18 -18 28zM-968 1440q0 10 26 36l76 76l36 28q10 0 26 -16l50 -48q34 -32 66 -72v-2q0 -16 -26 -36l-76 -76q-30 -30 -36 -30q-10 0 -26 16l-96 96q-20 20 -20 28z" />
<glyph unicode="$" d="M-1284 1250q0 14 8 26q4 6 38 34q232 192 418 332l86 62q44 32 72 36q30 0 46 -10q26 -16 26 -44l-10 -40q-6 -12 -16 -22q-2 -2 -52 -40l-96 -64q-184 -122 -442 -272q-36 -22 -54 -22q-24 0 -24 24z" />
<glyph unicode="%" d="M-1156 1440q0 10 26 36l76 76l36 28q10 0 26 -16l50 -48q34 -32 66 -72v-2q0 -16 -26 -36l-76 -76q-30 -30 -36 -30q-10 0 -26 16l-96 96q-20 20 -20 28z" />
<glyph unicode="&#x26;" d="M-1382 1208q0 14 14 28q24 18 116 62q236 104 280 130q202 112 202 208q0 72 -82 100q-24 8 -46 8q-20 0 -38 -6q-6 -2 -50 -32q-24 -18 -48 -18q-12 0 -12 14q2 32 50 70q110 110 230 110q82 0 136 -72v-2q32 -44 32 -104q0 -148 -200 -280q-110 -76 -510 -222 q-38 -12 -52 -12h-6q-16 6 -16 18z" />
<glyph unicode="'" d="M-1280 -316q0 26 48 74q54 54 82 54q12 0 60 -16q60 -18 210 -18h30h348q78 0 142 22q32 10 46 10q12 0 12 -14q0 -12 -16 -32q-40 -66 -96 -92q-92 -42 -278 -42h-348q-156 0 -232 38q-8 6 -8 16z" />
<glyph unicode="(" d="M-1246 -538q0 10 26 36l76 76l36 28q10 0 26 -16l50 -48q34 -32 66 -72v-2q0 -16 -26 -36l-76 -76q-30 -30 -36 -30q-10 0 -26 16l-96 96q-20 20 -20 28z" />
<glyph unicode=")" d="M-1648 1630q0 32 62 94q134 122 276 156q62 16 142 16t174 -16l396 -74q74 -12 138 -12h22q132 0 216 46q10 4 64 50l2 2q32 32 64 32q12 0 12 -10q0 -6 -2 -12v-4q-24 -48 -68 -88q-178 -164 -408 -164q-130 0 -312 40q-298 62 -402 62q-154 0 -244 -54l-82 -66 q-26 -12 -36 -12q-14 0 -14 14z" />
<glyph unicode="*" horiz-adv-x="1270" d="M8 476q0 456 282 842q192 262 454 412q92 52 136 52q24 0 24 -18v-4q-2 -6 -8 -12q-16 -26 -60 -50l-120 -70q-430 -278 -518 -794q-16 -106 -16 -202q0 -266 154 -418q100 -96 230 -96q58 0 120 18q76 20 110 58q58 58 60 180v20q0 54 -32 92l-56 68q-16 26 -16 54 q0 80 74 120q30 16 62 16q86 0 122 -94q22 -54 22 -118q0 -166 -116 -310q-146 -198 -352 -256q-58 -20 -136 -20q-216 0 -332 196q-88 144 -88 334z" />
<glyph unicode="+" horiz-adv-x="720" d="M-614 10q0 22 40 74q38 40 74 54q86 10 232 12q200 -8 598 -22q142 -12 240 -144q66 -92 66 -206q0 -112 -48 -204q-88 -174 -254 -262q-104 -56 -206 -56q-50 0 -100 14q-140 38 -204 150q-32 56 -32 116q0 96 94 186q48 48 82 48q16 0 16 -16q0 -12 -8 -32l-32 -50 q-4 -16 -4 -34q0 -98 118 -176q88 -56 182 -56q120 0 184 64t64 188q0 106 -70 200q-10 16 -22 28q-68 72 -164 90q-30 6 -172 8h-16l-378 16h-4q-188 0 -252 -8q-24 0 -24 18z" />
<glyph unicode="," horiz-adv-x="1246" d="M-22 376q0 116 66 234q114 196 308 290q120 56 238 56q116 0 224 -60q188 -104 188 -324t-188 -464q188 -98 188 -300q0 -186 -144 -368q-108 -144 -286 -266q-132 -88 -202 -124q-54 -24 -80 -24q-22 0 -22 14q0 36 144 118q280 168 356 296q60 92 60 214 q0 164 -144 254q-46 28 -68 28q-8 8 -8 22q10 42 78 106q118 110 138 300q4 30 4 56q0 72 -24 128q-64 150 -240 202q-64 18 -128 18q-20 0 -42 -2q-158 -20 -206 -106q-36 -72 -36 -158q0 -42 14 -74q8 -16 52 -62q40 -46 40 -84q0 -20 -8 -42q-22 -68 -94 -90 q-22 -8 -42 -8q-36 0 -66 24q-70 54 -70 196z" />
<glyph unicode="-" horiz-adv-x="540" d="M-14 160q0 10 26 36l74 74l38 28q8 0 28 -14l96 -96q18 -18 18 -28q0 -12 -26 -36l-74 -74q-30 -30 -38 -30q-20 0 -78 68l-46 44q-18 18 -18 28zM-14 742q0 12 26 36l74 74q28 28 36 28h4q12 0 26 -14q34 -34 52 -50l44 -46q18 -18 18 -26q0 -14 -26 -36l-74 -74 q-28 -28 -36 -28h-4q-12 0 -24 12l-98 98q-18 14 -18 26z" />
<glyph unicode="." horiz-adv-x="1096" d="M-40 380q0 172 142 334q182 204 396 204q228 0 342 -192q56 -96 56 -202q0 -184 -154 -350q-178 -192 -394 -192q-60 0 -118 20q-160 52 -234 210q-36 82 -36 168zM132 518q0 -76 36 -150q66 -142 214 -192q58 -20 118 -20l134 26q28 14 38 24q24 24 36 74q16 46 16 98 q0 54 -18 112q-42 136 -172 210q-82 46 -164 46q-78 0 -144 -28q-32 -14 -40 -22q-22 -20 -40 -78q-14 -50 -14 -100z" />
<glyph unicode="/" d="M-1512 -1040q0 18 32 60q120 148 310 148q74 0 168 -20q176 -38 236 -38h20q66 0 108 22l60 46q12 6 24 8q18 0 18 -14q0 -16 -26 -52l-6 -6q-120 -150 -312 -150q-72 0 -158 16q-188 40 -242 40h-24q-68 0 -110 -24l-68 -48l-14 -6q-16 0 -16 18z" />
<glyph unicode="0" d="M-1018 1660q0 18 32 60q120 148 310 148q74 0 168 -20q176 -38 236 -38h20q66 0 108 22l60 46q12 6 24 8q18 0 18 -14q0 -16 -26 -52l-6 -6q-120 -150 -312 -150q-72 0 -158 16q-188 40 -242 40h-24q-68 0 -110 -24l-68 -48l-14 -6q-16 0 -16 18z" />
<glyph unicode="1" horiz-adv-x="1434" d="M-106 -1016q0 22 42 76q40 44 50 62q54 84 98 266q82 334 82 1140q0 118 -20 166q-20 42 -60 42h-10q-12 0 -22 -6l-66 -46q-10 -4 -20 -4q-18 0 -18 16q0 38 56 90q124 124 224 124q26 0 48 -10q62 -34 62 -212l-2 -100l64 66q140 134 290 210q112 56 206 56 q184 0 276 -186q44 -90 44 -186q0 -228 -208 -428q-154 -138 -298 -138q-56 0 -104 24q-56 30 -56 90q0 66 48 108q42 38 88 38q28 0 58 -16l66 -48q28 -18 74 -18q40 0 74 20l4 4q28 16 56 84q26 64 26 130q0 86 -44 174q-70 144 -202 170q-4 2 -10 2q-18 2 -36 2 q-114 0 -242 -98q-152 -108 -174 -266l-12 -296q-22 -466 -114 -724q-54 -180 -204 -330q-62 -62 -94 -62q-20 0 -20 14z" />
<glyph unicode="2" horiz-adv-x="2090" d="M-106 -1012q0 24 46 76q34 40 44 56q148 226 174 954q6 176 8 454q0 116 -20 164q-18 46 -58 46q-18 0 -34 -8l-66 -46q-10 -4 -20 -4q-18 0 -18 16q0 38 56 90q124 124 224 124q80 0 98 -96q10 -50 10 -212q60 74 156 154q206 164 342 164q60 0 114 -30q78 -50 122 -132 q40 -82 44 -136q104 120 222 204q136 94 250 94q124 0 208 -124q72 -110 72 -250q0 -198 -144 -372q-42 -48 -90 -88l-8 -8q-116 -94 -226 -94q-68 0 -108 24q-52 28 -52 84q0 72 52 116q40 34 82 34q26 0 58 -16l48 -38q42 -30 86 -30q38 0 60 18q8 8 22 36q48 90 48 188 q0 140 -80 248q-74 98 -178 98q-60 0 -112 -32q-54 -30 -90 -66q-62 -66 -128 -236q-28 -68 -44 -102q-56 -116 -164 -214q-130 -112 -254 -112q-64 0 -106 24q-52 28 -52 84q0 74 56 118q38 30 78 30q28 0 58 -14l50 -38q40 -30 84 -30q18 2 38 4l2 2q30 8 50 54 q46 88 46 182q0 132 -74 240q-78 106 -186 106l-42 -4q-70 -16 -136 -70q-128 -102 -164 -238q-10 -40 -14 -154l-10 -234q-22 -418 -110 -678q-62 -192 -198 -330q-44 -44 -78 -60q-14 -8 -24 -8q-20 0 -20 18z" />
<glyph unicode="3" horiz-adv-x="1322" d="M-20 -2q0 8 4 20l44 64q24 48 26 200v46l6 630q12 328 86 534q62 164 184 286q36 36 70 54q18 10 30 10q14 0 14 -20q-4 -32 -56 -90q-16 -16 -22 -26q-108 -160 -132 -546q-6 -116 -6 -574q134 144 268 228q164 104 294 104q144 0 236 -126q78 -106 78 -240 q0 -230 -188 -416q-154 -154 -316 -154q-78 0 -116 30q-46 32 -46 84q0 78 64 120q38 24 74 24q30 0 60 -18l58 -42l2 -2q38 -20 76 -20l68 16l20 12q16 12 32 44q40 82 40 166q0 70 -26 140q-26 74 -80 126q-78 82 -178 82q-104 0 -218 -76q-144 -94 -188 -230 q-8 -22 -22 -138q-2 -14 -4 -26q-24 -168 -168 -268q-36 -24 -52 -24t-16 16z" />
<glyph unicode="4" horiz-adv-x="1992" d="M-20 -2q0 20 40 76l2 2l6 10q20 42 24 140q4 252 10 748q14 362 106 570q58 130 168 240q56 56 92 56h4q12 0 12 -18q-2 -22 -22 -46l-56 -68q-134 -200 -136 -754v-352q8 16 44 52q264 264 450 264q150 0 238 -168q36 -74 42 -130q104 122 222 204q84 62 174 84 q40 12 78 12q120 0 202 -122q76 -108 76 -254q0 -198 -146 -374q-44 -52 -96 -94q-116 -94 -228 -94q-66 0 -110 26q-50 32 -50 86q0 76 56 116q36 30 78 30q30 0 62 -16l46 -38q42 -28 86 -28q16 2 42 8h2q8 4 14 8q8 8 24 38q50 84 50 182q0 142 -78 250q-76 100 -182 100 q-104 0 -200 -96q-64 -66 -128 -230q-30 -76 -48 -112q-58 -122 -172 -220q-126 -104 -244 -104q-76 0 -120 36q-40 32 -40 78q0 26 12 54q18 44 56 68q34 22 68 22q26 0 52 -12l54 -40l2 -2q44 -28 84 -28q28 0 60 16q14 10 28 38q48 90 48 186q0 136 -78 244 q-74 102 -186 102q-74 0 -152 -56q-148 -106 -188 -270q-4 -14 -14 -120q-24 -182 -166 -288q-40 -28 -58 -28q-16 0 -16 16z" />
<glyph unicode="5" horiz-adv-x="2102" d="M-48 696q0 28 46 80q92 104 194 128q22 6 40 6q78 0 100 -106q8 -36 8 -152l2 -50q8 16 44 52q264 264 450 264q150 0 238 -168q36 -74 42 -130q108 128 224 206q130 92 246 92q156 0 236 -172q46 -94 46 -200q0 -216 -174 -404q-78 -88 -172 -132q-64 -30 -124 -30 q-52 0 -102 24q-56 30 -56 92q0 70 48 110q40 34 84 34q26 0 52 -12l54 -40l2 -2q40 -26 82 -26q26 0 54 10q18 8 30 38q50 86 50 186q0 140 -72 242q-78 110 -188 110q-80 0 -164 -66l-2 -2q-54 -44 -102 -132q-10 -18 -96 -218q-4 -12 -10 -22q-92 -182 -240 -272 q-86 -52 -172 -52q-94 0 -134 44q-30 32 -30 72q0 30 18 64q24 50 68 64q28 14 56 14q30 0 60 -18l50 -40q44 -22 76 -22q24 0 46 8q22 6 40 40q50 88 50 190q0 54 -14 112q-32 122 -118 190q-60 46 -126 46q-70 0 -134 -42q-164 -100 -210 -280q0 -4 -18 -128q0 -8 -2 -16 q-20 -160 -158 -268q-46 -30 -62 -30q-14 0 -14 14q0 22 44 84q22 40 26 180l4 238q0 148 -20 192q-20 48 -58 48q-16 0 -36 -10l-54 -38l-2 -2q-16 -10 -28 -10q-14 0 -18 18z" />
<glyph unicode="6" horiz-adv-x="1446" d="M-46 694v10q4 22 48 74q120 132 234 132q38 0 62 -24q26 -24 38 -86q6 -42 6 -154v-60q190 202 368 284q104 48 192 48q190 0 276 -194q40 -88 40 -180q0 -228 -206 -424q-154 -140 -304 -140q-92 0 -134 56q-22 28 -22 70q0 66 64 108q38 26 74 26q28 0 56 -14l74 -52 q32 -14 66 -14q66 0 96 34q40 46 56 134q8 42 8 82q0 108 -62 202q-58 88 -150 120q-34 12 -66 12h-12q-94 0 -214 -76q-150 -100 -190 -242q-6 -20 -20 -140q-26 -174 -162 -276q-42 -26 -62 -26q-14 0 -14 12q0 22 40 76l2 2q4 6 4 8q12 18 20 72q6 44 8 248l2 146 q0 188 -78 188q-10 0 -36 -8l-54 -38l-2 -2q-20 -8 -32 -8q-14 0 -14 14z" />
<glyph unicode="7" horiz-adv-x="1290" d="M-54 -648q0 188 218 432q44 48 96 90q60 52 106 82q30 26 48 34l-18 60q-68 228 -166 474q-50 124 -72 160q-40 68 -80 68q-14 0 -34 -22q-44 -38 -70 -38q-18 0 -18 18q0 26 42 76q106 114 182 114q94 0 160 -162q26 -58 30 -68q246 246 426 246q72 0 138 -42l52 -46 q68 -82 68 -192q0 -88 -46 -194q-108 -244 -434 -440q-218 -130 -316 -228q-140 -140 -140 -280q0 -90 62 -166q80 -100 202 -100h10q58 0 88 22q4 2 20 18q20 20 46 36q28 18 44 18t16 -14q0 -32 -64 -102q-144 -152 -298 -152l-60 6q-130 24 -200 148q-38 66 -38 144z M386 632q0 -6 4 -14l12 -30q86 -226 128 -364l40 -138q8 2 34 20l56 38q150 110 192 210q30 70 30 136q0 144 -132 230q-54 30 -116 30q-70 0 -148 -40q-48 -24 -82 -58q-18 -18 -18 -20z" />
<glyph unicode="8" horiz-adv-x="1208" d="M-44 332q0 162 184 426q88 124 260 340q122 156 168 236q70 116 72 190q0 46 -20 80l-26 36q-2 2 -2 6v4q0 18 22 50q36 50 80 80q30 24 54 24q26 0 52 -62l10 -38q2 -18 2 -34q0 -108 -98 -272q-68 -106 -276 -376q-190 -234 -252 -354q-56 -106 -56 -202q0 -94 62 -176 q34 -52 82 -88q108 -84 240 -84q62 0 118 16q82 26 114 60q60 62 60 196q0 54 -26 90l-56 64q-22 30 -22 68q4 80 76 116q30 16 60 16q86 0 122 -94q22 -52 22 -116q0 -178 -142 -346q-210 -242 -472 -242q-138 0 -252 82q-42 32 -74 72q-86 112 -86 232z" />
<glyph unicode="9" horiz-adv-x="1290" d="M-102 1520q0 16 22 48q142 188 258 188q70 0 130 -68q16 -22 48 -100l60 -150l-2 6l480 -1186q40 -102 102 -122q16 -4 22 -4h4l12 12q90 110 134 110q20 0 20 -16t-22 -50q-56 -74 -254 -206q-104 0 -166 148l-8 20q-2 6 -174 428l-12 32l-42 -72l-94 -164 q-104 -180 -146 -232q-104 -132 -222 -158q-10 -2 -20 -2q-56 0 -92 56q-32 42 -32 54v8q22 66 108 124q32 22 48 22q4 0 8 -2l20 -20q38 -54 52 -64q10 -6 22 -6l18 4q6 2 24 36l54 94l-2 -2q0 2 20 34l212 364l18 30v4q0 2 -6 20l-76 188l2 -2l-230 564q-46 118 -130 118 q-14 0 -38 -24q-18 -24 -46 -48q-40 -34 -62 -34t-22 20z" />
<glyph unicode=":" d="M-1900 -466q0 10 8 28q22 38 54 64q136 126 272 156q66 16 150 16q128 0 294 -36q316 -64 410 -64h22q130 0 216 46q10 4 64 50q34 34 66 34q12 0 12 -10q0 -6 -2 -12q0 -4 -4 -12q-16 -36 -64 -80q-132 -122 -288 -154q-56 -10 -122 -10q-84 0 -184 16l-362 70h-2 q-96 14 -174 14q-148 0 -236 -52l-80 -64q-22 -14 -36 -14t-14 14z" />
<glyph unicode=";" d="M-1278 -410q0 18 32 60q120 148 310 148q74 0 168 -20q176 -38 236 -38h20q66 0 108 22l60 46q12 6 24 8q18 0 18 -14q0 -16 -26 -52l-6 -6q-120 -150 -312 -150q-72 0 -158 16q-188 40 -242 40q-12 2 -24 2q-68 0 -110 -26l-68 -48q-8 -6 -16 -6q-14 0 -14 18z" />
<glyph unicode="&#x3c;" horiz-adv-x="1234" d="M-26 366v14q0 36 8 72q32 156 156 290q210 212 438 212q46 0 94 -8q10 -2 18 -2t12 2q30 22 60 72q82 128 82 286q0 68 -18 120q-50 152 -202 220q-80 38 -166 38q-104 0 -180 -42q-40 -20 -56 -38q-54 -74 -54 -188q0 -42 14 -72q8 -16 52 -62q40 -48 40 -84 q0 -28 -14 -58q-36 -80 -124 -80q-56 0 -94 44q-48 60 -48 166q0 126 74 256q116 192 310 280q112 52 232 52q150 0 270 -102q126 -108 138 -288q0 -140 -50 -260q-66 -164 -196 -294q38 -12 98 -64q128 -114 128 -280v-10v-14q0 -150 -194 -444q-46 -70 -244 -340 q-128 -176 -180 -268q-64 -120 -64 -202q0 -40 26 -90l22 -30q2 -4 2 -8q0 -26 -30 -58q-34 -46 -76 -76q-34 -22 -52 -22q-12 0 -30 24q-36 48 -36 118q0 106 86 264l8 16q70 126 274 398q148 196 218 318q96 166 96 288q0 68 -38 146q-80 150 -250 192q-52 12 -102 12 q-90 0 -176 -42q-74 -32 -96 -130q-14 -52 -14 -92q0 -48 18 -78l52 -62l14 -18q26 -36 26 -70q0 -40 -32 -78q-46 -56 -108 -56q-42 0 -72 24q-70 56 -70 186z" />
<glyph unicode="=" horiz-adv-x="540" d="M-14 450q0 10 26 36l76 76l36 28q10 0 26 -16l50 -48q34 -32 66 -72v-2q0 -16 -26 -36l-76 -76q-30 -30 -36 -30q-10 0 -26 16l-96 96q-20 20 -20 28z" />
<glyph unicode="&#x3e;" d="M-778 -538q0 10 26 36l76 76l36 28q10 0 26 -16l50 -48q34 -32 66 -72v-2q0 -16 -26 -36l-76 -76q-30 -30 -36 -30q-10 0 -26 16l-96 96q-20 20 -20 28zM-598 -808q0 10 26 36l76 76l36 28q10 0 26 -16l50 -48q34 -32 66 -72v-2q0 -16 -26 -36l-76 -76q-30 -30 -36 -30 q-10 0 -26 16l-96 96q-20 20 -20 28zM-418 -538q0 10 26 36l76 76l36 28q10 0 26 -16l50 -48q34 -32 66 -72v-2q0 -16 -26 -36l-76 -76q-30 -30 -36 -30q-10 0 -26 16l-96 96q-20 20 -20 28z" />
<glyph unicode="?" d="M-2134 -1068q0 32 62 94q186 170 418 170q78 0 174 -14l396 -74q74 -12 138 -12h22q132 0 216 46q10 4 64 50q34 34 66 34q12 0 12 -10q0 -6 -2 -12q0 -24 -68 -92q-134 -124 -284 -152q-56 -10 -126 -10q-134 0 -322 38q-174 38 -212 44q-102 16 -184 16 q-148 0 -238 -52l-82 -66q-26 -12 -36 -12q-14 0 -14 14z" />
<glyph unicode="@" horiz-adv-x="1998" d="M-214 -1014q0 10 6 26q8 16 62 78q4 6 8 10q162 220 188 1014q6 238 6 480q0 412 18 572q42 372 226 582q56 64 100 84q18 12 30 12q14 0 14 -18q0 -42 -64 -98q-150 -182 -150 -822v-42q0 -118 -2 -176q0 -76 2 -84q10 16 40 46q70 74 154 138q166 132 298 132 q154 0 244 -170q38 -84 42 -128q6 10 52 62q66 70 154 132q148 104 266 104t202 -120q76 -110 76 -252q0 -202 -148 -378q-40 -50 -90 -90q-118 -96 -232 -96q-76 0 -116 30q-46 34 -46 82q0 28 14 58q40 88 130 88q26 0 50 -14l48 -38l2 -2q42 -30 86 -30q38 0 60 18 q8 8 22 36q48 90 48 188q0 140 -80 248q-72 98 -176 98q-58 0 -114 -32q-54 -30 -90 -66q-62 -66 -128 -236q-28 -68 -44 -102q-56 -116 -164 -214q-126 -112 -254 -112q-70 0 -108 26q-50 30 -50 86q0 74 58 116q40 30 78 30q30 0 60 -18l62 -46q2 0 4 -2q38 -18 68 -18 q26 0 48 12l4 2q20 14 34 46q46 86 46 182q0 126 -68 230q-78 116 -188 116q-84 0 -184 -74q-130 -100 -164 -242q-8 -34 -12 -166q-16 -566 -104 -844q-74 -240 -214 -380q-70 -70 -106 -70q-14 0 -14 16z" />
<glyph unicode="A" horiz-adv-x="1270" d="M-38 360q0 242 226 436q142 124 282 124q60 0 106 -26q52 -32 52 -88q0 -70 -50 -112q-40 -34 -84 -34q-28 0 -62 18l-36 30q-50 34 -106 34q-70 0 -98 -44q-58 -82 -58 -188q0 -46 12 -98q36 -162 164 -228q56 -28 118 -28q158 0 306 100q38 24 62 54q48 66 48 204 q-2 50 -2 152q0 584 112 858q62 146 182 264q46 52 88 52q14 0 14 -12t-8 -32q-6 -12 -56 -74l-2 -2q-46 -46 -88 -198q-70 -244 -70 -728l4 -342q0 -424 -24 -630q-52 -514 -268 -756q-82 -96 -132 -96q-12 0 -12 12v8q0 30 56 90l8 8l14 18q36 50 70 144q116 332 116 1004 q-278 -270 -562 -270q-52 0 -90 12q-146 50 -206 216q-26 72 -26 148z" />
<glyph unicode="B" d="M-518 1440q0 10 26 36l76 76l36 28q10 0 26 -16l50 -48q34 -32 66 -72v-2q0 -16 -26 -36l-76 -76q-30 -30 -36 -30q-10 0 -26 16l-96 96q-20 20 -20 28z" />
<glyph unicode="C" d="M-698 1440q0 10 26 36l76 76l36 28q10 0 26 -16l50 -48q34 -32 66 -72v-2q0 -16 -26 -36l-76 -76q-30 -30 -36 -30q-10 0 -26 16l-96 96q-20 20 -20 28zM-508 1710q0 10 26 36l76 76q28 28 36 28q10 0 26 -16l50 -48l46 -48q18 -18 18 -26q0 -12 -24 -36l-76 -76 q-30 -30 -40 -30q-10 2 -22 16l-50 50l-48 46q-18 18 -18 28zM-320 1440q0 10 26 36l76 76l36 28q10 0 26 -16l50 -48q34 -32 66 -72v-2q0 -16 -26 -36l-76 -76q-30 -30 -36 -30q-10 0 -26 16l-96 96q-20 20 -20 28z" />
<glyph unicode="D" d="M-968 1440q0 10 26 36l76 76l36 28q10 0 26 -16l50 -48q34 -32 66 -72v-2q0 -16 -26 -36l-76 -76q-30 -30 -36 -30q-10 0 -26 16l-96 96q-20 20 -20 28zM-778 1710q0 10 26 36l76 76q28 28 36 28q10 0 26 -16l50 -48l46 -48q18 -18 18 -26q0 -12 -24 -36l-76 -76 q-30 -30 -40 -30q-10 2 -22 16l-50 50l-48 46q-18 18 -18 28zM-590 1440q0 10 26 36l76 76l36 28q10 0 26 -16l50 -48q34 -32 66 -72v-2q0 -16 -26 -36l-76 -76q-30 -30 -36 -30q-10 0 -26 16l-96 96q-20 20 -20 28z" />
<glyph unicode="E" d="M-1070 1440q0 12 26 36l76 76q28 28 38 28q12 -2 24 -16l50 -48l46 -46q18 -18 18 -26v-2q0 -14 -24 -36l-76 -76q-30 -30 -38 -30t-18 8q0 6 -6 8l-96 96q-20 16 -20 28zM-880 1708v2q0 10 24 36l76 76l30 24q4 2 8 2q12 0 26 -14l50 -48l46 -46q18 -24 18 -26v-2 q0 -14 -24 -36l-76 -76q-30 -30 -38 -30q-14 0 -26 16l-96 96q-18 14 -18 26zM-692 1440q0 12 26 36l76 76q28 28 38 28q12 -2 24 -16l50 -48l46 -46q18 -18 18 -26v-2q0 -14 -24 -36l-76 -76q-30 -30 -38 -30t-18 8q0 6 -6 8l-96 96q-20 16 -20 28z" />
<glyph unicode="F" d="M-870 1250q0 14 8 26q4 6 38 34q232 192 418 332l86 62q44 32 72 36q32 0 46 -10q26 -16 26 -44l-10 -40q-6 -12 -16 -22q-2 -2 -52 -40l-96 -64q-184 -122 -442 -272q-36 -22 -54 -22q-24 0 -24 24z" />
<glyph unicode="G" d="M-778 1440q0 10 26 36l76 76l36 28q10 0 26 -16l50 -48q34 -32 66 -72v-2q0 -16 -26 -36l-76 -76q-30 -30 -36 -30q-10 0 -26 16l-96 96q-20 20 -20 28z" />
<glyph unicode="H" d="M-912 1208q0 16 20 40l136 174q126 160 248 276q176 170 334 170q80 0 134 -64l2 -2q36 -44 36 -98q0 -124 -132 -220q-72 -54 -118 -54q-18 0 -18 14q0 10 20 34l50 46l12 20q14 32 14 64q0 34 -16 64q-24 48 -80 48q-44 0 -98 -34q-48 -28 -134 -106q-40 -38 -204 -222 q-20 -24 -42 -46l-94 -96q-30 -30 -46 -30h-2q-6 0 -10 4q-12 6 -12 18z" />
<glyph unicode="I" horiz-adv-x="1242" d="M4 376q0 210 202 404q112 106 240 148q80 28 156 28q246 0 360 -246q64 -132 64 -300q0 -94 -18 -216q-68 -442 -382 -808q-156 -184 -348 -310q-88 -52 -126 -52q-20 0 -20 16q0 22 52 64l82 54l4 2q100 68 178 140q314 302 388 760q16 104 16 198q0 240 -118 388 q-54 68 -124 102q-70 36 -146 36q-58 0 -118 -20q-86 -26 -116 -62q-36 -46 -52 -136q-2 -22 -2 -42q0 -58 22 -96l66 -80q18 -26 18 -56q0 -84 -84 -124q-26 -12 -52 -12l-32 4q-110 28 -110 216z" />
<glyph unicode="J" d="M-914 1208q0 14 14 28q18 14 116 60l244 110q224 112 224 218q0 72 -78 100q-26 8 -50 8q-16 0 -32 -4q-6 -2 -54 -34q-22 -16 -42 -16h-6q-12 0 -12 14q0 26 48 68q110 110 232 110q82 0 136 -72q32 -46 32 -108q0 -172 -274 -318q-190 -94 -426 -170q-38 -12 -52 -12 h-4q-16 6 -16 18z" />
<glyph unicode="K" horiz-adv-x="1260" d="M-2 324q0 66 20 146q32 128 98 228q46 72 76 102q-16 8 -42 30q-116 106 -116 270q0 222 246 446q62 56 134 106l108 68q108 66 148 66q24 0 24 -14q0 -34 -120 -106q-222 -132 -296 -226q-68 -90 -68 -204q0 -30 4 -60q28 -138 140 -208q4 -4 10 -6l24 -16q4 -4 4 -20 q-6 -24 -28 -50q-6 -8 -70 -74q-98 -98 -118 -278q-2 -26 -2 -50q0 -176 140 -280q106 -76 236 -76q102 0 188 42q32 16 48 32q12 10 28 42q34 64 34 152q0 40 -14 72q-8 16 -52 66q-40 40 -40 84q0 24 12 50q36 86 130 86q28 0 52 -14h2q84 -50 84 -204q0 -122 -72 -244 q-114 -192 -312 -284q-116 -54 -226 -54q-112 0 -216 56q-198 110 -198 324z" />
<glyph unicode="L" d="M-1210 0q0 10 26 36l76 76l36 28q10 0 26 -16l50 -48q34 -32 66 -72v-2q0 -16 -26 -36l-76 -76q-30 -30 -36 -30q-10 0 -26 16l-96 96q-20 20 -20 28z" />
<glyph unicode="M" d="M-588 1206q0 6 2 14l6 8q8 14 88 68l194 132q52 40 92 80q68 64 68 126q0 50 -54 80q-36 18 -68 18q-40 0 -78 -26l-54 -40q-14 -4 -20 -4q-14 0 -14 18q0 24 42 74q110 130 244 130l88 -24q78 -52 78 -144q0 -46 -24 -100q-44 -110 -172 -206q-78 -58 -314 -186 q-64 -38 -84 -38h-2q-18 6 -18 20z" />
<glyph unicode="N" d="M-640 1204q0 14 14 38q102 180 228 362q194 266 382 266q78 0 126 -68q34 -46 34 -104q0 -114 -112 -214q-74 -62 -108 -62q-12 0 -14 14q0 16 18 38l40 46q20 38 20 76q0 40 -24 74q-24 40 -74 40q-40 0 -88 -32q-48 -34 -114 -110q-38 -44 -178 -242q-68 -92 -88 -112 q-22 -30 -40 -30q-22 2 -22 20z" />
<glyph unicode="O" d="M-972 -538q0 12 26 36l76 76q28 28 38 28q12 -2 24 -16l50 -48l46 -46q18 -18 18 -26v-2q0 -14 -24 -36l-76 -76q-30 -30 -38 -30t-18 8l-6 8l-96 96q-20 16 -20 28z" />
<glyph unicode="P" d="M-1810 956q0 10 8 28q22 38 54 64q136 126 272 156q66 16 150 16q128 0 294 -36q316 -64 410 -64h22q130 0 216 46q10 4 64 50q34 34 66 34q12 0 12 -10q0 -6 -2 -12v-4q-24 -48 -68 -88q-132 -122 -288 -154q-56 -10 -122 -10q-84 0 -184 16l-362 70h-2q-96 14 -174 14 q-148 0 -236 -52l-80 -64q-24 -14 -36 -14q-14 0 -14 14z" />
<glyph unicode="Q" horiz-adv-x="1382" d="M-212 -1012q0 14 14 36q4 8 58 74q162 184 190 952q8 194 8 584q0 384 16 526q38 268 106 406q42 88 118 178q66 70 100 88q22 8 34 8q14 0 14 -14q0 -20 -32 -64l-48 -56q-130 -192 -136 -764v-354l64 66q280 264 498 264q82 0 150 -42q86 -56 132 -162q28 -70 28 -144 q0 -154 -124 -322q-40 -54 -88 -102h128q98 10 182 68l86 68q18 8 30 8q20 0 20 -18q0 -20 -38 -68q-182 -208 -464 -208l-314 6q-172 0 -306 -10q-6 -178 -50 -406q-52 -256 -138 -392q-78 -130 -158 -192q-44 -32 -64 -32q-16 0 -16 18zM222 130q236 24 354 24 q78 0 116 -2q24 0 36 -2q22 0 26 2l30 18q52 24 64 36q30 28 60 108q20 60 20 118q0 84 -44 166q-46 84 -130 124q-52 24 -108 24q-96 0 -206 -70q-138 -88 -192 -220q-20 -56 -26 -326z" />
<glyph unicode="R" d="M-956 1254q0 6 4 18q104 140 350 442l50 60q46 46 76 50q28 0 44 -10q24 -18 24 -46q0 -46 -72 -118l-80 -84l-232 -228l-90 -84q-32 -28 -48 -28q-26 0 -26 28z" />
<glyph unicode="S" horiz-adv-x="1980" d="M-2 356q0 258 230 458q120 104 238 104q60 0 102 -18q60 -30 60 -96q0 -54 -34 -92l-2 -4l-12 -12q-42 -34 -86 -34q-30 0 -62 16l-44 36q-44 30 -86 30q-40 0 -62 -18q-12 -12 -26 -44q-46 -90 -46 -182q0 -126 74 -236q76 -108 186 -108q32 0 72 8q194 38 252 188 q4 10 36 136q44 176 188 304q140 126 268 126q54 0 100 -20q58 -30 58 -94q0 -68 -50 -110q-40 -34 -84 -34q-28 0 -62 18l-46 36q-40 26 -82 26q-48 0 -68 -16q-14 -14 -26 -42q-44 -82 -44 -176q0 -66 22 -136q48 -152 160 -198l2 -2q48 -14 80 -14q34 0 74 8 q200 46 254 182q0 4 2 8q20 56 20 190v252q0 374 86 658q54 182 192 322q66 66 102 66q16 0 16 -14q0 -10 -8 -30l-76 -98q-92 -154 -128 -508q-10 -126 -10 -388v-330q0 -462 -28 -694q-56 -478 -262 -714q-90 -96 -132 -96q-14 0 -14 20q4 30 56 88l2 2q50 56 90 168 q112 310 116 932v60q-94 -100 -230 -182q-144 -74 -248 -74q-150 0 -236 122q-6 10 -14 20q-38 70 -46 120q-102 -112 -234 -188q-130 -74 -264 -74q-40 0 -68 8q-132 40 -192 204q-26 74 -26 160z" />
<glyph unicode="T" d="M-882 1440q0 12 26 36l76 76q28 28 38 28q12 -2 24 -16l50 -48l46 -46q18 -18 18 -26v-2q0 -14 -24 -36l-76 -76q-30 -30 -38 -30t-18 8q0 6 -6 8l-96 96q-20 16 -20 28z" />
<glyph unicode="U" d="M-1002 1206q0 10 8 24q14 18 92 70l214 152q44 36 78 70q72 72 72 134q0 70 -82 90q-18 4 -36 4q-46 0 -84 -26l-50 -38l-22 -6q-14 0 -14 18q0 24 42 76q110 130 244 130q70 0 122 -52q42 -48 42 -112q0 -48 -22 -104q-48 -118 -192 -222q-104 -76 -342 -208 q-32 -20 -48 -20q-22 0 -22 20z" />
<glyph unicode="V" d="M-582 1254q0 18 32 56q162 222 322 406q36 40 50 58q46 46 76 50q68 0 68 -58q0 -42 -64 -106l-94 -98l-230 -228q-46 -38 -86 -80q-32 -28 -48 -28q-26 0 -26 28z" />
<glyph unicode="W" horiz-adv-x="2054" d="M-214 -1014q0 22 46 78l6 6q104 112 164 436q36 202 46 490q10 260 10 628q0 426 30 622l16 88q48 244 194 410q94 100 132 100q16 0 16 -18q0 -30 -58 -94h-2l-8 -10q-56 -66 -92 -216q-54 -208 -54 -600v-42q0 -118 -2 -176q0 -76 2 -84q10 16 40 46q70 74 154 138 q166 132 298 132q64 0 120 -32q128 -70 166 -270q0 2 34 40q36 38 86 82q200 180 352 180q154 0 240 -170q36 -82 36 -168q0 -138 -92 -290q-48 -80 -116 -148q98 0 118 2q92 10 172 62l80 66q26 18 46 18q18 0 18 -16q0 -34 -62 -96q-134 -134 -300 -172q-58 -12 -164 -12 l-250 2q-174 6 -392 6q-332 0 -502 -12q-44 -4 -64 -4q-28 0 -34 -4q-4 -2 -4 -14q0 -38 -22 -220q-50 -422 -218 -636q-60 -82 -118 -122q-32 -22 -48 -22q-20 0 -20 16zM222 128q52 6 162 10q124 8 190 8q72 4 108 4h32l20 4q28 14 40 26q14 14 24 42q46 82 46 174 q0 62 -20 128q-24 82 -76 140q-70 82 -162 82q-44 0 -82 -14q-148 -58 -228 -206q-24 -42 -36 -88q-10 -38 -14 -172l-4 -104v-34zM850 154l418 -6l148 -2l28 18l46 24q16 10 30 36q62 96 62 210q0 118 -56 202q-70 110 -182 110q-82 0 -162 -60q-100 -74 -164 -214 l-62 -162q-32 -62 -68 -108z" />
<glyph unicode="X" horiz-adv-x="2024" d="M-18 856q0 64 74 130q42 38 72 38q18 0 18 -16q0 -12 -8 -30q-6 -10 -6 -12v-4q0 -40 48 -54q32 -8 72 -12q68 -6 394 -16h14q118 -2 234 -2l470 8q78 0 156 6q76 6 78 6l8 136q40 424 174 626q118 164 190 182q18 0 20 -4q4 -6 4 -12q0 -20 -68 -102l-10 -14 q-84 -122 -122 -414q-24 -170 -24 -512l2 -356q0 -410 -26 -622q-56 -500 -264 -738q-88 -100 -130 -100q-18 0 -18 16q0 22 82 124q46 64 82 182q98 328 102 884v66q-228 -232 -462 -256h-28q-158 0 -236 138q-40 66 -48 120q-192 -190 -376 -240q-70 -20 -126 -20 q-162 0 -242 172q-34 68 -34 164q0 136 88 286q44 76 104 136l-160 16h-2q-48 4 -68 24q-28 38 -28 76zM222 470q0 -214 152 -292q42 -22 104 -22q136 0 264 106q22 18 32 36q28 38 46 144q18 110 88 218l54 72h-464l-150 2q-36 -12 -64 -60q-62 -92 -62 -204zM984 500 q0 -176 112 -282q62 -62 146 -62q136 0 250 84q80 58 100 166q6 34 6 132l-2 228q-152 -32 -488 -32q-40 0 -50 -6q-8 -6 -24 -32q-50 -96 -50 -196z" />
<glyph unicode="Y" d="M-1036 1204q0 12 12 36l104 174l146 216q166 224 346 224q78 0 132 -62l2 -2q0 -4 2 -4q0 -2 2 -2q2 -4 6 -10q24 -46 24 -92q0 -108 -116 -212q-64 -58 -104 -58q-16 0 -16 10q0 14 16 34l44 56q16 26 16 68q0 40 -20 74q-28 42 -78 42q-80 0 -206 -148 q-20 -24 -160 -220q-50 -70 -90 -116q-24 -28 -40 -28q-22 2 -22 20z" />
<glyph unicode="Z" horiz-adv-x="1314" d="M-44 854q0 62 74 130q44 40 74 40q16 0 16 -16q0 -12 -8 -32q-6 -6 -6 -14q0 -74 234 -80q-2 0 22 0q64 -2 140 -2q148 0 336 8l32 2q6 2 20 22q4 80 18 226q46 362 182 548q66 90 124 132q34 24 52 24q20 0 20 -14q0 -28 -80 -120q-100 -146 -134 -516 q-10 -126 -10 -388l2 -346q0 -414 -24 -622q-22 -210 -70 -388q-62 -232 -210 -394q-74 -84 -120 -84q-16 0 -16 18q0 26 72 104q52 60 106 244q88 316 88 918q-202 -202 -426 -254q-70 -18 -128 -18q-116 0 -196 70q-48 38 -74 88q-50 88 -50 188q0 108 66 240 q30 58 122 166q-118 8 -158 18q-90 26 -90 102zM188 470q0 -88 48 -170q30 -54 78 -90q74 -56 172 -56q118 0 244 70q118 66 144 154q14 38 14 156v230q-138 -32 -394 -32h-126q-46 0 -52 -4q-32 -16 -48 -32q-36 -34 -60 -108q-20 -60 -20 -118z" />
<glyph unicode="[" d="M-1228 1106q0 22 50 72q54 56 82 56q12 0 60 -16q60 -18 210 -18h30h348q78 0 144 22q38 14 40 14q14 0 14 -14t-14 -36q-38 -64 -96 -92q-110 -42 -298 -42h-332q-110 0 -172 18q-52 18 -58 22q-8 4 -8 14z" />
<glyph unicode="\" horiz-adv-x="900" d="M-72 360q0 18 22 52q82 106 204 136q22 4 50 4q68 0 178 -24q92 -20 144 -20q62 0 88 14l56 40l16 4q16 0 16 -18q0 -22 -28 -56q-112 -130 -258 -130q-64 0 -152 18q-122 26 -174 26q-50 0 -70 -14l-62 -42q-8 -4 -14 -4q-16 0 -16 14z" />
<glyph unicode="]" horiz-adv-x="1092" d="M-52 384q0 174 136 330q184 206 398 206q106 0 192 -56q62 -44 62 -100q0 -20 -8 -42q-24 -70 -94 -92q-18 -4 -34 -4q-26 0 -50 10q-20 8 -68 52q-60 60 -156 60q-92 0 -150 -44q-8 -6 -18 -26q-40 -74 -40 -154q0 -78 38 -160q68 -142 206 -192q54 -20 126 -20 q146 0 278 88l66 58q26 20 50 20q12 0 12 -16q0 -42 -64 -100q-214 -220 -520 -220q-100 0 -184 58q-178 116 -178 344z" />
<glyph unicode="^" d="M-1378 1208q0 14 18 40l134 170q130 164 240 270q178 168 332 168q82 0 134 -64l2 -2q34 -44 34 -100v-12q0 -110 -140 -214q-66 -48 -108 -48q-18 0 -18 12q0 22 50 64q46 42 46 102q0 28 -12 56q0 4 -2 6q-12 28 -50 46q-14 4 -30 4q-74 0 -192 -102q-68 -58 -260 -274 q-52 -58 -106 -112q-36 -30 -52 -32q-6 0 -10 4q-10 6 -10 18z" />
<glyph unicode="_" horiz-adv-x="900" d="M-434 28q0 22 40 74q38 40 74 54q86 10 232 12q200 -8 598 -22q142 -12 240 -144q66 -92 66 -206q0 -112 -48 -204q-88 -174 -254 -262q-104 -56 -206 -56q-50 0 -100 14q-140 38 -204 150q-32 56 -32 116q0 96 94 186q48 48 82 48q16 0 16 -14q0 -12 -10 -34 q-18 -24 -34 -82q0 -76 80 -148q18 -18 38 -30q88 -56 182 -56q120 0 184 64t64 188q0 106 -70 200q-10 16 -22 28q-68 72 -164 90q-30 6 -172 8h-16l-374 16h-8q-188 0 -252 -8q-24 0 -24 18z" />
<glyph unicode="`" horiz-adv-x="602" d="M-48 694q0 32 44 78q120 138 248 138q70 0 90 -112l2 -2q6 -40 6 -92q0 -188 -2 -280q-4 -146 -22 -204q-18 -56 -56 -112q-52 -72 -100 -102q-34 -24 -52 -24q-14 0 -14 12q0 24 44 86q26 44 26 204l2 322q-8 116 -62 128q-6 2 -13 2t-13 -2q-18 0 -26 -8l-54 -38 q-28 -10 -32 -10q-16 0 -16 16z" />
<glyph unicode="a" horiz-adv-x="1278" d="M-22 356q0 240 218 434q144 128 284 128q78 0 118 -28q46 -30 46 -82q0 -82 -62 -122q-38 -26 -74 -26q-32 0 -60 18l-58 42l-2 2q-38 20 -76 20l-68 -16q-30 -10 -54 -58q-40 -84 -40 -166q0 -136 86 -240q84 -106 208 -106q14 0 30 2q188 14 300 116q60 54 76 122 q8 28 10 134v14q8 234 174 348q36 26 56 26q16 0 16 -14q0 -16 -42 -74l-2 -2q-28 -42 -28 -196v-24v-34q0 -606 -42 -886q-70 -446 -278 -650q-68 -68 -102 -68q-16 0 -16 22q4 30 60 90l2 2q52 60 90 172q112 352 112 998q-270 -270 -560 -270q-44 0 -74 8 q-150 42 -216 204q-32 78 -32 160z" />
<glyph unicode="b" horiz-adv-x="2044" d="M-32 856q0 62 74 128q44 38 70 38h2q16 0 16 -16l-12 -46q4 -30 24 -44q18 -16 224 -30q204 -8 472 -8q136 0 286 2q528 0 652 34l76 46q6 2 10 2q20 0 20 -22q0 -20 -24 -48q-12 -20 -30 -36l-34 -34q-10 -18 -20 -74l-10 -144q-10 -120 -10 -214q0 -114 14 -190l12 -60 v-10q-6 -24 -26 -48q-34 -48 -84 -80q-30 -20 -46 -20q-18 0 -18 24q-28 98 -28 222q-198 -214 -430 -242q-28 -4 -54 -4q-144 0 -228 144q-38 58 -46 116q-190 -190 -376 -242q-68 -18 -122 -18q-168 0 -246 176q-34 76 -34 160q0 138 96 296q42 68 96 126q-84 0 -174 16 q-50 4 -66 26q-26 32 -26 74zM216 460q0 -74 30 -148q64 -156 222 -156h8q136 0 266 110q48 42 70 156q10 56 16 80q34 110 126 228l-442 2h-20l-150 2q-32 -10 -64 -58q-62 -106 -62 -216zM976 492q0 -104 52 -196q34 -62 88 -100q60 -42 134 -42q102 0 196 58l20 12 q102 68 122 224l16 178q10 54 48 136q-180 -28 -430 -28q-40 -2 -122 -2q-42 0 -50 -6q-32 -28 -60 -126q-14 -56 -14 -108z" />
<glyph unicode="c" horiz-adv-x="1354" d="M-44 854q0 62 74 130q42 38 72 38q18 0 18 -16q0 -12 -8 -30q-6 -12 -6 -14q0 -78 232 -82l226 -2q204 0 318 10q12 0 36 4q10 0 14 2q8 78 12 158q18 250 72 412q62 182 192 312q66 66 102 66q16 0 16 -18q0 -24 -42 -72q-36 -40 -44 -54q-64 -102 -94 -276 q-28 -142 -44 -476q-20 -336 -20 -504q0 -114 28 -268q4 -16 4 -30q0 -32 -22 -58q-54 -84 -126 -104q-20 0 -26 28q-14 86 -26 172l-4 72q-4 -8 -40 -40q-244 -232 -510 -232q-102 0 -174 52q-146 92 -146 296q0 184 188 404q-230 0 -260 72q-12 24 -12 48zM212 468 q0 -96 54 -182q86 -134 240 -134q116 0 258 78q54 30 84 64q36 40 54 108q6 26 14 148v14l10 198q-148 -32 -400 -32h-132q-50 0 -54 -2q-76 -36 -110 -146q-18 -58 -18 -114z" />
<glyph unicode="d" horiz-adv-x="1306" d="M-20 358q0 186 146 358q76 90 176 150q90 52 182 52q20 0 40 -2h2q82 -10 110 -70q12 -26 12 -50q0 -46 -40 -90q-42 -46 -94 -46q-40 0 -70 20l-48 38l-2 2q-38 22 -78 22q-84 0 -116 -60q-48 -84 -48 -178q0 -60 20 -124q34 -104 114 -168q72 -56 174 -56 q156 0 294 100q36 28 52 48q50 62 58 204v12q0 2 6 140q24 426 26 442q24 260 92 420q64 150 182 266q30 30 68 48q12 6 20 6q18 0 18 -16q0 -28 -74 -110q-76 -102 -108 -304q-24 -136 -42 -466q-20 -340 -20 -506q0 -112 28 -266q4 -16 4 -30q0 -32 -22 -58 q-54 -84 -126 -104q-20 0 -26 28q-14 86 -26 172l-4 72q-2 -4 -48 -48q-56 -50 -116 -92l-80 -48q-156 -84 -312 -84q-178 0 -270 168q-6 8 -10 18q-44 84 -44 190z" />
<glyph unicode="e" horiz-adv-x="1376" d="M-18 0q0 20 32 62q24 24 36 104q0 2 6 160q2 62 2 186q0 460 14 610q20 214 66 338q2 10 6 18q60 172 190 302q38 40 74 54q12 10 20 10q18 0 18 -16q0 -28 -72 -114l-2 -4l-4 -4q-124 -180 -136 -680q-2 -146 -2 -440q166 178 336 268q120 64 220 64q162 0 258 -152 q56 -92 56 -200q0 -210 -212 -422h114q96 10 166 52l76 60l26 18q24 16 40 16q8 0 14 -4l2 -2q4 -4 4 -10q0 -30 -40 -74q-154 -168 -368 -202q-36 -4 -98 -4l-372 10q-172 0 -390 -22q-30 -2 -48 -2q-32 0 -32 20zM166 130l140 12q112 10 270 10l120 -2q26 0 52 -2l28 18 q52 24 64 32q44 38 70 134q14 50 14 98q0 88 -46 172l-2 2q-78 140 -232 140q-94 0 -212 -74q-138 -92 -184 -214q-10 -28 -26 -158q-14 -80 -34 -124z" />
<glyph unicode="f" horiz-adv-x="1980" d="M-20 356q0 216 168 398q156 166 300 166q52 0 102 -22q60 -28 60 -96t-48 -106q-40 -36 -86 -36q-38 0 -62 16l-44 36q-46 30 -88 30q-38 0 -60 -18q-12 -10 -26 -42q-44 -94 -44 -188q0 -124 72 -230q76 -108 188 -108q32 0 70 6q190 38 252 188l54 192q56 144 170 250 q140 126 270 126q58 0 100 -22q56 -30 56 -92q0 -72 -52 -112q-40 -32 -82 -32q-30 0 -60 16l-48 38q-40 28 -82 28t-66 -18l-28 -42q-42 -94 -42 -186q0 -134 74 -234q76 -108 190 -108q30 0 64 8q118 20 196 92q82 72 92 250q-12 -242 -14 -242l38 740q24 298 74 452 q62 188 194 322q64 64 104 64q14 0 14 -16q0 -30 -76 -114q-64 -78 -102 -280q-26 -138 -44 -466q-20 -348 -20 -498v-26q0 -126 28 -266q6 -38 6 -40q-2 -22 -24 -48q-36 -52 -86 -84q-30 -20 -46 -20q-14 0 -20 24l-28 188q-2 24 -2 46q-100 -100 -168 -144 q-160 -114 -324 -114q-146 0 -230 140q-42 68 -50 124q-200 -216 -426 -258q-36 -6 -68 -6q-40 0 -72 10q-132 40 -192 204q-26 74 -26 160z" />
<glyph unicode="g" horiz-adv-x="1992" d="M-10 352q0 234 188 422q146 146 284 146q54 0 106 -26q52 -30 52 -86q0 -42 -20 -76q-12 -26 -34 -42q-40 -30 -80 -30q-26 0 -52 12l-56 42q-40 26 -82 26q-26 0 -54 -10q-10 -6 -30 -36q-50 -88 -50 -188q0 -126 64 -228q70 -122 198 -122q26 0 56 4q180 34 250 158 q18 34 46 156q54 212 242 360q108 82 218 82q94 0 132 -44q28 -34 28 -70q0 -34 -24 -72q-42 -70 -112 -70q-32 0 -64 18l-62 46q-28 18 -74 18q-30 0 -52 -14l-6 -6q-42 -52 -58 -138q-10 -46 -10 -90q0 -104 56 -202q76 -138 206 -138q40 0 88 12q160 36 216 146 q34 58 44 134l18 194q30 154 156 248q36 32 56 32t20 -18q0 -22 -38 -74q-2 0 -8 -10q-18 -36 -22 -112q-8 -114 -18 -316q0 -104 16 -190l14 -60q0 -22 -30 -62q-40 -50 -82 -76q-30 -20 -46 -20q-18 0 -18 24q-28 98 -28 222q-108 -116 -224 -174q-140 -72 -252 -72 q-154 0 -238 146q-38 64 -46 118q-242 -264 -494 -264q-176 0 -256 196q-34 82 -34 174z" />
<glyph unicode="h" horiz-adv-x="1312" d="M-14 360q0 232 220 430q90 82 200 118l32 6q6 2 10 2q28 4 52 4q88 0 130 -54l4 -4v-2q18 -26 18 -64q0 -48 -30 -80q-42 -56 -104 -56q-26 0 -56 14l-74 52q-36 16 -70 16q-60 0 -96 -36q-36 -44 -56 -130q-8 -42 -8 -82q0 -112 66 -210q90 -128 236 -128q24 0 48 2 q190 26 292 134q60 68 72 220l-8 -104q0 6 10 150q8 100 30 154q40 102 134 176q42 30 62 30q16 0 16 -16q0 -22 -48 -84q-16 -40 -24 -162q-14 -206 -14 -266q0 -118 16 -194l12 -54q0 -22 -28 -62q-34 -46 -82 -78q-32 -20 -46 -20t-20 26q-26 92 -26 236 q-202 -202 -434 -250q-56 -12 -106 -12q-70 0 -124 24q-128 54 -182 206q-24 72 -24 148z" />
<glyph unicode="i" horiz-adv-x="1216" d="M-24 374q0 212 202 406q112 106 240 148q84 28 162 28q118 0 224 -64q170 -100 192 -300v-30q0 -178 -190 -456q-60 -92 -248 -346q-128 -174 -184 -274q-62 -118 -62 -196q0 -54 28 -90l20 -26q2 -6 2 -20q-4 -16 -26 -48q-34 -46 -76 -76q-34 -24 -54 -24q-10 0 -30 24 q-36 48 -36 118q0 100 76 246l2 2l20 40q70 124 276 396q150 202 220 326q88 152 88 272q0 90 -68 196q-116 156 -324 156q-44 0 -86 -10q-108 -26 -142 -70q-54 -72 -54 -184q0 -50 20 -86q6 -10 52 -58l2 -2q32 -32 32 -78q0 -38 -28 -76q-44 -62 -108 -62q-8 0 -18 2 q-6 0 -12 2q-112 30 -112 214z" />
<glyph unicode="j" horiz-adv-x="1952" d="M-98 668q0 28 52 86q106 112 256 154q92 24 240 24q66 0 144 -4q38 -2 428 -50q178 -20 306 -24q222 0 302 28l2 2h2q36 14 60 34q50 44 74 44q18 0 18 -20q0 -10 -8 -24q-18 -36 -60 -76q-134 -134 -342 -156q-60 -6 -136 -6q-180 0 -448 36l-160 20q-16 -6 -154 -134 q-326 -304 -326 -586q0 -156 88 -292q116 -190 376 -268q130 -38 258 -38q234 0 440 124q134 82 204 222q34 68 34 122q0 12 -2 24q-6 24 -50 68t-44 90q0 26 20 66q40 68 118 68q62 0 96 -48q36 -50 36 -116q0 -90 -64 -212q-142 -268 -420 -432q-248 -146 -512 -146 q-378 0 -594 230q-142 152 -156 376v22q0 374 490 818l58 54l-230 12q-150 0 -244 -34q-20 -6 -90 -54q-28 -20 -44 -20q-18 0 -18 16z" />
<glyph unicode="k" horiz-adv-x="1230" d="M-58 -544q0 220 164 442l82 94q-38 12 -96 62q-128 114 -128 282q0 66 20 130q38 118 160 294q88 124 260 340q124 156 170 238q70 118 70 196q0 28 -10 52q-16 28 -38 60v6q0 6 2 12q20 62 104 122q30 20 50 20q10 0 30 -20q32 -48 32 -114q0 -102 -82 -246l-12 -22 q-74 -124 -278 -378q-138 -174 -206 -280q-100 -160 -100 -266q0 -42 12 -86q52 -166 210 -238q82 -38 166 -38l178 44q38 24 48 34q34 36 48 98q12 50 12 90q0 48 -18 84q-6 8 -48 58l-2 2q-36 36 -36 80q0 18 6 40q22 70 94 92q20 6 38 6q38 0 74 -26q66 -54 66 -178 q0 -16 -2 -34q0 -28 -6 -56q-32 -172 -196 -330q-110 -104 -238 -146q-80 -28 -162 -28q-44 0 -90 8q-16 4 -24 4q-4 0 -6 -2q-16 -12 -62 -72q-80 -130 -80 -294q0 -68 22 -126q54 -148 208 -214q80 -34 158 -34q88 0 176 44q98 44 110 206v20q0 40 -14 72q-8 16 -52 66 q-40 40 -40 84q0 32 20 66q40 68 118 68q124 0 142 -186v-24q0 -142 -90 -276q-126 -194 -324 -272q-96 -40 -190 -40q-86 0 -170 34q-212 88 -246 318z" />
<glyph unicode="l" horiz-adv-x="1340" d="M-118 86q0 16 24 54q36 54 96 92q24 12 38 12q10 0 28 -22l40 -52q16 -16 34 -16q20 0 44 32l236 280l80 102q0 4 -6 16l-28 44q-92 140 -168 140h-4q-6 0 -16 -10q-40 -60 -92 -96q-24 -16 -40 -16h-6q-16 0 -16 20q4 30 58 90q126 162 224 162q84 0 162 -92 q10 -10 96 -150l8 -12l186 -296q104 -166 108 -170q52 -66 90 -66q6 0 32 34q74 88 114 88q20 0 20 -16v-12q-8 -28 -48 -72q-48 -64 -62 -78q-88 -94 -164 -94q-80 0 -152 118l2 -2l-174 276l-76 126l-32 -34q-26 -36 -58 -70l-164 -196q-180 -218 -294 -218q-14 0 -26 2 q-30 8 -64 60l-2 2q-4 6 -6 10q-20 20 -22 30z" />
<glyph unicode="m" horiz-adv-x="1856" d="M-112 668q0 30 58 92q122 122 276 154q84 18 206 18q80 0 178 -8l594 -64q68 -6 128 -8q234 0 326 46l72 52q16 10 28 10q14 0 14 -18v-6q0 -30 -54 -84q-122 -122 -274 -154q-88 -18 -214 -18q-136 0 -590 52q-56 8 -66 8h-8q-6 0 -70 -40q-142 -90 -160 -178 q-8 -34 -8 -68q0 -106 80 -186q122 -132 462 -172q208 -26 288 -52q222 -88 222 -264q0 -142 -150 -278q-182 -164 -442 -164q-30 0 -62 2q-330 30 -380 212q-6 26 -6 44q0 50 74 118q60 48 84 48q16 0 16 -26q22 -154 226 -202q100 -24 192 -24q110 0 210 34l2 2q8 2 14 4 l30 16q16 16 16 70v22q-14 172 -282 238q-34 8 -164 22q-504 52 -584 294q-18 48 -18 104q0 214 276 438l-160 6q-180 0 -272 -52l-66 -50q-14 -8 -24 -8q-18 0 -18 18z" />
<glyph unicode="n" horiz-adv-x="1370" d="M-34 854q0 62 74 130q42 38 72 38h2q16 0 16 -16q0 -14 -14 -42q0 -6 4 -18q14 -38 80 -50q88 -18 404 -18q410 0 502 38l68 42q8 4 14 4q18 0 18 -22q0 -20 -24 -48q-12 -20 -30 -36l-34 -34q-10 -14 -20 -76l-10 -142q-10 -120 -10 -214q0 -114 14 -190l12 -60v-10 q-6 -24 -26 -48q-34 -48 -84 -80q-30 -20 -46 -20q-8 0 -12 4q-4 6 -18 68q-16 82 -16 190q-198 -198 -418 -248q-68 -16 -122 -16q-174 0 -260 146q-58 88 -58 198q0 98 48 206q26 70 138 204l-152 14q-6 0 -12 2q-52 8 -72 30q-28 38 -28 74zM216 468q0 -86 44 -166 q36 -64 96 -104q68 -46 156 -46q86 0 190 44q68 30 120 70q72 58 90 180l14 164q6 52 24 100l24 48l-128 -18q-108 -10 -322 -10h-178q-70 -30 -110 -142q-20 -62 -20 -120z" />
<glyph unicode="o" horiz-adv-x="1224" d="M-54 382q0 170 144 332q22 26 48 50q164 154 350 154q116 0 222 -68l4 76q0 40 8 120q50 566 310 768q38 28 58 28q16 0 16 -18q0 -34 -58 -92q-22 -22 -58 -94q-108 -246 -108 -844v-246q0 -168 2 -200l16 -142q12 -2 98 -30q66 -20 120 -20t98 20q32 16 110 86 q62 58 90 58h2q20 0 20 -16q0 -26 -56 -88q-218 -234 -406 -234q-36 0 -72 8l-204 54q-34 4 -42 4q-52 0 -168 -38l-56 -16q-52 -12 -100 -12q-156 0 -266 110q-122 106 -122 290zM120 520q0 -152 112 -262q66 -64 152 -88q50 -16 98 -16l78 10l152 46q-2 30 -2 94 q0 166 -44 246q-78 144 -238 184q-44 12 -88 12q-18 0 -34 -2q-104 -12 -138 -52q-6 -6 -22 -38q-26 -64 -26 -134z" />
<glyph unicode="p" d="M-1224 1012q0 18 32 60q120 148 310 148q74 0 168 -20q176 -38 236 -38h20q66 0 108 22l60 46q12 6 24 8q18 0 18 -14q0 -16 -26 -52l-6 -6q-120 -150 -312 -150q-72 0 -158 16q-188 40 -242 40h-24q-68 0 -110 -24l-68 -48q-10 -4 -16 -4q-14 0 -14 16z" />
<glyph unicode="q" horiz-adv-x="1492" d="M-104 -1014q0 30 60 96q6 8 10 12q60 70 108 254q90 338 90 996l2 188v2q0 98 -14 144q-20 60 -68 60q-14 0 -30 -8l-46 -34q-28 -16 -43 -16t-15 16q0 34 56 90q120 124 226 124q30 0 52 -14q56 -40 56 -202l-2 -108l64 66q142 138 288 210q114 56 208 56q84 0 152 -42 q84 -50 132 -162q28 -70 28 -144q0 -154 -124 -322q-40 -54 -88 -102h128q98 10 182 68l86 68q18 8 30 8q20 0 20 -18q0 -20 -34 -64l-6 -6q-88 -96 -218 -158q-106 -48 -240 -48l-370 8q-62 0 -102 -2l-152 -10q-38 -538 -176 -780q-78 -136 -164 -206q-46 -36 -70 -36 q-16 0 -16 16zM330 130q236 24 354 24q78 0 116 -2q24 0 36 -2q22 0 26 2l30 18q52 24 64 36q30 28 60 108q20 60 20 118q0 84 -44 166q-46 84 -130 124q-52 24 -108 24q-122 0 -268 -118q-98 -76 -132 -176q-24 -76 -24 -322z" />
<glyph unicode="r" horiz-adv-x="2048" d="M-18 -2q0 18 36 66q36 54 38 218l2 230q0 454 12 586q18 228 76 384q60 170 190 300q36 36 74 54q12 6 20 6q16 0 16 -18q0 -38 -80 -118q-128 -202 -134 -736v-368q2 6 44 54q262 262 448 262q100 0 178 -78q92 -100 104 -224l34 38q54 60 142 132q170 132 300 132 q60 0 110 -26q88 -54 126 -142q38 -82 38 -170q0 -138 -92 -288q-50 -80 -118 -148q98 0 118 2q112 14 194 78q80 66 100 66q22 0 22 -20q0 -28 -64 -92q-136 -136 -308 -172q-54 -12 -216 -12q-172 4 -256 4q-188 4 -346 4h-104q-346 0 -658 -26q-44 0 -46 22zM164 128 q248 14 502 22h2q56 0 62 2l38 22l2 2q12 12 24 40q46 86 46 180q0 128 -64 226q-50 84 -134 114q-32 10 -64 10q-110 0 -232 -124q-84 -84 -110 -208l-22 -158q-10 -54 -50 -128zM846 152q216 -2 566 -6l78 44l6 6q84 90 84 244q0 80 -28 146q-54 124 -160 152q-26 8 -52 8 l-44 -6q-30 -4 -64 -22q-138 -72 -218 -252l-54 -142q-26 -58 -68 -116z" />
<glyph unicode="s" horiz-adv-x="1968" d="M-14 354q0 248 228 458q124 106 244 106q62 0 104 -22q54 -32 54 -90q0 -38 -18 -72q-12 -26 -34 -42q-40 -32 -82 -32q-30 0 -60 18l-46 36q-40 26 -82 26q-50 0 -66 -14q-4 -4 -26 -42q-44 -82 -44 -176q0 -66 22 -136q46 -156 166 -204q42 -12 70 -12q24 0 52 4 q166 24 246 140q16 24 26 50q6 12 30 118q44 190 202 330q124 120 258 120q80 0 122 -34q40 -32 40 -78q0 -26 -12 -54q-16 -44 -54 -68q-38 -22 -74 -22q-24 0 -46 10q-10 4 -48 36l-2 2q-4 4 -8 6q-42 26 -82 26q-68 0 -90 -54q-46 -88 -46 -184q0 -138 74 -242 q76 -106 190 -106q94 0 202 56q56 36 80 62q62 68 66 184l2 88q4 102 30 166q44 108 138 176q26 24 50 30q18 0 22 -2q4 -4 4 -12q0 -22 -38 -72l-2 -2q-34 -52 -34 -218l2 -44v-60q0 -592 -48 -872q-36 -202 -102 -350q-62 -142 -176 -256q-60 -60 -94 -60q-16 0 -16 12v8 q0 18 22 48l56 68q34 46 70 144q114 326 116 946v44q-256 -256 -494 -256q-144 0 -232 140q-42 74 -48 124q-244 -266 -498 -266q-40 0 -68 10q-132 40 -192 204q-26 74 -26 158z" />
<glyph unicode="t" horiz-adv-x="2156" d="M-48 692v10q4 28 52 80q122 128 230 128q34 0 58 -20q50 -46 50 -206l-2 -82l34 40q88 94 200 174q146 102 260 102q66 0 122 -34q96 -58 140 -186l22 -82q8 14 32 38q54 60 142 132q170 132 300 132q60 0 110 -26q88 -54 126 -142q38 -82 38 -170q0 -138 -92 -288 q-50 -80 -118 -148q92 0 112 2q98 10 174 62l90 72q20 10 32 10q22 0 22 -18q0 -28 -62 -92q-134 -130 -290 -170q-66 -16 -184 -16h-50q-304 10 -602 10q-324 0 -702 -24l-72 -4h-2q-18 0 -26 12q-4 4 -4 12q0 22 36 68q20 26 30 90q6 44 8 244l2 144q0 192 -78 192 q-22 0 -36 -10l-50 -36l-2 -2q-22 -12 -34 -12t-16 14zM274 128l132 8q144 8 292 12q14 0 78 2q58 0 64 2l38 22l2 2q12 12 24 40q46 86 46 180q0 128 -64 226q-50 84 -134 114q-32 10 -64 10q-112 0 -234 -124q-80 -86 -108 -206l-24 -168q-8 -44 -48 -120zM956 152 q2 0 452 -6h114q6 2 26 16q48 24 58 34q84 90 84 244q0 80 -28 146q-54 124 -160 152q-26 8 -52 8l-44 -6q-30 -4 -64 -22q-138 -72 -218 -252l-54 -142q-26 -58 -68 -116z" />
<glyph unicode="u" horiz-adv-x="1318" d="M-132 -130q0 48 36 106q78 128 302 268q38 24 86 50q28 20 44 26q-48 134 -104 262q-46 104 -66 128q-30 40 -60 40l-30 -16q-52 -44 -76 -44q-16 0 -16 20q0 30 42 78q108 112 180 112l24 -2q72 -14 124 -130q34 -70 42 -98q100 96 180 154q126 92 250 92q108 0 186 -88 q68 -82 68 -192q0 -86 -44 -194q-108 -242 -436 -440q-218 -132 -316 -228q-92 -96 -120 -174q-18 -54 -18 -102q0 -28 6 -52q26 -124 138 -186q58 -34 120 -34q66 0 98 24l20 18q24 24 46 36q28 18 44 18t16 -16q0 -28 -66 -100q-138 -150 -294 -150h-20q-22 0 -42 4 q-138 22 -200 148q-40 62 -40 142q0 72 34 158q4 14 10 26q54 116 176 250q44 48 96 90q46 44 104 82q38 28 50 34l-82 260q-2 -2 -76 -44q-104 -62 -160 -108q-80 -58 -80 -86q0 -40 34 -72l24 -18q4 -2 4 -6q2 -6 2 -12q0 -40 -94 -120q-30 -30 -60 -30q-26 0 -58 38 q-28 34 -28 78zM412 632q0 -2 6 -14l12 -30q72 -184 126 -364q42 -136 42 -138q14 6 32 20q204 138 248 248q30 70 30 134q0 154 -132 232q-54 30 -116 30q-70 0 -148 -40q-48 -24 -82 -58q-18 -18 -18 -20z" />
<glyph unicode="v" horiz-adv-x="1992" d="M-18 856q0 62 76 130q36 32 62 36q26 0 26 -18l-14 -40q0 -20 18 -42q34 -42 652 -42q172 0 434 2q156 0 310 14q24 0 26 16v20l6 94q26 246 50 350q56 224 200 382q74 82 120 82q14 0 14 -16q0 -24 -40 -70l-46 -56q-58 -92 -92 -266q-28 -140 -44 -468 q-20 -348 -20 -498v-26q0 -112 28 -266q6 -38 6 -40q-2 -22 -24 -48q-36 -52 -86 -84q-30 -20 -46 -20q-14 0 -20 24l-28 188q-2 24 -2 46q-96 -96 -168 -146q-178 -112 -324 -112q-142 0 -222 128q-2 4 -6 10q-46 70 -50 122q-266 -260 -498 -260q-164 0 -242 162 q-40 86 -40 180q0 144 100 298q42 66 96 120q-176 0 -200 66q-12 24 -12 48zM174 462q0 -210 152 -286q42 -20 94 -20q146 0 274 106q26 26 32 34q28 38 48 154l12 56q28 88 82 164l44 60q-404 0 -454 2l-156 2q-22 -6 -36 -22q-4 -4 -32 -38q-60 -100 -60 -212zM936 502 q0 -58 16 -118q24 -92 86 -156q68 -72 170 -72q18 0 38 2q122 20 210 90q68 58 86 166q6 26 10 150q12 196 12 200q-90 -20 -352 -28l-162 -4l-38 -4h-2q-8 -6 -24 -32q-50 -94 -50 -194z" />
<glyph unicode="w" horiz-adv-x="2146" d="M-104 -1014q0 30 60 96q6 8 10 12q60 70 108 254q90 338 90 996l2 188v2q0 98 -14 144q-20 60 -68 60q-14 0 -30 -8l-46 -34q-28 -16 -43 -16t-15 16q0 34 56 90q120 124 224 124q30 0 52 -14q56 -36 56 -198v-22l2 86v-4q0 -18 -2 -156q66 82 214 200q162 118 282 118 q64 0 136 -42q94 -76 130 -190l18 -70q2 0 32 38q64 68 146 134q164 128 294 128q60 0 112 -26q80 -36 126 -140q38 -82 38 -172q0 -138 -94 -292q-48 -78 -114 -144q98 0 118 2q126 14 208 90q56 56 88 56q18 0 18 -18q0 -34 -62 -96q-144 -140 -312 -172q-50 -10 -208 -10 l-352 6q-128 2 -240 2q-298 0 -488 -12l-106 -6q-2 -72 -28 -266q-46 -328 -150 -512q-72 -126 -164 -202q-42 -36 -68 -36q-16 0 -16 16zM330 128q52 6 162 10q124 8 190 8q72 4 108 4h32l20 4q28 14 40 26q14 14 24 42q44 82 44 174q0 60 -18 126q-20 74 -64 128 q-74 96 -174 96q-48 0 -90 -18q-144 -58 -222 -206q-22 -42 -34 -84q-18 -76 -18 -310zM958 154l418 -6l148 -2l28 18l46 24q16 10 30 36q62 96 62 210q0 118 -56 202q-70 110 -182 110q-82 0 -162 -60q-100 -74 -164 -214l-62 -162q-32 -62 -68 -108z" />
<glyph unicode="x" horiz-adv-x="2026" d="M-36 856q0 60 68 124q2 4 6 6q42 38 72 38q16 0 16 -18l-12 -46q14 -46 68 -56q154 -24 724 -24h174h40l296 6l254 12q48 6 90 14q10 2 58 34l2 2q26 14 38 14q14 0 18 -14q0 -4 2 -4q0 -32 -60 -90q-22 -20 -30 -34q-24 -44 -24 -194q0 -596 -32 -856q-30 -240 -94 -418 q-60 -180 -196 -318q-70 -64 -100 -64q-16 0 -16 16q0 20 30 62l50 60q184 262 184 1132q-206 -220 -440 -254q-28 -2 -52 -2q-150 0 -230 138q-42 70 -50 120q-188 -188 -376 -240q-70 -20 -126 -20q-162 0 -242 174q-34 78 -34 162q0 128 78 270q48 84 114 152l-170 16 q-52 4 -70 24q-2 2 -16 26q-12 24 -12 50zM214 464q0 -206 150 -284q46 -24 102 -24q144 0 274 110q50 42 70 156q10 58 16 80q24 82 74 158l54 72q-89 -1 -186 -1q-195 0 -426 3q-30 -6 -64 -56q-64 -98 -64 -214zM976 498q0 -62 18 -124q36 -124 134 -186q54 -34 120 -34 q78 0 194 58q138 74 148 244l2 112q6 108 56 194q-202 -28 -432 -28h-2l-118 -2q-42 0 -50 -6q-10 -10 -24 -38q-46 -94 -46 -190z" />
<glyph unicode="y" horiz-adv-x="1504" d="M-46 692v10q4 28 52 80q122 128 230 128q84 0 98 -108q8 -46 8 -216q166 178 336 268q120 64 220 64q162 0 258 -152q56 -92 56 -200q0 -210 -212 -422q170 0 244 34q52 26 78 48q56 56 94 64q22 0 22 -18q-2 -34 -42 -74q-146 -160 -340 -194q-58 -10 -134 -10l-344 8 q-228 0 -396 -20q-38 -4 -58 -4q-30 0 -30 20q0 16 16 40l28 42l2 2q12 22 20 76q6 44 8 244l2 142q0 192 -78 192q-16 0 -34 -8l-54 -38q-22 -12 -34 -12t-16 14zM278 130q296 22 406 22l122 -2q28 0 54 -2l28 18q56 28 62 32q48 38 72 132q14 52 14 100q0 92 -50 178 q-56 94 -148 124q-34 12 -72 12h-6q-102 0 -214 -74q-136 -90 -184 -210q-14 -36 -32 -172q-10 -76 -32 -118z" />
<glyph unicode="z" horiz-adv-x="1338" d="M-44 856q0 56 60 116q8 6 14 12q44 40 72 40q18 0 18 -16q0 -12 -8 -30q-6 -12 -6 -14q0 -4 6 -22q16 -34 86 -46q94 -16 326 -16q360 0 478 16q90 20 94 22q8 2 32 22q30 22 48 22q20 0 20 -22q0 -30 -68 -98q-20 -18 -22 -22q-24 -44 -24 -186q0 -604 -32 -864 q-62 -508 -288 -734q-66 -66 -102 -66q-18 0 -18 18q0 30 72 106l2 2q42 42 84 176q108 330 108 982q-198 -198 -416 -252q-76 -20 -138 -20q-182 0 -270 160q-48 78 -48 190q0 134 90 280q28 44 98 122q-100 4 -168 16q-72 18 -88 56q-12 26 -12 50zM208 468q0 -90 48 -172 q82 -138 242 -138h18q22 0 44 4q136 18 242 96q94 64 106 200l2 126q8 88 54 176q-154 -28 -448 -28h-122q-50 0 -56 -2q-12 -4 -40 -26q-48 -36 -72 -124q-18 -58 -18 -112z" />
<glyph unicode="{" d="M-1812 1078q0 14 18 36q26 42 72 74q28 18 42 18q10 0 32 -4q164 -30 258 -30h798q200 0 318 32q10 4 16 4q20 0 20 -18q0 -28 -70 -92l-2 -4l-4 -2q-82 -68 -526 -68h-44h-570q-164 0 -324 32q-26 6 -28 8q-6 6 -6 14z" />
<glyph unicode="|" d="M-1120 -578q0 68 104 222l204 328q90 142 150 142q16 0 16 -14q0 -34 -74 -138l-244 -396q-6 -18 -6 -34q0 -36 26 -72q44 -66 118 -66h8q46 0 118 66l2 2q44 40 70 40q20 0 20 -18q0 -30 -48 -78q-154 -164 -286 -164q-72 0 -126 58q-52 52 -52 122z" />
<glyph unicode="}" d="M-796 -578q0 68 104 222l204 328q90 142 150 142q16 0 16 -14q0 -34 -74 -138l-244 -396q-6 -18 -6 -34q0 -36 26 -72q44 -66 118 -66h8q48 0 116 66q46 42 74 42q20 0 20 -18q0 -22 -42 -72l-6 -6q-154 -164 -286 -164q-72 0 -126 58q-52 52 -52 122z" />
<glyph unicode="~" horiz-adv-x="602" d="M-102 -1016q0 32 50 86q220 226 220 1306l2 178v2q0 182 -80 182q-16 0 -32 -8l-68 -46q-10 -4 -18 -4q-20 0 -20 14q0 22 38 70q6 8 10 12q106 120 224 134q22 0 34 -2q80 -16 84 -196v-238q0 -848 -156 -1190q-62 -140 -172 -250q-58 -64 -100 -64q-16 0 -16 14z" />
<glyph unicode="&#xa0;" />
<glyph unicode="&#xa1;" horiz-adv-x="810" d="M-616 10q0 12 14 34q42 72 102 92q14 6 76 8h10q108 4 162 4q94 0 122 28q22 22 102 126q4 6 8 10q156 194 312 194q192 0 306 -182q78 -124 78 -282q0 -238 -210 -422q-126 -106 -248 -106q-154 0 -224 122q-26 48 -26 100q0 112 98 202q52 46 78 46h6q16 0 16 -14 q0 -18 -12 -34l-34 -54q-2 -2 -2 -6q-4 -16 -4 -32q0 -80 82 -136q62 -46 138 -46q68 0 118 46q48 42 68 150q6 42 6 82q0 136 -76 254q-34 54 -82 94q-90 72 -180 72q-34 0 -62 -10q-26 -10 -58 -50q-6 -6 -68 -86q-134 -166 -252 -204q-36 -12 -130 -12l-132 -4l-64 -2 q-26 0 -28 2q-10 4 -10 16z" />
<glyph unicode="&#xa2;" horiz-adv-x="1260" d="M-290 806q0 22 40 74q38 40 74 54q86 10 232 12q200 -8 598 -22q142 -12 240 -144q66 -92 66 -206q0 -112 -48 -204q-88 -174 -254 -262q-104 -56 -206 -56q-50 0 -100 14q-140 38 -204 150q-32 56 -32 116q0 96 94 186q48 48 82 48q16 0 16 -16q0 -10 -10 -32 q-18 -24 -34 -82q0 -76 80 -148q18 -18 38 -30q88 -56 182 -56q120 0 184 64t64 188q0 106 -70 200q-10 14 -22 28q-68 72 -164 90q-30 6 -172 8h-16l-378 16h-4q-188 0 -252 -8q-24 0 -24 18z" />
<glyph unicode="&#xa3;" horiz-adv-x="936" d="M-1066 -886q0 22 2 34q14 58 90 106q24 16 40 16q6 0 10 -2q8 -4 8 -42q0 -34 26 -60q48 -54 124 -54q62 0 116 28q114 68 218 276q58 118 150 406q54 160 54 162l-254 6h-2q-60 0 -90 2q-26 0 -30 2q-10 4 -10 16t12 36q42 72 104 92q18 2 44 2l202 -4q30 0 60 -2h2 q18 0 22 2t10 20q82 162 182 280q224 256 474 256h18q108 -4 154 -118q20 -48 20 -104q0 -178 -204 -352q-166 -126 -484 -136q-46 -2 -116 -2q-6 -26 -28 -84q-118 -356 -170 -448q-116 -228 -292 -370q-138 -114 -266 -114q-136 0 -182 90v2q-14 28 -14 58zM-60 130 q284 0 384 20q136 26 178 82q42 46 42 116q0 128 -86 178q-28 16 -74 16q-292 0 -438 -396q-4 -8 -6 -16z" />
<glyph unicode="&#xa5;" horiz-adv-x="1260" d="M-796 -906q0 84 88 140q28 18 44 18q18 0 18 -24v-26q0 -22 12 -48q50 -92 176 -92h6q172 0 306 246q72 130 160 424l18 62q50 166 66 208l-360 8h-110q-48 0 -52 2q-12 4 -12 16q0 14 16 36q50 96 142 96l70 -2h2q158 0 238 -4l116 -4q12 6 34 58q198 382 490 476 q84 24 144 24q82 0 130 -40q68 -60 68 -178q0 -174 -168 -322q-100 -88 -216 -126q-142 -44 -354 -44h-46q-16 0 -18 -2l-106 -346q-158 -468 -436 -658q-126 -82 -236 -82q-56 0 -110 22q-120 44 -120 162zM264 148q284 0 384 20q64 12 112 34q52 26 68 48q18 20 30 68 q10 36 10 68q0 66 -40 118q-44 56 -120 56q-22 0 -50 -4q-262 -38 -394 -408z" />
<glyph unicode="&#xa6;" horiz-adv-x="2242" d="M8 856q0 58 64 120q6 4 10 8q44 40 72 40q18 0 18 -16q0 -14 -8 -30l-6 -16q0 -76 214 -80l182 -2q150 0 338 8q10 0 34 4q16 0 16 16q0 22 2 34q0 42 8 126q24 260 90 432q60 160 186 284q32 34 72 52q12 6 20 6q10 0 14 -10q2 -2 2 -6q0 -30 -56 -90 q-168 -192 -168 -896l2 -256l66 68q150 142 290 210q116 58 208 58q54 0 102 -20q144 -58 196 -224q20 -64 20 -130q0 -240 -218 -436q-146 -130 -288 -130q-58 0 -104 26q-54 30 -54 90q0 70 48 110q42 34 84 34q24 0 50 -10h4q6 -4 10 -6l56 -42q28 -22 82 -22q70 0 98 40 q20 24 32 60q28 70 28 140q0 78 -34 158q-38 90 -110 140l-2 2q-68 46 -142 46q-104 0 -238 -92q-82 -60 -120 -112q-50 -72 -60 -160q-6 -144 -8 -292q-18 -488 -130 -768q-66 -164 -190 -292q-60 -60 -98 -60q-14 0 -14 24q6 30 60 88l2 2q12 12 18 22q184 272 184 1148 q-202 -202 -426 -254q-70 -18 -128 -18q-116 0 -196 70q-48 38 -74 88q-50 88 -50 188q0 108 66 240q30 58 122 166q-120 10 -156 18q-62 12 -80 56q-12 24 -12 48zM240 470q0 -88 48 -170q30 -54 78 -90q74 -56 172 -56q118 0 244 70q118 66 144 154q14 38 14 156v230 q-138 -32 -394 -32h-126q-46 0 -52 -4q-32 -16 -48 -32q-36 -34 -60 -108q-20 -60 -20 -118z" />
<glyph unicode="&#xa7;" horiz-adv-x="2196" d="M14 362q0 238 226 434q80 74 168 104q62 22 114 22q60 0 108 -28q50 -32 50 -86q0 -78 -62 -122q-38 -24 -74 -24q-32 0 -62 18l-64 46q-48 16 -76 16q-40 0 -74 -22l-26 -26q-56 -86 -56 -190q0 -50 14 -106q44 -160 178 -220q48 -22 110 -22q152 0 290 94q70 44 94 102 q24 54 24 180l-2 212v34q0 214 28 402q24 176 68 300q60 172 190 302q58 58 92 58q20 0 20 -12q0 -30 -64 -100q-4 -6 -6 -8q-16 -18 -42 -72q-48 -106 -76 -264q-36 -216 -36 -428l2 -372q172 190 356 278q110 58 204 58q56 0 106 -20q146 -58 196 -228q20 -66 20 -132 q0 -232 -218 -430q-152 -130 -292 -130q-56 0 -100 26q-54 30 -54 90q0 70 48 110q42 34 84 34q26 0 54 -12h2q2 -2 6 -4l62 -46q52 -18 78 -18q38 0 74 20l2 2q14 8 22 18q58 88 58 194q0 46 -10 94q-30 142 -142 216q-66 42 -136 42q-106 0 -236 -92q-166 -114 -182 -272 l-8 -292q-18 -488 -130 -768q-62 -166 -190 -292q-60 -60 -96 -60q-14 0 -16 14q0 30 58 94q58 66 96 184q110 318 112 946v46q-272 -270 -554 -270q-74 0 -128 24q-148 68 -190 250q-12 52 -12 104z" />
<glyph unicode="&#xa8;" d="M-1000 -692q0 92 70 176q112 142 250 142q84 0 142 -72q46 -54 46 -122q0 -86 -70 -170q-112 -144 -250 -144q-90 0 -148 74q-40 52 -40 116zM-854 -576q0 -76 72 -126q46 -34 98 -34q10 0 20 2l18 6l6 34q0 32 -14 72q-30 74 -112 96q-20 4 -38 4h-14q-30 -8 -30 -10 q-6 2 -4 -22q-2 -12 -2 -22z" />
<glyph unicode="&#xa9;" d="M-730 -692q0 92 70 176q112 142 250 142q84 0 142 -72q46 -54 46 -122q0 -86 -70 -170q-112 -144 -250 -144q-90 0 -148 74q-40 52 -40 116zM-584 -576q0 -76 72 -126q46 -34 98 -34q10 0 20 2l18 6l6 34q0 32 -14 72q-30 74 -112 96q-20 4 -40 4h-12q-30 -8 -30 -10 q-6 2 -4 -22q-2 -12 -2 -22z" />
<glyph unicode="&#xaa;" d="M-1336 1710q0 10 26 36l76 76l36 28q10 0 26 -16l50 -48q34 -32 66 -72v-2q0 -16 -26 -36l-76 -76q-30 -30 -36 -30q-10 0 -26 16l-96 96q-20 20 -20 28zM-1156 1440q0 10 26 36l76 76l36 28q10 0 26 -16l50 -48q34 -32 66 -72v-2q0 -16 -26 -36l-76 -76q-30 -30 -36 -30 q-10 0 -26 16l-96 96q-20 20 -20 28zM-976 1710q0 10 26 36l76 76l36 28q10 0 26 -16l50 -48q34 -32 66 -72v-2q0 -16 -26 -36l-76 -76q-30 -30 -36 -30q-10 0 -26 16l-96 96q-20 20 -20 28z" />
<glyph unicode="&#xab;" horiz-adv-x="720" d="M-88 1098q0 22 48 82q44 60 44 230v142q0 42 74 108q50 46 82 46q16 0 16 -22v8l2 -134v-38q0 -208 -130 -352q-72 -78 -118 -84q-18 0 -18 14zM182 1098q0 22 48 82q44 60 44 230v142q0 42 74 108q50 46 82 46q16 0 16 -22v8l2 -134v-38q0 -208 -130 -352 q-72 -78 -118 -84q-18 0 -18 14z" />
<glyph unicode="&#xac;" horiz-adv-x="900" d="M-72 198q0 18 22 52q82 106 204 136q22 4 50 4q68 0 178 -24q92 -20 144 -20q62 0 88 14l56 40l16 4q16 0 16 -18q0 -22 -28 -56q-112 -130 -258 -130q-64 0 -152 18q-122 26 -174 26q-50 0 -70 -14l-62 -42q-8 -4 -14 -4q-16 0 -16 14zM-72 522q0 18 22 52 q82 106 204 136q22 4 50 4q68 0 178 -24q92 -20 144 -20q62 0 88 14l56 40l16 4q16 0 16 -18q0 -22 -28 -56q-112 -130 -258 -130q-64 0 -152 18q-122 26 -174 26q-50 0 -70 -14l-62 -42q-8 -4 -14 -4q-16 0 -16 14z" />
<glyph unicode="&#xad;" d="M-1062 1710q0 12 26 36l76 76q28 28 38 28q12 -2 24 -16l50 -48l46 -46q18 -18 18 -26v-2q0 -14 -24 -36l-76 -76q-30 -30 -38 -30t-18 8q0 6 -6 8l-96 96q-20 16 -20 28zM-882 1440q0 12 26 36l76 76q28 28 38 28q12 -2 24 -16l50 -48l46 -46q18 -18 18 -26v-2 q0 -14 -24 -36l-76 -76q-30 -30 -38 -30t-18 8q0 6 -6 8l-96 96q-20 16 -20 28zM-702 1710q0 12 26 36l76 76q28 28 38 28q12 -2 24 -16l50 -48l46 -46q18 -18 18 -26v-2q0 -14 -24 -36l-76 -76q-30 -30 -38 -30t-18 8q0 6 -6 8l-96 96q-20 16 -20 28z" />
<glyph unicode="&#xae;" />
<glyph unicode="&#xaf;" d="M-958 1710q0 10 26 36l76 76l36 28q10 0 26 -16l50 -48q34 -32 66 -72v-2q0 -16 -26 -36l-76 -76q-30 -30 -36 -30q-10 0 -26 16l-96 96q-20 20 -20 28zM-778 1440q0 10 26 36l76 76l36 28q10 0 26 -16l50 -48q34 -32 66 -72v-2q0 -16 -26 -36l-76 -76q-30 -30 -36 -30 q-10 0 -26 16l-96 96q-20 20 -20 28zM-598 1710q0 10 26 36l76 76l36 28q10 0 26 -16l50 -48q34 -32 66 -72v-2q0 -16 -26 -36l-76 -76q-30 -30 -36 -30q-10 0 -26 16l-96 96q-20 20 -20 28z" />
<glyph unicode="&#xb0;" d="M-1406 266q0 18 32 58q122 146 302 146q74 0 172 -20q168 -36 230 -36q82 0 122 22l60 46q14 8 26 8q14 0 14 -14q0 -18 -28 -58q-120 -148 -312 -148q-70 0 -156 16q-186 38 -244 38h-32q-56 -4 -86 -24l-66 -48q-8 -4 -14 -4q-8 0 -14 6q-6 4 -6 12z" />
<glyph unicode="&#xb1;" horiz-adv-x="540" d="M0 1328q0 146 130 292q64 74 114 86q20 0 22 -18q-4 -26 -46 -76l-2 -2q-46 -54 -46 -142q0 -104 68 -188l24 -30q2 -2 2 -6v-4q0 -22 -24 -50q-28 -46 -78 -82q-36 -22 -52 -22q-18 0 -46 38q-66 84 -66 204z" />
<glyph unicode="&#xb2;" horiz-adv-x="540" d="M2 1552q0 18 22 50q34 46 80 80q34 24 52 24q16 0 44 -34q70 -90 70 -206q0 -150 -132 -296q-62 -76 -118 -86q-16 0 -16 14q0 26 56 100q38 48 38 124q0 102 -72 196q-24 24 -24 34z" />
<glyph unicode="&#xb3;" horiz-adv-x="1242" d="M-86 -786q0 24 38 70q46 54 194 180l342 284l40 36q236 218 274 436q10 58 10 110q0 170 -104 294q-14 18 -32 34q-114 108 -260 108q-42 0 -94 -12q-84 -22 -112 -52q-50 -50 -50 -130v-6v-16q2 -28 14 -50q4 -10 42 -56q34 -42 34 -82t-34 -80q-46 -52 -104 -52 q-50 0 -86 34q-46 46 -46 122q0 58 28 136q14 46 36 84q98 174 274 268q118 64 236 64q44 0 86 -8q196 -42 290 -226q56 -112 56 -240q0 -250 -202 -512q-134 -170 -424 -408l54 44l-244 -200l94 6q20 2 40 2q50 0 102 -8l226 -34q22 -2 44 -2q96 0 166 36q40 22 86 62 q62 62 98 62q14 0 14 -14q0 -22 -28 -60q-42 -56 -116 -112q-182 -148 -346 -148q-66 0 -240 28q-88 16 -164 16q-84 0 -160 -16l-52 -10q-20 0 -20 18zM168 -614h2h-2z" />
<glyph unicode="&#xb4;" d="M-1390 0q0 10 26 36l76 76l36 28q10 0 26 -16l50 -48q34 -32 66 -72v-2q0 -16 -26 -36l-76 -76q-30 -30 -36 -30q-10 0 -26 16l-96 96q-20 20 -20 28zM-1030 0q0 10 26 36l76 76l36 28q10 0 26 -16l50 -48q34 -32 66 -72v-2q0 -16 -26 -36l-76 -76q-30 -30 -36 -30 q-10 0 -26 16l-96 96q-20 20 -20 28z" />
<glyph unicode="&#xb5;" d="M-688 1710q0 10 26 36l76 76l36 28q10 0 26 -16l50 -48q34 -32 66 -72v-2q0 -16 -26 -36l-76 -76q-30 -30 -36 -30q-10 0 -26 16l-96 96q-20 20 -20 28zM-508 1440q0 10 26 36l76 76l36 28q10 0 26 -16l50 -48q34 -32 66 -72v-2q0 -16 -26 -36l-76 -76q-30 -30 -36 -30 q-10 0 -26 16l-96 96q-20 20 -20 28zM-328 1710q0 10 26 36l76 76l36 28q10 0 26 -16l50 -48q34 -32 66 -72v-2q0 -16 -26 -36l-76 -76q-30 -30 -36 -30q-10 0 -26 16l-96 96q-20 20 -20 28z" />
<glyph unicode="&#xb7;" horiz-adv-x="540" d="M-14 450q0 10 26 36l76 76l36 28q10 0 26 -16l50 -48q34 -32 66 -72v-2q0 -16 -26 -36l-76 -76q-30 -30 -36 -30q-10 0 -26 16l-96 96q-20 20 -20 28z" />
<glyph unicode="&#xb8;" d="M-1406 404q0 26 48 74q54 54 82 54q28 -4 50 -14h2q4 -2 8 -2q56 -18 204 -18h30h340q76 0 140 22q38 14 40 14q16 0 16 -18q0 -12 -16 -32q-38 -64 -98 -92q-104 -42 -298 -42h-312q-168 0 -228 38q-8 6 -8 16z" />
<glyph unicode="&#xb9;" horiz-adv-x="540" d="M2 194v6q0 18 22 50q42 56 86 84q30 22 48 22h2q14 0 40 -34q70 -92 70 -206q0 -150 -132 -296q-74 -86 -120 -86q-16 2 -16 16q0 12 12 34l48 64l2 2q34 50 34 114q0 78 -42 158z" />
<glyph unicode="&#xba;" horiz-adv-x="540" d="M-14 160q0 10 26 36l74 74l38 28q8 0 28 -14l96 -96q18 -18 18 -28q0 -12 -26 -36l-74 -74q-30 -30 -38 -30q-20 0 -78 68l-46 44q-18 18 -18 28z" />
<glyph unicode="&#xbb;" horiz-adv-x="720" d="M-86 -790q0 12 8 30l48 66q34 50 34 216l-2 136q14 56 76 114q44 40 76 46q22 -16 22 -42q4 -96 4 -144q-4 -134 -46 -226q-30 -64 -86 -126q-76 -84 -116 -84h-2q-16 0 -16 14zM184 -790q0 12 8 30l48 66q34 50 34 216l-2 136q14 56 76 114q44 40 76 46q22 -16 22 -42 q4 -96 4 -144q-4 -134 -46 -226q-30 -64 -86 -126q-78 -84 -116 -84h-2q-16 0 -16 14z" />
<glyph unicode="&#xbc;" horiz-adv-x="1260" d="M-14 696q0 34 60 94q118 118 228 118h14q138 -36 334 -36q326 0 402 38l60 40l8 2l10 2q22 0 22 -15t-22 -47q-38 -60 -116 -112q-96 -62 -258 -72q-84 -8 -228 -8q-58 0 -126 2q0 -186 -2 -278q-8 -206 -62 -292q-54 -84 -122 -130q-28 -18 -40 -20q-22 0 -22 16t16 40 l28 42l2 2q12 20 20 78q6 44 8 242l2 146q0 188 -80 188q-20 0 -34 -8q-2 -2 -48 -36q-18 -12 -38 -12q-16 0 -16 16z" />
<glyph unicode="&#xbd;" horiz-adv-x="550" d="M18 -4q0 14 18 48l32 42q26 64 26 368v270q0 448 58 666q64 236 214 386q66 66 102 66q14 0 14 -16q0 -22 -22 -50l-66 -84q-128 -216 -128 -844v-66v-264q-6 -184 -8 -208q-12 -152 -124 -264q-68 -64 -102 -64q-14 0 -14 14z" />
<glyph unicode="&#xbe;" horiz-adv-x="1206" d="M-18 -2q0 26 36 68q50 66 104 86q16 6 62 10q104 14 184 14h110q62 6 124 56q100 94 100 246q0 68 -30 124q-38 76 -112 120q-72 42 -152 42q-142 0 -272 -110q-64 -58 -72 -64q-32 -20 -48 -20t-16 18l4 18q24 52 116 132q6 4 10 8q216 190 416 190q150 0 238 -94 q94 -94 94 -230q0 -202 -246 -452q22 -4 70 -4h16q110 0 186 50l108 90q34 20 50 20h2q12 0 12 -20q-6 -26 -28 -52q-48 -68 -168 -156q-148 -106 -296 -106l-330 20h-44q-100 -4 -174 -14q-32 -4 -40 -4q-14 0 -14 12v2z" />
<glyph unicode="&#xbf;" horiz-adv-x="1260" d="M-18 1104q0 142 96 274q142 198 346 258q70 20 136 20q36 0 72 -6q190 -36 290 -206q64 -112 64 -252q0 -334 -354 -684q-60 -64 -226 -206l-158 -134q32 6 104 6h22q92 0 262 -14q64 -4 106 -4q104 0 184 52l116 94q22 16 36 16q16 0 16 -20q0 -22 -32 -60 q-48 -62 -158 -146q-118 -84 -222 -104q-32 -6 -80 -6l-360 20q-70 0 -220 -20q-22 0 -22 16q0 24 44 80l80 78l402 348l28 28q258 250 258 518q0 146 -80 264q-96 136 -266 166q-22 4 -48 4q-30 0 -66 -6q-90 -16 -136 -52q-20 -16 -36 -56q-20 -48 -20 -88q0 -38 16 -70 l58 -74q14 -28 14 -58q0 -50 -44 -92q-40 -40 -98 -40q-56 0 -94 54l-4 4q-26 36 -26 98z" />
<glyph unicode="&#xc0;" horiz-adv-x="1260" d="M-70 -474q0 18 34 64l56 68q0 2 2 4q134 204 150 832q-8 -338 -8 -342q12 412 18 828q0 178 -2 202q-14 104 -72 104h-2q-16 0 -50 -26q-2 -4 -6 -6q-38 -34 -64 -34h-6q-12 0 -12 16q0 30 56 92q132 132 226 132q22 0 42 -10q64 -26 64 -190q170 170 334 170 q120 0 190 -82q60 -76 60 -176q0 -204 -220 -424q-26 -26 -32 -30q78 -10 140 -58q74 -64 74 -170q0 -92 -42 -182q-90 -208 -380 -398l-230 -144q-74 -52 -122 -100l-100 -112q-54 -44 -80 -44q-18 0 -18 16zM230 -150l326 214q82 56 110 90q62 78 62 178q0 78 -36 130 q-60 82 -164 82q-90 0 -128 -38q-54 -54 -78 -262q-26 -220 -92 -394zM344 554l98 82l166 110q158 122 158 288q0 144 -124 204q-40 18 -84 18q-22 0 -44 -4q-70 -8 -100 -36q-48 -48 -60 -196z" />
<glyph unicode="&#xc1;" horiz-adv-x="540" d="M-12 908q0 156 60 274q50 100 144 194q48 54 88 60q20 0 22 -18q0 -18 -18 -44l-70 -86l-2 -2q-52 -92 -52 -216q0 -98 24 -214q6 -28 80 -332q54 -226 54 -354q0 -276 -206 -470q-56 -52 -90 -56q-18 0 -18 14q0 18 26 58l68 86q48 90 48 230q0 134 -90 480 q-68 248 -68 396z" />
<glyph unicode="&#xc2;" horiz-adv-x="1260" d="M-72 346q0 24 38 68q136 156 342 156q90 0 204 -24q210 -44 282 -46q102 0 158 30l68 54q18 8 30 8q14 0 14 -14q0 -32 -50 -80q-134 -144 -320 -144q-98 0 -232 30q-188 40 -278 40t-148 -32l-62 -50q-20 -10 -32 -10q-14 0 -14 14z" />
<glyph unicode="&#xc3;" horiz-adv-x="540" d="M-14 742q0 10 26 36l74 74l38 28q8 0 28 -14l96 -96q18 -18 18 -28q0 -12 -26 -36l-74 -74q-30 -30 -38 -30q-20 0 -78 68l-46 44q-18 18 -18 28zM4 196v6q0 16 22 48q34 50 84 84q30 22 50 22h2q12 0 38 -34q72 -90 72 -206q0 -146 -132 -296q-38 -46 -80 -70 q-24 -16 -42 -16q-14 2 -14 14q0 26 62 102q32 52 32 116q0 120 -76 204q-18 24 -18 26z" />
<glyph unicode="&#xc4;" />
<glyph unicode="&#xc5;" horiz-adv-x="846" d="M-614 10q0 14 16 42q30 48 74 74q20 14 42 14l104 -4q42 -4 92 -4l558 20h4q82 0 116 22q32 18 32 120v12v10q-12 126 -122 192q-58 34 -122 34q-24 0 -44 -4q-36 -8 -98 -60q-50 -42 -72 -42t-22 20q0 32 64 94q154 142 286 142q130 0 214 -96q68 -82 68 -184 q0 -122 -74 -224q-106 -150 -264 -180l-102 -6l-548 -18q-86 2 -170 6l-26 6q-6 4 -6 14z" />
<glyph unicode="&#xc6;" horiz-adv-x="936" d="M-290 806q0 14 14 40q30 46 76 74q24 16 40 16l80 -4l82 -4l564 20h4q36 6 56 22q32 22 32 104q0 112 -66 186q-70 78 -174 78h-6q-22 0 -40 -4q-38 -8 -98 -60q-50 -46 -78 -46q-16 0 -16 22q0 12 8 28q20 38 54 66q156 142 280 142l78 -10q80 -16 138 -82 q72 -82 72 -186q0 -114 -66 -210q-86 -136 -226 -184q-40 -12 -164 -16q-14 -2 -24 -2q-420 -16 -470 -16q-34 2 -66 2l-52 4q-32 0 -32 20z" />
<glyph unicode="&#xc7;" horiz-adv-x="630" d="M-830 34q0 14 14 40q22 38 70 72q22 18 44 18q16 0 30 -8l632 -256l266 -104q166 -72 226 -130q92 -92 92 -220q0 -108 -72 -226q-80 -132 -202 -206q-108 -66 -206 -66q-150 0 -230 104q-42 56 -42 118q0 108 104 174q24 12 36 12q14 0 14 -20l-4 -46q0 -52 32 -96 q68 -96 206 -96q86 0 144 52q66 60 66 166q0 136 -84 216q-46 44 -176 100q-22 10 -302 122l-382 152q-128 52 -190 80l-56 22q-24 12 -26 14q-4 4 -4 12z" />
<glyph unicode="&#xc8;" d="M-1246 -538q0 10 26 36l76 76l36 28q10 0 26 -16l50 -48q34 -32 66 -72v-2q0 -16 -26 -36l-76 -76q-30 -30 -36 -30q-10 0 -26 16l-96 96q-20 20 -20 28z" />
<glyph unicode="&#xc9;" d="M-972 -538q0 12 26 36l76 76q28 28 38 28q12 -2 24 -16l50 -48l46 -46q18 -18 18 -26v-2q0 -14 -24 -36l-76 -76q-30 -30 -38 -30t-18 8l-6 8l-96 96q-20 16 -20 28z" />
<glyph unicode="&#xca;" d="M-868 -538q0 10 26 36l76 76l36 28q10 0 26 -16l50 -48q34 -32 66 -72v-2q0 -16 -26 -36l-76 -76q-30 -30 -36 -30q-10 0 -26 16l-96 96q-20 20 -20 28z" />
<glyph unicode="&#xcb;" d="M-598 -538q0 10 26 36l76 76l36 28q10 0 26 -16l50 -48q34 -32 66 -72v-2q0 -16 -26 -36l-76 -76q-30 -30 -36 -30q-10 0 -26 16l-96 96q-20 20 -20 28z" />
<glyph unicode="&#xcc;" d="M-1426 -538q0 10 26 36l76 76l36 28q10 0 26 -16l50 -48q34 -32 66 -72v-2q0 -16 -26 -36l-76 -76q-30 -30 -36 -30q-10 0 -26 16l-96 96q-20 20 -20 28zM-1066 -538q0 10 26 36l76 76l36 28q10 0 26 -16l50 -48q34 -32 66 -72v-2q0 -16 -26 -36l-76 -76q-30 -30 -36 -30 q-10 0 -26 16l-96 96q-20 20 -20 28z" />
<glyph unicode="&#xcd;" d="M-1152 -538q0 12 26 36l76 76q26 26 36 28q14 0 26 -16l50 -48l46 -46q18 -18 18 -26v-2q0 -14 -24 -36l-76 -76q-30 -30 -38 -30t-18 8l-102 104q-20 16 -20 28zM-792 -538q0 12 26 36l76 76q28 28 38 28q12 -2 24 -16l50 -48l46 -46q18 -18 18 -26v-2q0 -14 -24 -36 l-76 -76q-30 -30 -38 -30t-18 8l-6 8l-96 96q-20 16 -20 28z" />
<glyph unicode="&#xce;" d="M-1048 -538q0 10 26 36l76 76l36 28q10 0 26 -16l50 -48q34 -32 66 -72v-2q0 -16 -26 -36l-76 -76q-30 -30 -36 -30q-10 0 -26 16l-96 96q-20 20 -20 28zM-688 -538q0 10 26 36l76 76l36 28q10 0 26 -16l50 -48q34 -32 66 -72v-2q0 -16 -26 -36l-76 -76q-30 -30 -36 -30 q-10 0 -26 16l-96 96q-20 20 -20 28z" />
<glyph unicode="&#xcf;" d="M-778 -538q0 10 26 36l76 76l36 28q10 0 26 -16l50 -48q34 -32 66 -72v-2q0 -16 -26 -36l-76 -76q-30 -30 -36 -30q-10 0 -26 16l-96 96q-20 20 -20 28zM-418 -538q0 10 26 36l76 76l36 28q10 0 26 -16l50 -48q34 -32 66 -72v-2q0 -16 -26 -36l-76 -76q-30 -30 -36 -30 q-10 0 -26 16l-96 96q-20 20 -20 28z" />
<glyph unicode="&#xd0;" d="M-1426 -538q0 10 26 36l76 76l36 28q10 0 26 -16l50 -48q34 -32 66 -72v-2q0 -16 -26 -36l-76 -76q-30 -30 -36 -30q-10 0 -26 16l-96 96q-20 20 -20 28zM-1246 -808q0 10 26 36l76 76l36 28q10 0 26 -16l50 -48q34 -32 66 -72v-2q0 -16 -26 -36l-76 -76q-30 -30 -36 -30 q-10 0 -26 16l-96 96q-20 20 -20 28zM-1066 -538q0 10 26 36l76 76l36 28q10 0 26 -16l50 -48q34 -32 66 -72v-2q0 -16 -26 -36l-76 -76q-30 -30 -36 -30q-10 0 -26 16l-96 96q-20 20 -20 28z" />
<glyph unicode="&#xd1;" d="M-1152 -538q0 12 26 36l76 76q26 26 36 28q14 0 26 -16l50 -48l46 -46q18 -18 18 -26v-2q0 -14 -24 -36l-76 -76q-30 -30 -38 -30t-18 8l-102 104q-20 16 -20 28zM-972 -808q0 12 26 36l76 76q28 28 38 28q12 -2 24 -16l50 -48l46 -46q18 -18 18 -26v-2q0 -14 -24 -36 l-76 -76q-30 -30 -38 -30t-18 8l-6 8l-96 96q-20 16 -20 28zM-792 -538q0 12 26 36l76 76q28 28 38 28q12 -2 24 -16l50 -48l46 -46q18 -18 18 -26v-2q0 -14 -24 -36l-76 -76q-30 -30 -38 -30t-18 8l-6 8l-96 96q-20 16 -20 28z" />
<glyph unicode="&#xd2;" d="M-1048 -538q0 10 26 36l76 76l36 28q10 0 26 -16l50 -48q34 -32 66 -72v-2q0 -16 -26 -36l-76 -76q-30 -30 -36 -30q-10 0 -26 16l-96 96q-20 20 -20 28zM-868 -808q0 10 26 36l76 76l36 28q10 0 26 -16l50 -48q34 -32 66 -72v-2q0 -16 -26 -36l-76 -76q-30 -30 -36 -30 q-10 0 -26 16l-96 96q-20 20 -20 28zM-688 -538q0 10 26 36l76 76l36 28q10 0 26 -16l50 -48q34 -32 66 -72v-2q0 -16 -26 -36l-76 -76q-30 -30 -36 -30q-10 0 -26 16l-96 96q-20 20 -20 28z" />
<glyph unicode="&#xd3;" d="M-778 -538q0 10 26 36l76 76l36 28q10 0 26 -16l50 -48q34 -32 66 -72v-2q0 -16 -26 -36l-76 -76q-30 -30 -36 -30q-10 0 -26 16l-96 96q-20 20 -20 28zM-598 -808q0 10 26 36l76 76l36 28q10 0 26 -16l50 -48q34 -32 66 -72v-2q0 -16 -26 -36l-76 -76q-30 -30 -36 -30 q-10 0 -26 16l-96 96q-20 20 -20 28zM-418 -538q0 10 26 36l76 76l36 28q10 0 26 -16l50 -48q34 -32 66 -72v-2q0 -16 -26 -36l-76 -76q-30 -30 -36 -30q-10 0 -26 16l-96 96q-20 20 -20 28z" />
<glyph unicode="&#xd4;" d="M-1336 1440q0 10 26 36l76 76l36 28q10 0 26 -16l50 -48q34 -32 66 -72v-2q0 -16 -26 -36l-76 -76q-30 -30 -36 -30q-10 0 -26 16l-96 96q-20 20 -20 28zM-976 1440q0 10 26 36l76 76l36 28q10 0 26 -16l50 -48q34 -32 66 -72v-2q0 -16 -26 -36l-76 -76q-30 -30 -36 -30 q-10 0 -26 16l-96 96q-20 20 -20 28z" />
<glyph unicode="&#xd5;" d="M-1062 1440q0 12 26 36l76 76q28 28 38 28q12 -2 24 -16l50 -48l46 -46q18 -18 18 -26v-2q0 -14 -24 -36l-76 -76q-30 -30 -38 -30t-18 8q0 6 -6 8l-96 96q-20 16 -20 28zM-702 1440q0 12 26 36l76 76q28 28 38 28q12 -2 24 -16l50 -48l46 -46q18 -18 18 -26v-2 q0 -14 -24 -36l-76 -76q-30 -30 -38 -30t-18 8q0 6 -6 8l-96 96q-20 16 -20 28z" />
<glyph unicode="&#xd6;" d="M-958 1440q0 10 26 36l76 76l36 28q10 0 26 -16l50 -48q34 -32 66 -72v-2q0 -16 -26 -36l-76 -76q-30 -30 -36 -30q-10 0 -26 16l-96 96q-20 20 -20 28zM-598 1440q0 10 26 36l76 76l36 28q10 0 26 -16l50 -48q34 -32 66 -72v-2q0 -16 -26 -36l-76 -76q-30 -30 -36 -30 q-10 0 -26 16l-96 96q-20 20 -20 28z" />
<glyph unicode="&#xd7;" d="M-688 1440q0 10 26 36l76 76l36 28q10 0 26 -16l50 -48q34 -32 66 -72v-2q0 -16 -26 -36l-76 -76q-30 -30 -36 -30q-10 0 -26 16l-96 96q-20 20 -20 28zM-328 1440q0 10 26 36l76 76l36 28q10 0 26 -16l50 -48q34 -32 66 -72v-2q0 -16 -26 -36l-76 -76q-30 -30 -36 -30 q-10 0 -26 16l-96 96q-20 20 -20 28z" />
<glyph unicode="&#xd8;" d="M-1360 1652q0 40 66 96q42 34 64 34q10 0 28 -22l46 -60l158 -210q12 -20 22 -28l184 246q0 2 2 2q40 50 84 68q10 6 18 6q14 0 14 -16q0 -22 -74 -116l-234 -310q-56 -64 -90 -64q-20 0 -32 26l-238 316q-18 18 -18 32z" />
<glyph unicode="&#xd9;" d="M-1086 1650q0 16 16 40q30 46 76 76q26 18 40 18q6 0 8 -2q8 -6 32 -40l104 -138l-6 8l114 -152l196 262q36 38 74 56q12 6 20 6q12 0 12 -14q0 -10 -8 -28q-2 -2 -64 -90l-238 -316q-56 -60 -92 -60q-10 0 -26 24l-198 264l-44 58q-16 22 -16 28z" />
<glyph unicode="&#xda;" d="M-982 1652q0 40 66 96q40 34 70 34q6 -2 22 -22l46 -60l158 -210q12 -20 22 -28l192 256l12 12q54 54 84 54q14 0 14 -16q0 -22 -74 -116l-234 -310q-56 -64 -90 -64q-20 0 -32 26l-238 316q-18 18 -18 32z" />
<glyph unicode="&#xdb;" d="M-712 1652q0 40 66 96q40 34 70 34q6 -2 22 -22l46 -60l158 -210q12 -20 22 -28l192 256l12 12q52 54 84 54q14 0 14 -16q0 -22 -74 -116l-234 -310q-56 -64 -90 -64q-20 0 -32 26l-238 316q-18 18 -18 32z" />
<glyph unicode="&#xdc;" d="M-1360 1292q0 22 74 116l236 316q30 34 64 50q16 10 28 10q8 0 28 -24l194 -262l46 -60q16 -22 16 -28q0 -16 -16 -40q-24 -40 -74 -76q-28 -18 -42 -18q-10 0 -22 18l-26 36l-204 270l-184 -248q0 -2 -2 -2q-40 -50 -82 -68q-14 -6 -22 -6q-12 0 -12 16z" />
<glyph unicode="&#xdd;" d="M-1086 1290q0 10 8 28q4 8 66 90l150 200q52 72 80 106q34 42 72 60q12 10 24 10q6 0 10 -2q36 -40 68 -86l208 -282q2 -4 2 -10q0 -32 -60 -84q-44 -44 -70 -44q-12 0 -30 24l-46 60l-178 240q-4 -6 -30 -38q-54 -68 -156 -210l-2 -2q-10 -10 -18 -20q-48 -54 -86 -54 q-12 0 -12 14z" />
<glyph unicode="&#xde;" d="M-982 1292q0 22 74 116l236 316q32 34 64 50q16 10 28 10q8 0 28 -24l194 -262l46 -60q16 -22 16 -28q0 -16 -16 -40q-24 -40 -74 -76q-26 -18 -42 -18q-10 0 -22 18l-26 36l-204 270l-184 -248q0 -2 -2 -2q-40 -50 -82 -68q-14 -6 -22 -6q-12 0 -12 16z" />
<glyph unicode="&#xdf;" d="M-712 1292q0 22 74 116l236 316q30 34 64 50q16 10 28 10q8 0 28 -24l194 -262l46 -60q16 -22 16 -28q0 -16 -16 -40q-24 -40 -74 -76q-28 -18 -42 -18q-10 0 -22 18l-26 36l-204 270l-184 -248q0 -2 -2 -2q-40 -50 -82 -68q-14 -6 -22 -6q-12 0 -12 16z" />
<glyph unicode="&#xe0;" d="M-1372 1366q0 40 80 102l6 6q4 2 6 4q24 16 38 16q10 0 30 -18l52 -52q6 8 42 44l110 110q10 10 10 14l-80 138q-18 34 -32 34q-4 0 -26 -18q-42 -36 -64 -36q-18 0 -18 12q0 10 10 26q20 38 70 82q86 80 148 80q10 0 20 -2q12 -6 36 -40l260 -452q8 -8 16 -8q14 0 30 16 q42 34 64 34q16 0 16 -14q0 -22 -38 -66q-70 -78 -138 -106q-30 -14 -52 -14q-10 0 -18 4q-22 8 -54 74q-96 160 -114 198l-172 -172q-104 -104 -134 -104q-10 0 -26 20l-46 44q-32 32 -32 44z" />
<glyph unicode="&#xe1;" d="M-1098 1362q0 50 86 112q2 2 6 4q26 16 40 16q10 0 28 -18l52 -52l152 154q10 6 10 12q0 4 -20 40q-40 68 -58 102q-20 28 -32 32q-14 0 -28 -20q-44 -34 -64 -34h-2q-14 0 -14 14q0 40 80 108q88 78 148 78q32 0 54 -42l262 -454q10 -10 18 -10l6 2l22 18q36 36 66 36h4 q8 -4 8 -16q0 -22 -38 -66q-62 -68 -134 -106q-30 -14 -52 -14q-12 0 -22 4q-20 8 -52 70l-116 202l-170 -172q-80 -80 -104 -94l-2 -2q-16 -8 -30 -8q-6 0 -26 20l-46 46q-30 30 -32 38z" />
<glyph unicode="&#xe2;" d="M-994 1366q0 40 80 102q26 26 50 26q10 0 30 -18l52 -52q6 8 42 44l110 110q10 10 10 14l-80 138q-16 34 -32 34q-4 0 -26 -18q-42 -36 -64 -36q-18 0 -18 12q0 10 10 26q20 38 70 82q86 80 148 80q10 0 20 -2q12 -6 36 -40q260 -450 260 -452q8 -8 18 -8q12 0 28 16 q42 34 64 34q16 0 16 -14q0 -22 -38 -66q-70 -78 -138 -106q-30 -14 -52 -14q-10 0 -18 4q-22 8 -54 74q-94 160 -114 198l-172 -172q-104 -104 -134 -104q-10 0 -26 20l-46 44q-32 32 -32 44z" />
<glyph unicode="&#xe3;" d="M-736 1360q0 16 16 40q46 70 104 90q4 2 8 2q14 0 56 -42q12 -18 20 -18q2 0 12 10l26 32l76 92q36 36 36 48l-54 154q-12 38 -26 38q-8 0 -22 -14q-48 -42 -72 -42q-6 0 -10 2q-6 0 -6 12q0 20 34 64q72 84 150 114q28 12 46 12q16 0 26 -8q12 -8 26 -46l36 -100 l122 -340l20 -48q6 -8 14 -8q4 0 8 2l22 18q42 36 62 36q16 0 16 -16q0 -22 -36 -64q-68 -78 -144 -112q-28 -12 -48 -12q-14 0 -24 6q-18 10 -38 78l-74 200l-190 -226q-56 -56 -86 -58q-10 0 -30 20l-50 50q-26 26 -26 34z" />
<glyph unicode="&#xe4;" d="M-1622 -836q0 76 62 166q66 88 200 166q118 68 304 144l122 50q56 24 68 24q20 0 24 -20q0 -26 -48 -50l-74 -44l-264 -138q-222 -128 -222 -224q0 -14 4 -28q22 -76 124 -76q24 0 46 8q2 0 32 24q38 28 58 28q14 0 14 -16q0 -24 -36 -60q-80 -96 -194 -120 q-28 -6 -52 -6q-52 0 -92 28h-2q-64 46 -74 134v10z" />
<glyph unicode="&#xe5;" d="M-1250 -860q0 64 40 136q46 94 166 184q114 90 358 226q50 30 60 30q22 0 22 -24q0 -8 -4 -16l-30 -30l-288 -218q-54 -46 -96 -88q-62 -62 -62 -118q0 -54 50 -82q32 -16 64 -16l96 36q8 4 14 10q22 26 48 26h2q10 0 10 -14q0 -24 -32 -70q-76 -104 -186 -134 q-34 -10 -62 -10q-72 0 -122 54q-48 50 -48 118z" />
<glyph unicode="&#xe6;" d="M-1154 -820q0 182 284 340q120 64 268 122l122 50l60 22h10q22 0 22 -22q0 -10 -8 -20q-4 -4 -36 -26l-74 -42l-270 -142q-66 -40 -118 -80q-88 -72 -88 -134q0 -14 4 -26q24 -76 124 -76q24 0 46 8l34 26q34 24 54 24q16 0 16 -14q0 -24 -40 -64q-116 -120 -236 -120 q-72 0 -124 50q-50 50 -50 124z" />
<glyph unicode="&#xe7;" d="M-836 -848q0 60 38 136q52 100 170 186q74 56 308 190q22 14 40 24l46 24q4 2 8 2h6q22 0 22 -22q0 -16 -36 -46l-282 -212q-156 -128 -156 -200q0 -64 68 -86q26 -10 52 -10q56 0 106 44q26 26 46 26q14 0 14 -14q0 -34 -32 -70q-72 -98 -182 -132q-36 -12 -70 -12 q-64 0 -112 48q-54 52 -54 124z" />
<glyph unicode="&#xe8;" d="M-1502 1564q0 72 72 152q56 62 92 62q16 0 16 -12l-32 -66q-2 -12 -2 -22q0 -52 58 -94q32 -22 94 -28q88 -12 366 -12q254 0 334 -34q28 -14 56 -66q0 -28 -30 -66q-28 -40 -92 -84l-160 -132q-32 -20 -40 -20q-18 0 -22 18q0 18 32 52l140 140q0 28 -230 44l-390 6 q-52 2 -96 8q-108 14 -152 92q-14 30 -14 62z" />
<glyph unicode="&#xe9;" d="M-1102 1564q0 68 70 150q58 64 92 64q16 0 16 -14q0 -6 -2 -14l-28 -50q-2 -10 -2 -22q0 -46 52 -88q46 -34 190 -42l316 -10q120 -12 158 -32q48 -26 48 -62q0 -28 -30 -66q-26 -38 -58 -62l-34 -22l-162 -132q-28 -18 -36 -20q-22 0 -24 20q0 6 2 10q0 4 20 28l138 138 q12 10 12 14t-20 14q-38 16 -148 26l-322 10q-132 8 -180 40q-36 20 -58 72q-10 24 -10 50z" />
<glyph unicode="&#xea;" d="M-836 1568q0 70 72 148q56 62 90 62q16 0 16 -18v-8q-16 -22 -32 -72q0 -60 68 -102q34 -18 114 -26l246 -18q6 -2 12 -2q146 -22 146 -90q0 -50 -80 -118l-44 -30l-106 -90q-20 -14 -56 -42q-32 -20 -40 -20q-20 0 -20 16q0 14 12 30q22 28 138 140l14 14q8 8 8 12 q0 20 -128 36l-232 16h-4q-6 2 -12 2q-148 20 -174 114q-8 22 -8 46z" />
<glyph unicode="&#xeb;" d="M-692 1566q0 72 72 150q56 62 90 62q16 0 16 -18v-8l-28 -50q-4 -12 -4 -24q0 -42 44 -80q26 -26 110 -42q18 -4 162 -18q146 -8 186 -64q10 -14 10 -30q0 -28 -30 -66q-28 -40 -92 -84q-106 -88 -108 -90l-56 -44q-22 -18 -34 -18q-24 0 -24 20l4 14q2 8 8 14 q6 8 152 152q8 8 8 12q0 12 -108 34l-212 22q-132 22 -158 110q-8 24 -8 46z" />
<glyph unicode="&#xec;" d="M-2730 1970q0 14 18 36q26 42 72 74q24 16 38 18q10 2 72 2h2610l16 -8h2q2 -4 2 -14q-4 -14 -22 -42q-48 -66 -96 -80q-12 -4 -54 -4h-2608q-40 0 -44 4q-6 6 -6 14z" />
<glyph unicode="&#xed;" d="M-2134 -948q0 14 18 42q28 44 74 72q22 18 40 18q2 0 32 -6q140 -28 242 -28h820q146 0 270 22q54 12 58 12q14 0 14 -14v-6q0 -30 -72 -96q-44 -38 -194 -56q-130 -10 -388 -10h-552q-180 0 -330 30q-22 4 -28 8q-4 4 -4 12z" />
<glyph unicode="&#xee;" d="M-1650 1970q0 14 18 36q26 42 72 74q24 16 38 18q8 2 52 2h1844q34 0 34 -16q-12 -36 -44 -72q-38 -42 -76 -56q-10 -4 -42 -4h-1858q-26 0 -32 4q-6 6 -6 14z" />
<glyph unicode="&#xef;" d="M-1512 -946q0 14 16 38q32 48 76 74q22 18 40 18l22 -6q72 -24 148 -28h476q74 0 150 24q22 8 32 8q14 0 14 -12q0 -20 -30 -58q-32 -42 -74 -66q-82 -44 -316 -44h-304q-114 0 -180 16q-58 18 -62 20q-8 6 -8 16z" />
<glyph unicode="&#xf0;" horiz-adv-x="1134" d="M-12 598q0 44 108 140q216 180 456 180q222 0 328 -188q56 -100 56 -208q0 -194 -154 -356q-174 -184 -376 -184q-112 0 -192 54q-62 44 -62 104v14q0 62 68 100q36 22 70 22t66 -22l76 -64q8 -8 18 -12q44 -24 102 -24q34 0 72 8q76 12 100 54q44 78 44 162 q0 72 -34 150q-58 130 -178 186q-72 34 -155 34t-175 -34q-56 -20 -96 -48l-86 -70q-22 -12 -38 -12q-18 0 -18 14z" />
<glyph unicode="&#xf1;" horiz-adv-x="1170" d="M-8 906q0 58 74 132q40 36 68 38q24 0 24 -18q0 -10 -10 -28q-6 -10 -6 -12q0 -52 78 -70q68 -14 274 -14q338 0 406 38l56 38q10 4 16 4q20 0 22 -22q-8 -54 -98 -120q-124 -88 -430 -88h-108q-44 0 -52 -8h-2q0 -2 -6 -8q-84 -128 -84 -274q0 -160 120 -260 q96 -78 216 -78h18q128 0 230 96q88 84 120 84q16 0 16 -18q0 -10 -10 -26q-24 -52 -118 -132q-10 -8 -16 -14q-200 -164 -378 -164q-52 0 -104 14q-256 80 -268 342v22q0 94 40 200q50 134 136 228q-84 0 -140 18q-38 6 -58 30q-26 32 -26 70z" />
<glyph unicode="&#xf2;" horiz-adv-x="1890" d="M-8 910q0 60 68 122q44 44 78 44q20 0 20 -14l-16 -48q0 -32 38 -50q90 -30 446 -30h488l218 6h2q60 0 184 12q76 10 96 18l60 38q8 4 18 6q20 0 20 -20q0 -26 -40 -72q-104 -116 -354 -128q-16 -2 -32 -2q-46 -2 -108 -2l-108 -4q-32 0 -36 -2q-6 -2 -22 -24 q-80 -120 -80 -264q0 -92 38 -160q76 -136 232 -172q38 -8 76 -8q58 0 116 20q60 20 158 108q52 52 88 52q12 0 12 -16q0 -24 -36 -70q-52 -62 -134 -124q-186 -144 -352 -144q-190 0 -300 148l-30 44q-18 -18 -76 -64q-162 -126 -318 -126q-62 0 -124 20q-242 94 -242 342 t180 448l-142 14q-86 18 -86 102zM212 502q0 -92 36 -164q58 -114 192 -162q60 -22 116 -22q52 0 100 18q40 14 116 74q-12 52 -12 80q-2 18 -2 36q0 142 88 298l88 126h-460q-78 0 -116 2h-30q-22 0 -34 -24l-2 -2q-2 -6 -4 -8q-76 -114 -76 -252z" />
<glyph unicode="&#xf3;" horiz-adv-x="2304" d="M-8 912q0 62 74 126q44 38 72 38h2q12 0 12 -14l-10 -46q0 -46 60 -56q140 -26 564 -26q620 0 884 6q62 0 194 8q126 8 168 18q6 2 62 36q20 12 34 12q18 0 18 -18q0 -20 -28 -60q-76 -94 -174 -114q-136 -32 -416 -32l-40 -4h-2q-20 -14 -46 -66q-56 -104 -56 -228v-16 q0 -42 18 -96q54 -144 202 -200q64 -24 128 -24q70 0 138 30q44 22 96 62l62 58q44 30 60 30t16 -20q0 -50 -172 -194q-182 -138 -350 -138q-160 0 -276 116q-12 -12 -80 -54q-114 -64 -220 -64q-72 0 -140 28q-68 24 -122 78l-10 8l-2 2q-6 0 -32 -20q-140 -96 -272 -96 q-172 0 -286 132q-84 100 -84 238q0 150 90 312q18 34 94 132q-72 0 -148 16q-56 10 -74 60q-8 20 -8 40zM212 494q0 -46 10 -84q36 -144 176 -216q78 -38 154 -38q36 0 106 18q-32 72 -36 100q-8 42 -8 86q0 160 114 342q8 14 18 28q40 52 42 54q-270 0 -346 4l-90 2h-4 q-32 0 -34 -2q-56 -56 -86 -172q-16 -66 -16 -122zM786 494q0 -60 20 -114q50 -136 188 -196q64 -28 132 -28h18q36 0 90 18q-30 46 -46 186q0 144 94 308q18 30 86 120q-8 -2 -50 -2l-300 -2h-102q-30 0 -36 -6q-38 -40 -66 -128q-28 -82 -28 -156z" />
<glyph unicode="&#xf4;" horiz-adv-x="1242" d="M76 -270v932q0 470 52 690q70 312 262 462q40 28 58 28q16 0 16 -18q0 -22 -28 -56l-66 -82q-2 -6 -6 -12q-64 -120 -96 -360q-20 -170 -20 -562v-898q0 -116 4 -148q20 -180 172 -294q118 -90 276 -90q112 0 204 52q28 14 36 24q12 14 18 36q20 46 20 80q0 32 -16 56 q-6 10 -48 46l-14 14q-28 32 -28 76q0 74 70 116q30 18 64 18h6q74 0 114 -82q24 -46 24 -99t-24 -113q-36 -96 -116 -182q-140 -150 -324 -196q-74 -18 -144 -18q-186 0 -322 126q-94 88 -128 216q-16 66 -16 206v32z" />
<glyph unicode="&#xf5;" horiz-adv-x="1710" d="M76 -214v824q0 472 32 658q52 292 202 468q58 66 96 88q22 18 42 18q16 0 16 -14q0 -28 -70 -110q-6 -6 -38 -60q-38 -78 -70 -230q-32 -162 -34 -316q0 -82 -4 -122v-34q0 -12 8 -12q6 -2 10 -4l236 -6h380q354 6 456 18h4q18 4 36 6q50 10 56 14q4 2 30 22q34 20 52 20 t18 -18q0 -22 -34 -62q-74 -92 -192 -118q-82 -16 -322 -26q-30 -2 -88 -2q-38 0 -44 -2q-12 -4 -22 -26q-80 -106 -80 -266q0 -144 104 -242q100 -94 232 -94q124 0 218 70l100 86q32 24 52 24q14 0 14 -18q0 -36 -72 -108q-114 -114 -232 -172q-64 -34 -96 -38 q18 -76 18 -152q0 -184 -108 -362q-94 -154 -246 -250q-140 -90 -272 -90q-120 0 -208 66q-148 106 -176 326q-2 10 -2 20q-2 26 -2 118v108zM248 -172q0 -182 42 -282q62 -138 174 -194q66 -30 138 -30q60 0 122 20q54 18 86 48q36 34 68 114q38 98 38 204q0 144 -52 254 q-14 32 -14 34l-32 12q-154 56 -214 204q-28 68 -28 146q0 124 72 270q32 64 72 116l32 42q-408 0 -504 2v-960z" />
<glyph unicode="&#xf6;" horiz-adv-x="2286" d="M76 -290v968q0 406 38 616q50 280 202 450q92 96 134 96q16 0 16 -16q0 -18 -24 -46l-46 -56l-2 -2l-4 -6q-142 -200 -142 -768q142 -6 144 -6q160 -6 318 -6q528 0 634 2l264 6h66q70 0 214 12q106 8 122 18l38 26q24 18 40 18q20 0 20 -20q0 -34 -50 -84 q-60 -58 -124 -82q-34 -12 -104 -20l-288 -18q-24 -2 -74 -2q-32 0 -36 -2l-20 -20q-84 -120 -84 -266v-14q0 -44 12 -84q38 -142 178 -210q78 -38 156 -38q114 0 222 82l86 76q28 22 50 22q16 0 16 -18q0 -48 -150 -176q-194 -158 -372 -158q-100 0 -180 44q-64 34 -94 74 l-58 -40q-76 -50 -140 -64q20 -82 20 -172q0 -242 -172 -442q-70 -82 -162 -142q-140 -94 -280 -94q-110 0 -192 56q-106 68 -154 202q-38 112 -38 304zM248 -172q0 -182 42 -282q72 -162 216 -208q46 -14 94 -14q54 0 110 16q64 18 96 48q34 32 58 98q40 98 40 202 q0 130 -74 288q-10 24 -18 32q-2 2 -30 14q-206 114 -206 340q0 174 144 382l32 42q-400 2 -504 6v-964zM750 506q0 -58 22 -126q50 -136 184 -196q66 -28 132 -28q54 0 110 18q-38 86 -40 128q-4 30 -4 58q0 148 92 308q18 30 86 120q-120 -2 -360 -2h-90q-38 0 -54 -26 q-78 -138 -78 -254z" />
<glyph unicode="&#xf7;" horiz-adv-x="1152" d="M-176 -484q0 116 108 240q66 78 118 100l12 6h10q16 0 16 -14q0 -10 -10 -30q-6 -12 -52 -68l-14 -18q-18 -34 -18 -72q0 -54 32 -118q72 -150 270 -202q68 -18 136 -18q202 0 258 130q34 84 34 252v956q0 404 32 606q48 284 194 460q96 116 144 116q18 0 18 -16 q0 -32 -60 -98l-2 -2q-68 -76 -104 -242q-48 -210 -48 -640v182v-1178q0 -152 -16 -214q-40 -144 -158 -272q-200 -212 -450 -212q-152 0 -280 82q-54 34 -92 80q-78 94 -78 204z" />
<glyph unicode="&#xf8;" horiz-adv-x="2178" d="M-176 -480q0 40 12 78q40 120 160 222q46 40 72 40q18 0 18 -14q0 -26 -52 -88q-18 -22 -24 -30q-16 -34 -16 -70q0 -60 40 -132q4 -8 10 -16q96 -152 316 -182q38 -6 70 -6q36 0 64 6q108 16 158 66q72 72 72 296v990q0 470 48 662q52 248 202 412q82 86 126 86 q12 0 12 -20q-6 -22 -26 -48l-52 -64q-138 -194 -138 -820v584v46l2 -932q168 186 352 276q116 56 212 56q82 0 148 -42q94 -56 132 -162q28 -70 28 -144q0 -156 -126 -326q-38 -52 -84 -98h124q102 10 182 68l74 62q6 2 12 6q18 8 30 8q20 0 20 -18q0 -20 -38 -68 q-152 -172 -368 -204q-30 -4 -132 -4l-328 8q-60 0 -98 -2l-140 -8v-174q0 -110 -14 -178q-28 -114 -114 -224q-142 -186 -334 -246q-78 -24 -156 -24q-112 0 -224 50q-50 22 -94 56q-138 108 -138 266zM898 130q174 24 354 24q72 0 110 -2q22 0 34 -2q24 0 28 2l30 18 q52 24 64 36q34 34 58 108q20 60 20 116q0 88 -46 170q-44 82 -126 122q-52 26 -110 26q-124 0 -268 -118q-98 -78 -130 -172q-18 -50 -18 -164v-164z" />
<glyph unicode="&#xf9;" horiz-adv-x="2826" d="M-176 -480q0 40 12 78q40 120 160 222q46 40 72 40q18 0 18 -14q0 -26 -52 -88q-18 -22 -24 -30q-16 -34 -16 -70q0 -60 40 -132q4 -8 10 -16q96 -152 316 -182q38 -6 70 -6q36 0 64 6q108 16 158 66q72 72 72 316v976q0 466 48 658q56 250 202 412q86 86 122 86 q16 0 16 -22q-6 -30 -60 -90l-6 -6q-136 -180 -148 -710v-412q294 316 496 316q110 0 174 -74q86 -78 110 -226l34 38q32 36 84 82q202 182 356 182q94 0 170 -70q106 -106 106 -268q0 -140 -94 -292q-48 -78 -116 -146q98 0 116 2q130 14 208 90q56 56 88 56q18 0 18 -18 q0 -34 -62 -96q-140 -136 -310 -172q-50 -10 -210 -10l-348 6q-128 2 -240 2q-300 0 -484 -12q-64 -4 -96 -4v-168q0 -110 -14 -178q-28 -114 -114 -224q-140 -184 -334 -246q-80 -24 -158 -24q-116 0 -228 52q-48 22 -88 54q-138 108 -138 266zM898 128l142 10l312 12 q44 0 50 4q28 14 40 26q14 14 24 38q46 90 46 184q0 122 -62 220q-6 8 -12 18q-76 106 -186 106q-114 0 -242 -128q-74 -74 -102 -178q-10 -38 -10 -140v-172zM1518 154l420 -6q68 0 104 -2h42q8 4 28 18q42 20 46 24q16 10 30 36q64 98 64 210q0 118 -56 202 q-70 108 -188 108q-78 0 -158 -58q-102 -78 -162 -216l-64 -160q-20 -44 -66 -108q-34 -40 -40 -48z" />
<glyph unicode="&#xfa;" horiz-adv-x="1278" d="M-32 334q0 26 4 54q16 80 120 204q114 126 158 126q12 0 16 -14v-10q-2 -12 -20 -40q-8 -10 -62 -68q-42 -48 -42 -104q0 -30 8 -66q38 -156 210 -234q102 -48 204 -48l144 24q28 8 54 22q46 24 60 48q46 72 46 162q0 114 -74 254q-64 122 -250 352q-196 246 -250 368 q-38 82 -38 152q0 120 106 236q40 48 78 70q20 16 38 18h8q16 0 16 -13t-16 -39l-46 -68q-10 -22 -10 -56q0 -128 142 -320q26 -38 224 -292q28 -34 50 -64q194 -268 194 -456q0 -84 -34 -162q-28 -72 -80 -136q-208 -270 -506 -270q-158 0 -286 86q-96 64 -140 162 q-26 58 -26 122z" />
<glyph unicode="&#xfb;" horiz-adv-x="1278" d="M-32 336q0 118 132 264q106 112 146 116q20 0 20 -16q0 -36 -66 -102q-2 -2 -4 -2q-24 -26 -34 -40q-22 -34 -22 -78q0 -46 24 -106q62 -148 246 -210q78 -26 156 -26q40 0 78 6q142 26 182 94q42 68 42 154q0 116 -80 264q-66 122 -256 358l-4 6q-272 334 -272 502 q0 114 106 234q60 60 78 70q20 14 38 16h8q16 0 16 -14q0 -12 -14 -36l-48 -64q-12 -22 -12 -62q0 -112 116 -278q44 -66 226 -298q118 -150 178 -254q90 -162 90 -304q0 -76 -26 -146q-48 -126 -150 -222q-26 -30 -42 -38l70 -98q150 -220 150 -390q0 -166 -132 -324 q-206 -248 -482 -248q-178 0 -314 100q-144 104 -144 270q0 114 98 228l86 90q60 66 100 66q14 0 14 -18t-16 -42q-8 -14 -64 -72h-2q-20 -22 -30 -40q-12 -26 -12 -70v-22q18 -160 182 -254q116 -64 238 -64q114 0 200 44q32 16 48 32q32 34 48 106q8 44 8 76 q0 156 -154 380l26 -38l-90 130l-26 30q-2 2 -6 2q-10 0 -24 -10q-84 -24 -165 -24t-159 24q-178 48 -256 186q-44 88 -44 162z" />
<glyph unicode="&#xfc;" d="M-1344 -1016q0 14 12 40q4 6 58 70q92 118 148 450q12 76 16 116q6 52 8 62q24 62 98 114q30 26 56 26q14 0 14 -26q0 -42 -28 -212q-66 -348 -214 -530q-102 -124 -154 -124q-14 0 -14 14z" />
<glyph unicode="&#xfd;" d="M-1072 -1016q0 12 14 38q6 10 56 70q58 72 96 210q48 166 70 360q6 50 8 58q20 62 100 118q38 24 54 24h2q14 0 14 -26q0 -38 -30 -212q-60 -340 -214 -528q-102 -126 -154 -126q-16 0 -16 14z" />
<glyph unicode="&#xfe;" d="M-968 -1016q0 14 14 40q4 6 58 70q92 118 148 450q12 76 16 116q6 52 8 62q24 62 98 114q30 26 56 26q14 0 14 -26q0 -42 -28 -212q-66 -348 -214 -530q-58 -70 -102 -100q-32 -24 -52 -24q-16 0 -16 14z" />
<glyph unicode="&#xff;" d="M-696 -1016q0 14 12 40q4 6 58 70q92 118 148 450q12 76 16 116q6 52 8 62q24 62 98 114q30 26 56 26q14 0 14 -26q0 -42 -28 -212q-66 -348 -214 -530q-58 -70 -102 -100q-32 -24 -52 -24q-14 0 -14 14z" />
<glyph unicode="&#x152;" horiz-adv-x="720" d="M-10 382q0 200 64 400q108 330 362 584q70 70 102 70q18 0 18 -20q0 -18 -26 -54l-80 -88q-36 -40 -92 -124q-174 -282 -174 -622q0 -300 128 -556q66 -132 148 -234q34 -44 62 -72q32 -32 34 -36t2 -10q0 -16 -22 -48q-32 -48 -76 -80q-36 -28 -56 -28q-16 0 -36 24 q-202 216 -284 464q-74 214 -74 430z" />
<glyph unicode="&#x153;" horiz-adv-x="720" d="M-88 -522q0 18 30 60l84 94q66 78 114 168q146 262 146 564q0 314 -138 588q-62 120 -144 218q-42 52 -58 66l-30 36q-2 4 -2 10q0 18 20 46q34 48 82 82q34 26 50 26q14 0 34 -20q360 -392 360 -884q0 -176 -50 -358q-96 -360 -380 -644q-60 -66 -100 -66q-18 0 -18 14z " />
<glyph unicode="&#x178;" d="M-674 -762q0 26 18 52q20 28 98 114q98 116 172 192q22 20 62 64q28 28 50 32q48 0 48 -32q0 -22 -30 -66q-116 -166 -246 -318l-56 -68q-30 -28 -60 -30q-56 0 -56 60z" />
<glyph unicode="&#x2c6;" horiz-adv-x="540" d="M-14 24q0 10 26 36l74 74l38 28q8 0 28 -14l96 -96q18 -18 18 -28q0 -12 -26 -36l-74 -74q-30 -30 -38 -30q-20 0 -78 68l-46 44q-18 18 -18 28zM-14 450q0 10 26 36l76 76l36 28q10 0 26 -16l50 -48q34 -32 66 -72v-2q0 -16 -26 -36l-76 -76q-30 -30 -36 -30 q-10 0 -26 16l-96 96q-20 20 -20 28zM-14 876q0 12 26 36l74 74q28 28 36 28h4q12 0 26 -14q34 -34 52 -50l44 -46q18 -18 18 -26q0 -14 -26 -36l-74 -74q-28 -28 -36 -28h-4q-12 0 -24 12l-98 98q-18 14 -18 26z" />
<glyph unicode="&#x2dc;" d="M-1378 -690q0 90 70 174q112 142 250 142q84 0 142 -72q46 -54 46 -122q0 -86 -70 -170q-112 -144 -250 -144q-88 0 -146 72q-42 52 -42 120zM-1232 -576q0 -76 72 -126q46 -34 98 -34q10 0 20 2l18 6l6 34q0 32 -14 72q-30 74 -112 96q-20 4 -40 4h-12q-30 -8 -30 -10 h-2q-2 -6 -2 -22q-2 -12 -2 -22z" />
<glyph unicode="&#x2000;" horiz-adv-x="1050" />
<glyph unicode="&#x2001;" horiz-adv-x="2100" />
<glyph unicode="&#x2002;" horiz-adv-x="1050" />
<glyph unicode="&#x2003;" horiz-adv-x="2100" />
<glyph unicode="&#x2004;" horiz-adv-x="700" />
<glyph unicode="&#x2005;" horiz-adv-x="525" />
<glyph unicode="&#x2006;" horiz-adv-x="350" />
<glyph unicode="&#x2007;" horiz-adv-x="350" />
<glyph unicode="&#x2008;" horiz-adv-x="262" />
<glyph unicode="&#x2009;" horiz-adv-x="420" />
<glyph unicode="&#x200a;" horiz-adv-x="116" />
<glyph unicode="&#x2010;" horiz-adv-x="540" d="M-14 160q0 10 26 36l74 74l38 28q8 0 28 -14l96 -96q18 -18 18 -28q0 -12 -26 -36l-74 -74q-30 -30 -38 -30q-20 0 -78 68l-46 44q-18 18 -18 28zM-14 742q0 12 26 36l74 74q28 28 36 28h4q12 0 26 -14q34 -34 52 -50l44 -46q18 -18 18 -26q0 -14 -26 -36l-74 -74 q-28 -28 -36 -28h-4q-12 0 -24 12l-98 98q-18 14 -18 26z" />
<glyph unicode="&#x2011;" horiz-adv-x="540" d="M-14 160q0 10 26 36l74 74l38 28q8 0 28 -14l96 -96q18 -18 18 -28q0 -12 -26 -36l-74 -74q-30 -30 -38 -30q-20 0 -78 68l-46 44q-18 18 -18 28zM-14 742q0 12 26 36l74 74q28 28 36 28h4q12 0 26 -14q34 -34 52 -50l44 -46q18 -18 18 -26q0 -14 -26 -36l-74 -74 q-28 -28 -36 -28h-4q-12 0 -24 12l-98 98q-18 14 -18 26z" />
<glyph unicode="&#x2012;" horiz-adv-x="540" d="M-14 160q0 10 26 36l74 74l38 28q8 0 28 -14l96 -96q18 -18 18 -28q0 -12 -26 -36l-74 -74q-30 -30 -38 -30q-20 0 -78 68l-46 44q-18 18 -18 28zM-14 742q0 12 26 36l74 74q28 28 36 28h4q12 0 26 -14q34 -34 52 -50l44 -46q18 -18 18 -26q0 -14 -26 -36l-74 -74 q-28 -28 -36 -28h-4q-12 0 -24 12l-98 98q-18 14 -18 26z" />
<glyph unicode="&#x2013;" horiz-adv-x="2070" d="M22 478q0 414 330 764q378 398 1042 538q298 62 580 62q38 0 38 -16q0 -10 -8 -28q-8 -16 -56 -72q-4 -6 -8 -10q-68 -88 -114 -332q-16 -96 -36 -436q-2 -10 -2 -20q-18 -358 -18 -470v-20q0 -122 28 -262q4 -16 4 -30q0 -32 -20 -60q-64 -86 -128 -104q-20 0 -26 28 l-26 172l-4 72q-8 -10 -40 -40q-88 -88 -196 -142q-164 -92 -298 -92q-130 0 -212 72q-32 26 -52 54q-146 -124 -388 -124q-180 0 -282 138q-108 140 -108 358zM196 630q0 -98 16 -164q50 -204 196 -280q70 -32 152 -32q20 0 40 2q120 14 154 28q-38 86 -38 176 q0 140 96 286q72 108 180 188q118 84 230 84q82 0 122 -34q40 -32 40 -80q0 -22 -8 -48q-28 -76 -110 -94q-10 -2 -18 -2q-36 0 -66 22l-42 34q-48 26 -92 26q-52 0 -88 -30q-22 -18 -40 -66q-30 -78 -30 -152q0 -92 46 -180q50 -88 144 -136q48 -24 114 -24q130 0 262 78 q68 40 100 88q46 70 46 222l14 256q20 360 46 500q34 178 106 308l38 62l-90 -4q-90 -2 -200 -16q-478 -54 -820 -240q-246 -132 -362 -310q-138 -212 -138 -468z" />
<glyph unicode="&#x2014;" horiz-adv-x="1152" d="M-50 606q0 44 120 150q162 144 306 144q52 0 196 -24q64 -10 108 -10h120q28 2 50 10l44 30q22 14 36 14q16 0 16 -18q0 -10 -8 -24l-46 -68v-2q-18 -66 -18 -198v-26q0 -602 -40 -876q-62 -448 -276 -668q-72 -66 -100 -70q-22 0 -22 16q0 20 34 66l56 70q52 84 90 234 q84 322 84 848v274q0 156 30 228q-60 -14 -138 -14h-34q-74 0 -132 8l-154 26q-18 2 -34 2q-34 0 -62 -8q-58 -16 -128 -84q-52 -46 -84 -46q-12 0 -14 16z" />
<glyph unicode="&#x2018;" d="M-1666 -718q0 130 158 228q60 38 104 38q18 0 18 -14v-2q0 -14 -50 -52q-54 -40 -54 -110l8 -50q20 -58 86 -60q66 0 180 90q62 48 238 218q70 70 122 112q42 36 56 36q20 0 20 -24q0 -8 -8 -24q-26 -34 -130 -152q-148 -170 -256 -264q-162 -138 -308 -138 q-106 0 -158 80q-26 40 -26 88z" />
<glyph unicode="&#x2019;" d="M-1336 -770q0 118 122 222q60 54 98 54q14 0 14 -14t-44 -64l-2 -2q-30 -36 -30 -86q0 -36 18 -72q24 -46 72 -46h4q68 0 166 104q52 54 194 248l82 106l30 30q10 6 20 6q18 0 18 -24q0 -12 -4 -22q-12 -22 -102 -170q-138 -238 -240 -330q-124 -110 -242 -110 q-100 0 -150 82q-24 40 -24 88z" />
<glyph unicode="&#x201a;" d="M-1482 62q0 28 64 86h2q80 80 292 268l62 52q44 38 80 38q34 0 48 -34q4 -8 4 -18q0 -40 -54 -84l-6 -6q-244 -204 -318 -258l-80 -60q-36 -24 -56 -24q-38 2 -38 40zM-1230 -100q0 28 64 86h2q80 80 292 268l62 52q44 38 80 38q34 0 48 -34q4 -8 4 -18q0 -40 -54 -84 l-6 -6q-244 -204 -318 -258l-80 -60q-36 -24 -56 -24q-38 2 -38 40z" />
<glyph unicode="&#x201c;" d="M-1198 -732q0 136 160 232q62 38 100 38q20 0 20 -16v-2q0 -16 -52 -52l-2 -2q-50 -34 -50 -106q0 -80 54 -104q16 -6 36 -6q72 0 186 90q86 66 262 242q60 60 108 98q36 36 58 36q18 0 18 -20q0 -14 -6 -24l-2 -4q-26 -34 -132 -154q-148 -172 -262 -270 q-166 -142 -308 -142q-62 0 -104 24q-80 44 -84 142z" />
<glyph unicode="&#x201d;" d="M-940 -778q0 108 118 212q60 60 100 60q16 0 16 -16t-44 -64q-32 -36 -32 -90q0 -36 20 -72q24 -44 74 -44q66 0 166 106q60 62 202 258l84 108q34 40 50 40q18 0 18 -26q0 -12 -4 -22q-24 -44 -102 -172q-130 -216 -204 -298l-46 -46q-122 -110 -244 -110 q-100 0 -148 82l-2 2q-22 42 -22 92z" />
<glyph unicode="&#x201e;" d="M-1270 -734q0 10 2 18q14 40 370 350q80 80 126 80q34 0 48 -32q4 -10 4 -20v-4q0 -38 -56 -82l-6 -6l-70 -60q-160 -132 -244 -196l-80 -60q-36 -24 -56 -24q-36 2 -38 36zM-982 -914q0 10 2 18q14 40 370 350l2 2q24 22 44 40q44 38 80 38q34 0 48 -32q4 -10 4 -20v-4 q0 -38 -56 -82l-6 -6l-70 -60q-160 -132 -244 -196l-80 -60q-36 -24 -56 -24q-36 2 -38 36z" />
<glyph unicode="&#x2022;" horiz-adv-x="1098" d="M-228 -636q0 106 64 236q62 126 234 298q24 18 28 28q6 56 6 124q8 188 8 684q0 390 48 610q52 240 194 402q90 96 132 96q14 0 14 -18q-4 -34 -56 -90l-2 -2q-98 -98 -138 -416q-18 -142 -18 -478v-104q26 26 82 66q166 120 304 120q162 0 196 -174q8 -42 8 -82 q0 -82 -32 -164q-88 -224 -390 -426q-40 -28 -88 -58q-134 -80 -192 -130q-20 -12 -28 -20q-200 -160 -200 -358q0 -116 84 -200q82 -82 188 -82q72 0 116 28l72 52q14 8 24 8q16 0 16 -18q0 -14 -16 -38q-68 -112 -206 -170q-80 -34 -152 -34q-62 0 -120 26 q-106 44 -158 168q-22 54 -22 116zM272 44l138 86q150 104 196 152q100 112 100 238q0 100 -50 164q-30 40 -68 54q-24 8 -70 8q-120 -10 -210 -90q-20 -14 -22 -20q-2 -4 -2 -42q0 -182 -4 -330z" />
<glyph unicode="&#x2026;" d="M-1168 -730q0 28 64 86h2q80 80 292 268l62 52q44 38 80 38q34 0 48 -34q4 -8 4 -18q0 -40 -54 -84l-6 -6q-244 -204 -318 -258l-80 -60q-36 -24 -56 -24q-38 2 -38 40zM-880 -910q0 28 64 86h2q80 80 292 268l62 52q44 38 80 38q34 0 48 -34q4 -8 4 -18q0 -40 -54 -84 l-6 -6q-244 -204 -318 -258l-80 -60q-36 -24 -56 -24q-38 2 -38 40z" />
<glyph unicode="&#x202f;" horiz-adv-x="420" />
<glyph unicode="&#x2039;" d="M-1050 -742q0 16 10 36q0 20 124 116q162 140 316 250q36 32 64 32q4 0 8 -2q30 -6 30 -34q0 -26 -16 -42l-98 -98q-166 -158 -306 -272q-42 -38 -76 -38q-10 0 -22 4q-34 16 -34 48z" />
<glyph unicode="&#x203a;" horiz-adv-x="900" d="M-178 -586q0 108 130 254l58 62q104 140 146 508q14 148 22 618q6 216 6 296q0 144 -18 182q-20 40 -52 40q-26 0 -60 -28l-28 -22q-28 -16 -44 -16q-14 0 -14 14q0 34 72 110q116 116 214 116q40 0 64 -28q22 -24 36 -106l2 -10q20 20 40 34q16 16 32 24q74 52 128 52 q98 0 106 -172q2 -70 2 -210q0 -766 -140 -1000q-90 -154 -328 -344q-72 -56 -130 -108q-70 -64 -70 -116v-2v-10q4 -74 76 -104q28 -12 54 -12t52 12l24 18q42 36 68 36q16 0 16 -16q0 -40 -88 -122q-116 -100 -222 -100h-8q-68 0 -110 52q-36 40 -36 98zM216 -98 q106 90 132 118q22 28 38 56q24 42 44 134q60 288 60 742v166q0 150 -24 190q-14 26 -42 30h-22q-14 -2 -32 -20q-10 -10 -12 -14q-2 -218 -12 -602q-8 -328 -46 -522q-16 -84 -50 -190z" />
<glyph unicode="&#x205f;" horiz-adv-x="525" />
<glyph unicode="&#x2122;" d="M-1104 -692q0 92 70 176q112 142 250 142q84 0 142 -72q46 -54 46 -122q0 -86 -70 -170q-112 -144 -250 -144q-90 0 -148 74q-40 52 -40 116zM-958 -576q0 -76 72 -126q46 -34 98 -34q10 0 20 2l18 6l6 34q0 32 -14 72q-30 74 -112 96q-20 4 -38 4h-14q-30 -8 -30 -10 q-6 2 -4 -22q-2 -12 -2 -22z" />
<glyph unicode="&#x25fc;" horiz-adv-x="1020" d="M0 0v1020h1020v-1020h-1020z" />
</font>
</defs>
</svg>
