<?xml version="1.0" standalone="no"?>
<!DOCTYPE svg PUBLIC "-//W3C//DTD SVG 1.1//EN" "http://www.w3.org/Graphics/SVG/1.1/DTD/svg11.dtd" >
<svg xmlns="http://www.w3.org/2000/svg" xmlns:xlink="http://www.w3.org/1999/xlink" version="1.1">
<metadata></metadata>
<defs>
<font id="tengwar_annatar_glaemscrafuBd" horiz-adv-x="0" >
<font-face units-per-em="2048" ascent="1638" descent="-410" />
<missing-glyph horiz-adv-x="610" />
<glyph />
<glyph horiz-adv-x="682" />
<glyph unicode=" "  horiz-adv-x="610" />
<glyph unicode="&#x09;" horiz-adv-x="610" />
<glyph unicode="&#xa0;" horiz-adv-x="610" />
<glyph unicode="!" horiz-adv-x="1302" d="M706 264q48 0 74 -24t44 -30q26 -8 68 -8q52 0 107 23q33 66 33 140q0 155 -121 247q-40 31 -79 44q-41 14 -88 14q-105 0 -226 -75q-50 -31 -71 -57q-50 -61 -60 -194q-2 -19 -8 -246q-9 -306 -62 -586q-35 -191 -107 -308q-18 -29 -40 -59q-72 -97 -145 -145 q-33 -22 -54 -22q-18 0 -18 17q0 24 56 98q29 40 36 54q116 255 123 1190q1 73 1 155q0 512 28 713q11 80 31 163q62 244 240 393q55 46 88 46q17 0 17 -16q0 -30 -26 -59q-41 -46 -59 -83q-65 -127 -88 -416q-13 -159 -13 -484v-146l17 16q107 107 246 184q153 86 278 86 q135 0 228 -98q94 -100 94 -245q0 -196 -189 -385q-177 -177 -353 -177q-161 0 -161 125q0 60 50 109q46 46 109 46z" />
<glyph unicode="&#x22;" d="M-1769 -228q0 45 67 103q45 38 72 42h7l115 -21q69 -10 151 -13q28 -1 355 -1q516 0 590 4q92 5 192 27q18 4 22 4q20 0 20 -19q0 -29 -40 -76q-50 -57 -113 -71q-155 -33 -366 -33l-99 1l-598 -1q-233 4 -366 37q-9 4 -9 17z" />
<glyph unicode="#" d="M-1076 1568q0 12 77 90q64 63 76 63q17 0 101 -88q53 -56 53 -65q0 -15 -85 -97q-59 -57 -69 -57q-13 0 -93 82q-60 61 -60 72zM-1106 1154q-16 0 -101 90q-53 55 -53 63t20 29l122 121q7 3 12 3q17 0 102 -89q53 -55 53 -64q0 -12 -72 -85q-67 -68 -83 -68zM-753 1457 l13 3q12 0 42 -31l39 -40q70 -69 72 -76q1 -2 1 -6q0 -11 -72 -84q-67 -69 -83 -69t-100 88q-53 56 -53 65t20 29z" />
<glyph unicode="$" d="M-1099 1091q-29 7 -33 33q0 15 11 30q19 24 250 230q224 199 294 246q32 21 58 21q62 0 75 -52q2 -8 2 -16q0 -37 -44 -79q-54 -51 -291 -212q-246 -170 -301 -195q-14 -6 -21 -6z" />
<glyph unicode="%" d="M-1128 1307q0 11 75 88q65 65 78 65q16 0 101 -88q53 -56 53 -65q0 -15 -85 -98q-59 -56 -69 -56q-14 0 -95 83q-58 60 -58 71z" />
<glyph unicode="&#x26;" d="M-944 1602q6 50 84 111q90 70 178 79q9 1 17 1q95 0 147 -73q32 -45 32 -101q0 -246 -501 -432q99 37 -75 -27l-134 -50q-20 -8 -29 -8q-24 0 -28 24q0 28 119 89l223 113q208 112 231 198q3 11 3 22q0 30 -29 58q-34 31 -91 31q-28 0 -67 -28q-35 -26 -61 -26 q-20 0 -19 19z" />
<glyph unicode="'" d="M-1108 -227q0 46 69 103q50 41 75 41q8 0 36 -12q35 -15 93 -21q13 -2 251 -2q239 0 277 6q29 4 70 20q20 9 31 9q19 0 19 -19q0 -30 -45 -81q-32 -36 -68 -54q-101 -51 -319 -46l-92 2q-247 0 -279 4q-27 3 -71 18q-42 14 -46 24q-1 3 -1 8z" />
<glyph unicode="(" d="M-991 -614q-13 0 -93 81q-60 61 -60 72q0 14 77 92q63 63 76 63q12 0 90 -78q63 -63 63 -76q0 -18 -90 -103q-54 -51 -63 -51z" />
<glyph unicode=")" d="M-339 1710q190 0 298 83l64 53q22 14 42 14q17 0 18 -18q0 -35 -60 -99q-108 -115 -276 -166q-100 -30 -209 -30q-136 0 -380 50q-237 50 -334 59q-57 6 -108 6q-185 0 -290 -82l-63 -52q-22 -16 -44 -16q-18 0 -18 19q0 56 133 160q172 133 410 134q140 0 382 -51 q232 -49 325 -58q58 -6 110 -6z" />
<glyph unicode="*" horiz-adv-x="1241" d="M166 448q0 427 267 808q159 226 365 376q155 106 237 114q25 0 27 -16q0 -29 -68 -78q-21 -15 -47 -30q-270 -157 -407 -395q-16 -27 -30 -56q-126 -258 -126 -540q0 -216 109 -348q96 -116 237 -116q96 0 168 34q29 13 37 28q26 49 26 124q0 86 -40 139q-28 38 -32 49 q-8 19 -8 44q0 61 47 111q47 48 112 48q80 0 118 -84q22 -50 22 -119q0 -148 -116 -303q-115 -156 -283 -234q-118 -55 -234 -55q-166 0 -272 138q-107 138 -109 353v8z" />
<glyph unicode="+" horiz-adv-x="696" d="M-212 -14l-394 -9q-26 0 -30 10q-1 4 -1 10q0 33 52 93q60 68 114 80l304 9q30 1 90 1q227 0 339 -23q286 -56 343 -287q5 -22 9 -47q2 -18 2 -45q0 -162 -129 -313q-110 -127 -253 -182q-72 -27 -136 -27q-200 0 -294 138q-46 67 -48 132q0 83 77 180q64 79 120 96 q11 3 20 3q19 0 19 -20q0 -21 -22 -52q-19 -27 -19 -49q0 -74 65 -142q90 -92 230 -92q73 0 125 26q13 6 17 12q23 31 32 100q2 17 2 33q0 122 -83 219q-73 85 -185 114q-127 32 -366 32z" />
<glyph unicode="," horiz-adv-x="1239" d="M247 128q-68 0 -106 64q-32 53 -32 142q0 189 155 355q129 138 304 200q96 35 181 35q150 0 257 -90q116 -97 117 -250q0 -236 -161 -458q161 -107 161 -287q0 -159 -109 -323q-121 -182 -372 -352q-95 -64 -159 -94q-62 -31 -98 -31q-25 0 -26 15q0 35 103 104l204 129 q142 96 187 173q52 90 52 192q0 163 -138 254q-18 11 -37 21q-12 6 -12 18q2 27 37 75l33 38q95 102 114 287q3 31 3 58q0 126 -99 213q-101 89 -246 89q-109 0 -178 -38q-23 -13 -29 -25q-27 -55 -27 -123q0 -84 40 -137q28 -38 33 -50q8 -20 8 -45q0 -63 -50 -113 q-46 -46 -110 -46z" />
<glyph unicode="-" horiz-adv-x="487" d="M107 698q0 12 73 86q66 67 81 67q14 0 99 -89q54 -57 54 -65q0 -14 -84 -95q-60 -58 -70 -58q-15 0 -96 84q-57 59 -57 69v1zM259 22q-13 0 -94 83q-58 59 -58 70v1q0 9 71 82q67 70 83 70q15 0 99 -88q54 -56 54 -65q0 -14 -84 -96q-59 -57 -69 -57h-1h-1z" />
<glyph unicode="." horiz-adv-x="1112" d="M489 -16q-148 0 -252 99q-105 101 -109 249v10q0 225 236 420l10 9q130 104 258 116l29 1q177 0 288 -112q100 -101 100 -249q0 -132 -107 -278q-107 -145 -256 -217q-101 -48 -197 -48zM831 344q0 129 -90 222q-102 104 -264 104q-49 0 -94 -19q-13 -5 -15 -10l-6 -14 q-17 -45 -17 -102q0 -111 76 -203q82 -101 211 -118q14 -2 40 -2q78 0 123 24q13 6 16 13q20 46 20 105z" />
<glyph unicode="/" d="M-970 -801q77 0 233 -33q141 -30 218 -30q96 0 144 43q30 27 33 29q16 10 37 10t21 -19q0 -31 -49 -87q-91 -103 -227 -131q-43 -9 -88 -9q-84 1 -241 34q-135 29 -209 29q-98 0 -148 -44q-30 -27 -35 -29q-15 -9 -35 -9q-19 0 -19 18q0 31 49 87q91 103 228 132 q43 9 88 9z" />
<glyph unicode="0" d="M-188 1747q96 0 147 44q30 27 36 30q14 8 32 8q20 0 20 -18q0 -33 -50 -89q-91 -103 -229 -130q-41 -8 -84 -8q-81 0 -235 33q-140 29 -218 29q-91 0 -131 -34q-52 -47 -85 -47q-18 0 -18 18q0 31 49 87q91 103 228 131q43 9 87 9q83 0 238 -34q138 -29 213 -29z" />
<glyph unicode="1" horiz-adv-x="1415" d="M38 579q-17 0 -17 19q0 40 76 119q77 80 162 121q71 33 132 33q70 0 96 -74q7 -20 12 -48v-73l1 -73l16 16q115 112 255 189q147 81 267 81q140 0 234 -101q91 -99 91 -244q0 -119 -83 -252q-44 -69 -106 -131q-173 -173 -344 -177h-10q-158 0 -160 121q0 83 70 130 q42 29 89 29q37 0 73 -25q41 -29 79 -34q16 -3 35 -3q97 0 113 37q26 57 26 124q0 150 -113 243q-11 10 -23 18q-67 47 -154 47q-105 0 -226 -77q-46 -28 -67 -52q-50 -58 -61 -183q-2 -25 -9 -246q-9 -297 -57 -573q-36 -201 -100 -316q-44 -78 -116 -154q-71 -75 -122 -90 q-8 -2 -14 -2q-17 0 -17 17q0 27 24 57q43 50 64 94q39 82 64 223q44 252 55 549q9 215 9 550q0 139 -35 171q-15 14 -38 14q-54 0 -97 -36q-34 -29 -50 -34q-11 -4 -24 -4z" />
<glyph unicode="2" horiz-adv-x="2045" d="M38 579q-17 0 -17 19q0 40 76 119q77 80 162 121q71 33 132 33q85 0 105 -107q3 -15 3 -79l1 -65l23 23q158 154 310 215q64 28 140 30h11q142 0 231 -141q39 -63 46 -111q4 0 24 23q51 56 143 119q158 110 286 110q139 0 224 -130q12 -18 21 -36q39 -77 39 -168 q0 -171 -136 -337q-43 -53 -99 -102q-155 -128 -286 -131q-157 0 -157 122q0 83 71 130q42 28 87 28q40 0 75 -26q38 -28 71 -33q18 -3 39 -3q64 0 80 21q4 4 9 16q28 61 28 131q0 122 -75 211q-21 25 -45 43q-60 46 -130 46q-81 0 -148 -46q-30 -20 -47 -46 q-33 -50 -83 -165q-39 -90 -74 -142q-70 -106 -172 -186q-106 -83 -211 -100q-8 -1 -28 -1q-165 5 -169 121q0 47 33 94q46 65 130 65q35 0 70 -25q40 -30 79 -35q15 -2 33 -2q62 0 75 18q4 5 9 16q25 60 25 131q0 106 -63 196q-76 108 -193 108q-93 0 -187 -70 q-17 -12 -29 -24q-68 -68 -79 -198q-2 -27 -4 -130q-12 -549 -91 -846q-13 -49 -28 -87q-56 -147 -172 -260q-79 -77 -123 -78q-17 0 -17 17q0 27 24 57q43 50 64 94q39 82 64 223q44 252 55 549q9 215 9 550q0 139 -35 171q-15 14 -38 14q-54 0 -97 -36q-34 -29 -50 -34 q-11 -4 -24 -4z" />
<glyph unicode="3" horiz-adv-x="1302" d="M707 264q48 0 74 -24t44 -30q26 -8 68 -8q52 0 107 23q33 66 33 140q0 141 -101 231q-63 57 -142 71q-21 4 -44 4q-110 0 -223 -73q-49 -31 -69 -58q-46 -62 -61 -158q-16 -98 -25 -128q-31 -97 -125 -191q-69 -69 -114 -78q-5 -1 -9 -1q-17 0 -17 17q0 29 20 52 q29 33 39 77q6 28 9 67q2 30 2 372q1 242 9 392q15 293 62 446q57 185 197 324q77 77 120 77q18 0 18 -18q0 -34 -66 -111q-12 -13 -14 -17q-105 -181 -105 -815q-1 -73 -1 -188l-1 -55l21 20q135 132 286 205q124 60 231 60q136 0 229 -99q92 -99 92 -244q0 -196 -189 -385 q-177 -177 -354 -177q-159 0 -159 124q0 61 48 110q46 46 110 46z" />
<glyph unicode="4" horiz-adv-x="1933" d="M941 367q0 105 -63 194q-76 109 -194 109q-87 0 -176 -62q-24 -16 -35 -29q-58 -67 -75 -166l-19 -116q-27 -125 -136 -234q-69 -69 -114 -78q-5 -1 -9 -1q-17 0 -17 17q0 29 20 52q29 33 39 77q6 28 9 67q2 30 2 372q1 242 9 392q15 293 62 446q57 185 197 324 q77 77 120 77q18 0 18 -18q0 -34 -66 -111q-12 -13 -14 -17q-105 -181 -105 -841q-1 -88 -1 -179l-1 -20l25 25q138 138 282 201q91 40 169 40q134 0 224 -124q49 -67 56 -120q1 -5 1 -8q1 0 51 47q219 205 402 205q121 0 204 -102q80 -98 80 -234q0 -144 -115 -305 q-103 -144 -237 -217q-64 -34 -123 -44q-15 -2 -43 -2q-160 0 -160 121q0 59 46 109t112 50q39 0 75 -25q38 -28 71 -34q18 -3 40 -3q70 0 83 26q-6 -12 5 10q28 63 28 134q0 77 -35 148q-49 99 -140 135q-37 15 -75 15q-57 0 -122 -31q-43 -20 -63 -47q-34 -47 -83 -161 q-45 -103 -83 -160q-102 -154 -236 -232q-95 -55 -184 -55q-159 0 -159 122q0 84 71 131q42 27 88 27q37 0 71 -25q39 -28 75 -34q17 -3 39 -3q62 0 75 18q3 4 8 16q26 60 26 131z" />
<glyph unicode="5" horiz-adv-x="2045" d="M25 596q0 48 82 128q99 97 208 133q44 14 81 14q84 0 104 -101q5 -28 5 -92l-1 -56l25 25q202 202 400 237q14 2 29 4h26q136 0 225 -133q44 -65 52 -114v-5q3 0 25 24q47 50 121 104q174 124 307 124q136 0 221 -125q15 -22 26 -45q37 -77 37 -166q0 -135 -110 -294 q-101 -146 -234 -223q-69 -39 -132 -49q-14 -2 -42 -2q-148 0 -160 105q-1 8 -1 17q0 59 46 108q46 50 112 50q40 0 75 -26q38 -27 73 -33q18 -3 39 -3q63 0 87 32q28 39 28 138q0 124 -77 213q-19 22 -42 39q-60 46 -130 46q-57 0 -123 -31q-44 -21 -63 -48 q-36 -51 -86 -166q-43 -99 -80 -154q-99 -149 -230 -228q-98 -59 -189 -59q-160 0 -160 121q0 83 70 130q42 29 89 29q38 0 72 -25q39 -28 76 -34q17 -3 38 -3q61 0 74 17q3 4 9 17q25 56 25 131q0 135 -90 227q-61 63 -134 74q-12 2 -33 2q-87 0 -176 -62q-24 -16 -35 -29 q-54 -62 -75 -172l-21 -121q-15 -65 -45 -113q-58 -94 -141 -156q-45 -33 -70 -33q-18 0 -18 17q0 25 22 52q32 38 41 88q9 54 9 360q0 138 -58 151q-7 1 -14 1q-54 0 -99 -37q-34 -29 -50 -33q-11 -4 -22 -4q-18 0 -18 17z" />
<glyph unicode="6" horiz-adv-x="1415" d="M25 596q0 48 82 128q99 97 208 133q44 14 81 14q84 0 104 -101q5 -23 5 -102l-1 -64l21 20q114 114 255 189q142 76 260 76q136 0 229 -99q94 -100 94 -246q0 -113 -73 -239q-82 -141 -237 -244q-118 -77 -233 -77q-148 0 -159 105q-1 8 -1 15q0 63 48 113q45 47 110 47 q48 0 74 -24q25 -24 45 -30q25 -8 68 -8q52 0 107 23q33 65 33 138q0 147 -106 238q-62 53 -137 66q-21 4 -44 4q-109 0 -223 -72q-49 -32 -69 -59q-47 -65 -62 -163q-16 -96 -25 -125q-13 -41 -36 -79q-56 -93 -139 -155q-47 -34 -72 -34q-18 0 -18 17q0 25 22 52 q32 38 41 88q10 59 10 380q-8 124 -73 132q-54 0 -99 -37q-34 -29 -50 -33q-11 -4 -22 -4q-18 0 -18 17z" />
<glyph unicode="7" horiz-adv-x="1259" d="M344 458q4 3 7 8q-5 11 -45 107q-29 70 -65 90q-24 13 -57 13q-50 0 -87 -32q-30 -25 -48 -28q-7 -1 -14 -1q-21 0 -21 19q0 51 98 138q112 99 227 99q90 0 136 -78q11 -20 42 -94l11 -25l67 57q195 154 315 154h31q116 0 188 -81q60 -68 60 -167q0 -236 -247 -465 q-115 -108 -269 -197q-268 -157 -347 -298q-39 -68 -39 -138q0 -62 38 -131q71 -130 215 -130q64 0 112 42q36 32 45 37q19 11 41 13q20 1 20 -12q0 -2 -1 -8q0 -31 -61 -102q-98 -116 -217 -163q-62 -25 -121 -25q-140 0 -226 111q-50 65 -61 143q-2 14 -2 40 q0 134 118 304q56 81 135 161q78 80 178 150q17 11 17 13q0 31 -114 347q-24 66 -38 101l-12 31q-5 -3 -8 -3h-1zM971 459q0 55 -35 112q-64 103 -205 103q-69 0 -153 -37q-28 -12 -28 -17l11 -27q81 -207 150 -445l11 -40q13 0 120 89q29 25 43 38q86 86 86 224z" />
<glyph unicode="8" horiz-adv-x="1214" d="M718 1572q0 36 66 109q73 80 123 90q6 1 11 1q21 0 43 -42q21 -43 21 -92q0 -111 -117 -296q-73 -114 -213 -296q-216 -283 -271 -410q-31 -75 -31 -142q0 -120 82 -213q76 -85 195 -108q31 -6 67 -6q92 0 166 33q33 14 40 29q27 53 27 123q0 87 -40 139q-27 37 -32 49 q-9 20 -9 47q0 58 46 107q47 50 114 50q68 0 107 -64q32 -53 32 -143q0 -142 -113 -296q-115 -156 -282 -235q-120 -57 -240 -57q-177 0 -287 124q-72 81 -88 183q-4 26 -4 51q0 174 190 452q48 71 218 294q157 206 199 303q26 59 26 102q0 50 -32 90q-14 16 -14 24z" />
<glyph unicode="9" horiz-adv-x="1335" d="M37 1462q0 39 71 113q93 97 193 130q35 11 66 11q77 0 117 -71q3 -7 6 -13l560 -1383q30 -57 90 -69q10 -2 20 -2q36 -1 75 34q36 33 55 39q11 4 23 4q18 0 20 -10q1 -3 1 -8q0 -39 -70 -112q-92 -98 -190 -130q-34 -11 -65 -11q-89 0 -140 75q-5 8 -9 15q-4 9 -98 240 l-93 229q-1 0 -12 -21q-165 -298 -247 -390q-39 -44 -93 -82q-93 -66 -181 -66q-43 0 -91 52q-20 23 -20 33q0 53 85 131q69 62 109 70q3 1 6 1q9 0 36 -29q37 -40 64 -40l16 1l23 38q38 63 152 267l80 144q16 30 16 32l-314 777q-17 38 -52 54q-14 6 -29 6q-41 0 -81 -35 q-35 -32 -53 -38q-12 -4 -25 -5q-21 0 -21 19z" />
<glyph unicode=":" d="M-546 -182q163 0 256 74l53 43q19 13 37 13q21 0 21 -19q0 -34 -57 -95q-103 -112 -262 -157q-82 -23 -171 -23q-134 0 -337 44q-194 43 -284 51q-49 5 -97 5q-161 0 -253 -73l-54 -44q-20 -13 -40 -13q-19 0 -19 18q0 38 69 106q41 39 95 75q142 95 326 95 q134 0 336 -45q194 -43 283 -51q50 -4 98 -4z" />
<glyph unicode=";" d="M-393 -179q82 0 124 37q26 24 36 28q12 4 27 4q19 0 19 -18q0 -30 -50 -86q-88 -99 -208 -122q-30 -6 -61 -6h-14q-47 0 -234 34q-109 19 -148 19q-79 0 -123 -38q-28 -24 -38 -28q-11 -4 -26 -4q-18 0 -18 20q0 33 52 89q89 96 213 119q32 6 64 6q65 0 206 -30 q115 -24 179 -24z" />
<glyph unicode="&#x3c;" horiz-adv-x="1234" d="M253 964q-76 0 -113 74q-26 51 -26 132q0 169 152 343q133 152 307 215q88 31 171 31q175 0 285 -114q99 -103 99 -249q0 -234 -153 -455q-31 -45 -69 -91q105 -52 160 -149q45 -78 45 -173q0 -179 -186 -469q-48 -74 -218 -312q-159 -223 -204 -330q-28 -67 -28 -117 q0 -54 33 -95q15 -18 15 -27q0 -50 -86 -128q-69 -63 -108 -71q-4 -1 -6 -1q-23 0 -45 48q-22 46 -22 91q0 116 111 303q68 113 214 318q222 310 278 448q33 83 33 159q0 146 -115 242q-82 68 -187 81q-14 2 -45 2q-98 0 -176 -39q-15 -8 -20 -10q-20 -20 -30 -90 q-4 -24 -4 -46q0 -87 39 -139q28 -37 32 -48q9 -20 9 -46q0 -82 -73 -130q-42 -29 -86 -29q-81 0 -117 81q-22 50 -22 126q0 217 224 416q196 173 407 173q41 0 85 -8q97 153 97 332q0 155 -124 251q-79 62 -178 75q-14 1 -41 1q-94 0 -170 -33q-17 -8 -30 -16 q-15 -10 -29 -75q-6 -33 -6 -60q0 -87 39 -140q28 -37 33 -48q8 -19 8 -45q0 -81 -70 -129q-43 -30 -89 -30z" />
<glyph unicode="=" horiz-adv-x="487" d="M260 283q-15 0 -96 84q-57 59 -57 69v1q0 9 71 82q67 70 83 70q15 0 99 -88q54 -56 54 -65q0 -14 -84 -95q-60 -58 -70 -58z" />
<glyph unicode="&#x3e;" d="M-682 -434q0 12 77 90q64 63 77 63q16 0 100 -88q53 -56 53 -65q0 -15 -87 -99q-57 -55 -66 -55q-15 0 -97 85q-57 59 -57 69zM-334 -434q0 12 78 90q63 63 76 63q17 0 100 -88q53 -56 53 -65q0 -15 -87 -99q-57 -55 -66 -55q-14 0 -95 84q-59 60 -59 70zM-354 -841 q-15 0 -97 85q-57 59 -57 69t74 86q66 67 80 67q16 0 100 -88q53 -56 53 -65q0 -15 -87 -99q-57 -55 -66 -55z" />
<glyph unicode="?" d="M-630 -866q184 0 293 84l63 51q21 15 42 15q18 0 18 -19q0 -32 -58 -95q-108 -116 -273 -168q-101 -32 -210 -32q-143 0 -379 50q-227 49 -320 59q-66 7 -127 7q-185 0 -292 -84l-63 -51q-22 -15 -42 -15q-19 0 -19 18q0 42 80 115q185 171 432 180h32q137 0 384 -51 q238 -50 334 -59q55 -5 105 -5z" />
<glyph unicode="@" horiz-adv-x="1933" d="M940 364q0 107 -63 198q-76 108 -193 108q-109 0 -210 -86q-75 -64 -86 -220q-2 -25 -4 -115q-14 -644 -118 -923q-38 -104 -96 -181q-72 -97 -145 -145q-33 -22 -54 -22q-18 0 -18 17q0 24 56 98q29 40 36 54q116 255 123 1190q1 73 1 155q0 512 28 713q11 80 31 163 q62 244 240 393q55 46 88 46q17 0 17 -16q0 -30 -26 -59q-41 -46 -59 -83q-65 -127 -88 -416q-13 -156 -13 -475v-138l22 22q240 235 442 246h16q134 0 224 -124q49 -67 56 -120q1 -5 1 -8q1 0 51 47q219 205 402 205q120 0 203 -99q81 -98 81 -237q0 -144 -115 -305 q-103 -144 -237 -217q-64 -34 -123 -44q-15 -2 -43 -2q-160 0 -160 121q0 59 46 109t112 50q39 0 75 -25q38 -28 71 -34q18 -3 40 -3q70 0 83 26q-6 -12 5 10q27 63 27 134q0 77 -34 148q-49 99 -140 135q-37 15 -75 15q-61 0 -125 -31q-42 -21 -63 -50q-33 -46 -87 -170 q-43 -99 -76 -148q-107 -158 -243 -235q-91 -52 -177 -52q-159 0 -159 122q0 84 71 131q42 27 88 27q37 0 71 -25q39 -28 75 -34q17 -3 39 -3q65 0 77 20q1 2 6 14q26 59 26 128z" />
<glyph unicode="A" horiz-adv-x="1288" d="M632 609q-39 0 -74 25q-38 28 -73 34q-18 2 -39 2q-51 0 -107 -22q-30 -68 -32 -124q-1 -7 -1 -15q0 -111 70 -200q21 -26 45 -45q79 -62 174 -62q118 0 242 57q69 31 85 57q23 38 27 92q4 43 4 203q3 538 61 763q23 91 60 162q63 122 164 212q66 59 100 59q18 0 18 -16 v-4q0 -25 -25 -55q-46 -53 -69 -106q-67 -153 -84 -486q-6 -109 -7 -362q0 -194 -2 -248q0 -210 -13 -646q-5 -152 -9 -200q-24 -265 -95 -417q-63 -136 -178 -236q-63 -53 -96 -53q-17 0 -17 17q0 28 27 60q44 52 65 97q45 94 66 261q18 139 21 313q5 359 8 468v25 q-90 -90 -225 -156q-160 -79 -310 -79q-140 0 -234 100q-91 98 -91 241q0 140 109 294q105 147 247 221q95 49 184 49q155 0 163 -111q1 -5 1 -11q0 -44 -32 -91q-45 -67 -128 -67z" />
<glyph unicode="B" d="M-448 1308q0 10 75 87q65 65 78 65q16 0 102 -90q52 -55 52 -63q0 -14 -82 -94q-61 -60 -72 -60q-16 0 -105 94q-48 51 -48 57v3v1z" />
<glyph unicode="C" d="M-432 1560q0 12 79 91q62 62 74 62q17 0 101 -88q53 -56 53 -65q0 -15 -82 -95q-61 -59 -72 -59q-13 0 -92 80q-61 62 -61 74zM-606 1307q0 12 77 90q64 63 76 63q17 0 99 -87q55 -57 55 -66q0 -15 -82 -95q-61 -59 -72 -59q-14 0 -93 82q-60 61 -60 72zM-258 1307 q0 12 76 88q64 65 78 65q16 0 100 -88q53 -56 53 -65q0 -16 -87 -99q-57 -55 -66 -55q-15 0 -95 82q-59 61 -59 72z" />
<glyph unicode="D" d="M-710 1568q0 11 76 88q65 65 78 65q16 0 102 -90q52 -55 52 -63q0 -14 -85 -97q-59 -57 -69 -57q-14 0 -98 87q-56 58 -56 67zM-752 1457l13 3q12 0 42 -31l39 -40q70 -69 72 -76q1 -2 1 -6q0 -11 -72 -84q-67 -69 -83 -69t-100 88q-53 56 -53 65t20 29zM-374 1154 q-15 0 -98 86q-55 58 -55 67t20 29l121 121q7 3 13 3q15 0 98 -85q56 -58 56 -68t-69 -82q-69 -71 -86 -71z" />
<glyph unicode="E" d="M-798 1568q0 11 77 89q64 64 77 64q17 0 100 -88q53 -56 53 -65q0 -14 -85 -97q-58 -57 -68 -57q-14 0 -95 84q-59 60 -59 70zM-840 1457l13 3q12 0 42 -31l39 -40q70 -69 72 -76q1 -2 1 -6q0 -11 -72 -84q-67 -69 -83 -69t-100 88q-53 56 -53 65t20 29zM-462 1154 q-16 0 -101 89q-52 56 -52 64q0 9 19 29l122 121q7 3 12 3q16 0 99 -85q56 -58 56 -68q0 -12 -72 -85q-67 -68 -83 -68z" />
<glyph unicode="F" d="M-697 1091q-30 7 -34 33q0 15 11 30q22 28 264 242q210 185 280 234q32 21 58 21q61 0 74 -50q3 -9 3 -18q0 -38 -44 -79q-55 -52 -290 -212q-194 -133 -237 -159q-68 -42 -85 -42z" />
<glyph unicode="G" d="M-727 1307q0 12 76 88q64 65 77 65q17 0 101 -88q53 -56 53 -65q0 -16 -87 -99q-57 -55 -66 -55q-15 0 -95 82q-59 61 -59 72z" />
<glyph unicode="H" d="M-774 1100q-24 0 -24 25q0 15 16 37q-43 -58 68 87q235 306 356 410q31 26 59 45q88 60 172 72q11 2 19 2q9 1 17 1q95 0 144 -64q31 -40 31 -94q0 -98 -83 -194q-69 -79 -139 -94q-12 -3 -23 -3q-25 0 -25 18q0 13 28 46q48 57 52 112q1 7 1 15q0 77 -55 89q-7 1 -14 1 q-69 0 -213 -139q-20 -19 -186 -191q-68 -70 -117 -117q-62 -59 -74 -63q-4 -1 -10 -1z" />
<glyph unicode="I" horiz-adv-x="1253" d="M249 128q-68 0 -106 64q-32 53 -32 142q0 156 124 315q120 151 291 226q93 40 184 48h40q150 0 254 -123q115 -135 121 -352v-24q0 -370 -193 -729q-155 -289 -396 -494q-177 -151 -265 -167q-8 -1 -15 -1q-22 0 -22 16q0 29 82 93l147 113q48 39 84 74q207 203 301 512 q59 196 59 400q0 197 -95 329q-96 133 -245 135h-5q-109 0 -178 -38q-23 -13 -29 -25q-26 -55 -26 -123q0 -85 38 -136q28 -37 33 -47q9 -21 9 -48q0 -102 -94 -144q-37 -16 -66 -16z" />
<glyph unicode="J" d="M-520 1570q-19 0 -20 19q0 27 49 81q85 94 190 113q22 4 44 4q95 0 145 -72q31 -44 31 -101q0 -183 -262 -332q-38 -21 -80 -41q-59 -29 -200 -87l-87 -37q-34 -15 -44 -15q-26 0 -28 24q0 27 111 90l193 111q191 115 207 196q2 9 2 17q0 26 -27 53q-33 33 -91 33 q-37 0 -75 -29q-32 -26 -58 -27z" />
<glyph unicode="K" horiz-adv-x="1232" d="M182 1035q0 212 224 435q144 142 312 230q90 46 130 46q26 0 26 -16q0 -35 -98 -99l-180 -115q-135 -92 -167 -165q-29 -66 -29 -132q0 -133 92 -229q21 -23 46 -41q15 -10 15 -21q0 -29 -42 -81q-62 -75 -84 -116q-61 -111 -61 -258q0 -129 99 -217q100 -88 246 -88 q105 0 188 43l10 6q15 10 29 76q6 32 6 59q0 87 -39 140q-28 37 -33 48q-8 19 -8 45q0 62 48 112q45 47 110 47q98 0 129 -117q11 -42 11 -88q0 -142 -112 -296q-114 -156 -281 -236q-121 -58 -242 -58q-166 0 -273 98q-106 98 -106 251q0 201 128 401q19 28 37 52 q-54 54 -75 85q-56 86 -56 199z" />
<glyph unicode="L" d="M-940 -153q-14 0 -98 87q-56 58 -56 67t70 82q69 71 85 71q15 0 100 -90q53 -55 53 -63q0 -14 -85 -97q-59 -57 -69 -57z" />
<glyph unicode="M" d="M-306 1579q2 37 55 98q86 98 192 115q18 3 36 3q96 0 145 -73q28 -42 28 -95q0 -144 -140 -270q-19 -17 -40 -32q-70 -52 -261 -159q-115 -64 -132 -64q-22 0 -26 19q-1 3 -1 6q0 27 97 98l158 113q164 125 164 206q0 55 -73 73q-19 5 -34 5q-51 0 -96 -37 q-31 -26 -46 -28q-4 -1 -8 -1q-18 0 -18 23z" />
<glyph unicode="N" d="M-441 1099q-21 7 -25 27q0 13 18 43l135 231q153 246 281 329q77 50 154 50q105 0 153 -74q27 -41 27 -95q0 -118 -106 -217q-61 -57 -108 -68q-5 -1 -10 -1q-19 0 -20 18q0 19 26 50q36 43 41 85q1 8 1 17q0 66 -40 95q-17 13 -37 13q-79 0 -232 -193l-189 -249 q-25 -30 -43 -48q-12 -13 -26 -13z" />
<glyph unicode="O" d="M-696 -614q-13 0 -93 81q-60 61 -60 72q0 14 77 92q63 63 76 63q12 0 90 -78q63 -63 63 -76q0 -18 -90 -103q-54 -51 -63 -51z" />
<glyph unicode="P" d="M-515 1105q165 0 257 74l55 45q19 14 39 14q21 0 21 -19q0 -33 -62 -97q-105 -110 -254 -155q-45 -14 -91 -20q-35 -5 -92 -5q-130 0 -330 44q-199 43 -295 52q-56 5 -111 5q-149 0 -245 -74l-55 -44q-20 -13 -37 -13q-18 0 -19 19q0 38 56 92q152 150 339 177 q49 6 103 6q131 0 341 -45q202 -44 293 -52q45 -4 87 -4z" />
<glyph unicode="Q" horiz-adv-x="1345" d="M937 1l-357 9q-167 0 -200 -6h-6v-5q-30 -500 -122 -712q-32 -76 -82 -142q-72 -97 -145 -145q-33 -22 -54 -22q-18 0 -18 17q0 24 56 98q29 40 36 54q116 255 123 1190q1 73 1 155q0 512 28 713q11 80 31 163q62 244 240 393q55 46 88 46q17 0 17 -16q0 -30 -26 -59 q-41 -46 -59 -83q-65 -127 -88 -416q-13 -159 -13 -484v-146l17 16q131 129 282 204q130 65 241 65q149 0 239 -105q74 -88 74 -212q0 -186 -177 -375h24h16q150 0 221 51q35 24 41 27q11 4 22 4q20 0 20 -19q0 -38 -58 -99q-139 -148 -345 -158q-4 0 -67 -1zM383 184 q158 20 333 21l134 -3q114 0 143 57q29 60 29 129q0 126 -86 207q-79 75 -198 75q-102 0 -223 -77q-48 -31 -68 -55q-56 -68 -61 -201l-4 -150q0 -3 1 -3z" />
<glyph unicode="R" d="M-796 1089q-27 0 -32 25q-1 4 -1 9q0 20 37 69l66 86q225 300 311 384q33 32 70 32q46 0 63 -40q6 -14 6 -30q0 -34 -26 -68q-67 -87 -365 -365q-91 -86 -102 -93q-13 -9 -27 -9z" />
<glyph unicode="S" horiz-adv-x="1935" d="M1339 608q-38 0 -73 26q-39 28 -75 34q-17 2 -39 2q-64 0 -76 -24q-29 -62 -30 -141q0 -140 95 -231q58 -57 129 -70q10 -2 35 -2q131 0 240 77q38 27 52 115q2 15 2 23l1 190v2q3 539 60 765q24 91 61 162q63 122 164 212q67 59 101 59q20 0 18 -20q-3 -31 -32 -64 q-46 -54 -69 -107q-61 -147 -78 -476q-8 -186 -8 -610q-3 -71 -14 -566q-7 -344 -39 -502q-13 -61 -31 -114q-52 -154 -172 -279q-87 -84 -135 -91q-18 0 -18 17q0 28 27 60q45 52 66 98q44 94 65 260q22 171 24 494q1 191 5 282v16q-95 -95 -224 -158t-248 -63 q-112 0 -196 86q-56 57 -83 140q-201 -201 -434 -224q-25 -2 -49 -2q-138 0 -222 121q-49 71 -61 156q-4 28 -4 57q0 191 167 374l29 30q167 167 324 167q124 0 151 -81q6 -18 6 -37v-9q0 -62 -52 -110q-46 -44 -107 -44q-37 0 -72 26q-39 28 -75 34q-17 2 -37 2 q-41 0 -78 -15q-38 -70 -38 -153q0 -141 94 -231q72 -69 158 -69q102 0 195 44q38 18 49 34q25 36 45 117q16 66 32 103q51 124 166 235q147 143 289 153h19q150 0 160 -107v-14q0 -44 -31 -90q-45 -69 -129 -69z" />
<glyph unicode="T" d="M-780 1307q0 12 77 90q64 63 76 63q17 0 99 -87q55 -57 55 -66q0 -15 -82 -95q-61 -59 -72 -59q-14 0 -93 82q-60 61 -60 72z" />
<glyph unicode="U" d="M-678 1574q-16 0 -16 20q0 31 50 91q83 101 187 125q14 3 28 5h25q90 0 137 -69q29 -43 29 -104q0 -146 -164 -285q-27 -24 -58 -45q-87 -61 -256 -157q-95 -54 -109 -54q-23 5 -27 25q0 21 39 52l159 121l101 83q77 65 104 102q31 43 31 81q0 47 -53 66q-24 9 -53 9 q-53 0 -97 -37q-31 -26 -47 -28q-4 -1 -8 -1h-2z" />
<glyph unicode="V" d="M-452 1089q-29 7 -33 35q0 28 203 286q152 194 211 252q32 32 70 32q45 0 63 -40q7 -14 7 -31q0 -34 -27 -67q-67 -87 -365 -365q-91 -86 -102 -93q-13 -9 -27 -9z" />
<glyph unicode="W" horiz-adv-x="1978" d="M877 10q-253 0 -451 -12q-28 -2 -52 -2q-28 -502 -130 -726q-31 -67 -74 -125q-72 -97 -145 -145q-33 -22 -54 -22q-18 0 -18 17q0 24 56 98q29 40 36 54q116 255 123 1190q1 73 1 155q0 512 28 713q11 80 31 163q62 244 240 393q55 46 88 46q17 0 17 -16q0 -30 -26 -59 q-41 -46 -59 -83q-65 -127 -88 -416q-13 -156 -13 -475v-138l22 22q240 235 442 246h16q116 0 198 -90q59 -65 85 -169l27 27q146 143 291 202q77 31 143 31q112 0 189 -85q80 -87 80 -219q0 -156 -148 -341q-19 -25 -40 -48h26q168 0 208 34q57 48 88 48q20 0 20 -19 q0 -60 -113 -150q-61 -47 -105 -67q-96 -42 -271 -41q-34 1 -38 1l-432 6q-60 2 -198 2zM940 367q0 105 -62 194q-64 90 -162 107q-12 2 -39 2q-85 0 -181 -69q-13 -9 -22 -17q-75 -67 -86 -225l-6 -173v-5q66 11 283 15q188 3 241 22q34 75 34 149zM1661 407q0 117 -75 194 q-68 69 -170 69q-53 0 -121 -36q-48 -25 -74 -60q-34 -46 -78 -150q-54 -125 -116 -206l-10 -13h76l381 -7q129 0 168 92q19 46 19 117z" />
<glyph unicode="X" horiz-adv-x="1998" d="M311 1012q0 -15 -17 -48q-5 -8 -5 -13q0 -32 25 -64q3 -5 5 -6q53 -35 673 -35q471 0 642 11q19 1 33 2l1 34q11 301 50 457q56 225 207 376q80 76 124 81q18 0 18 -17q0 -29 -48 -88q-29 -35 -36 -48q-79 -145 -95 -585q-5 -128 -6 -291q0 -194 -2 -248q0 -210 -13 -646 q-5 -152 -9 -200q-26 -282 -108 -442q-61 -120 -165 -211q-63 -53 -96 -53q-17 0 -17 17q0 28 27 60q44 51 64 94q46 94 67 264q18 146 21 339q5 337 8 453q-98 -98 -232 -161q-128 -60 -248 -60q-119 0 -202 99q-43 51 -68 124l-89 -74q-73 -56 -147 -90q-124 -59 -250 -59 t-207 97q-73 87 -73 210q0 182 164 372q-61 0 -130 17q-30 7 -40 15q-22 18 -36 63q-6 21 -6 41q0 72 78 156q62 66 109 75q5 1 10 1q19 0 19 -19zM1110 507q0 -133 81 -223q74 -82 178 -82q102 0 200 51q42 22 55 41q44 67 41 229q-1 44 -1 49q0 109 -1 109l-75 -11 q-108 -10 -321 -16q-79 -1 -128 -9q-29 -58 -29 -138zM799 652q-237 0 -258 1q-125 0 -141 -25q-38 -69 -38 -151q0 -128 87 -211q54 -51 121 -62q9 -2 34 -2q123 0 218 58q38 23 42 25q16 16 27 79q21 111 61 186q24 46 60 91q7 9 7 10z" />
<glyph unicode="Y" d="M-284 1486q0 61 -40 89q-17 12 -37 12q-80 0 -254 -222l-168 -219q-21 -26 -34 -38q-10 -9 -24 -9q-20 0 -24 20q-1 3 -1 6q0 12 22 49l52 90q138 239 229 344q138 157 270 157q131 0 172 -100q13 -32 13 -68q0 -118 -105 -218q-60 -57 -105 -67q-5 -1 -9 -1h-6 q-19 0 -19 16q0 19 25 49q36 44 42 88q1 10 1 22z" />
<glyph unicode="Z" horiz-adv-x="1357" d="M739 846q213 0 280 7q5 0 5 3l2 40q10 305 52 467q58 217 205 363q81 76 124 81q18 0 18 -17q0 -28 -26 -58q-44 -52 -65 -98q-70 -151 -87 -494q-6 -109 -7 -362q0 -391 -14 -861q-5 -169 -11 -233q-24 -278 -105 -439q-61 -122 -167 -214q-63 -53 -96 -53q-17 0 -17 17 q0 22 39 75q56 77 75 130q46 139 58 405l15 613q-1 0 -49 -40q-234 -194 -486 -194q-149 0 -239 105q-75 88 -75 213q0 164 138 331l20 23h-6q-79 0 -152 25q-18 6 -28 13q-32 22 -44 83q-2 11 -2 19q0 68 74 151q63 71 113 82q7 2 13 2q19 0 19 -19q0 -15 -19 -50 q-5 -10 -5 -15q0 -30 26 -61q4 -6 8 -8q60 -33 416 -32zM386 484q0 -125 88 -208q78 -74 189 -74q125 0 249 59q64 30 79 55q35 57 32 193q-1 33 -1 42q0 127 -2 127l-87 -15q-105 -12 -307 -12q-111 0 -163 -11q-21 -4 -41 -11q-35 -74 -36 -139v-6z" />
<glyph unicode="[" d="M-1056 1018q0 44 67 102q50 42 74 42q5 0 45 -14q27 -10 56 -15t152 -5h106h130h110q57 5 107 27q13 6 21 6q4 1 8 1q18 0 18 -17q0 -49 -61 -100q-79 -65 -201 -79q-15 -2 -248 -2q-245 0 -291 8q-30 5 -76 25q-15 12 -17 21z" />
<glyph unicode="\" horiz-adv-x="1062" d="M737 533q71 0 112 33q27 22 41 25q8 2 17 2q18 0 18 -18q0 -32 -50 -87q-86 -95 -205 -115q-26 -4 -53 -4q-60 0 -187 27q-90 19 -142 19h-17q-54 0 -93 -32q-29 -24 -47 -27q-6 -1 -13 -1q-17 0 -17 17v4q0 30 49 84q88 95 208 115q26 5 52 5q40 0 206 -31 q89 -16 121 -16z" />
<glyph unicode="]" horiz-adv-x="1099" d="M680 202q172 0 282 84l69 55q25 17 48 17q16 0 17 -16q0 -33 -63 -105q-111 -129 -272 -198q-123 -52 -252 -55h-12q-137 0 -237 82q-57 47 -93 117q-38 76 -38 161q0 109 61 214q70 122 192 216q20 16 40 29q128 86 259 86q133 0 206 -54q57 -43 55 -112 q-3 -89 -79 -132q-38 -21 -79 -21q-44 0 -83 31q-45 36 -72 47q-53 22 -138 22q-60 0 -119 -25q-24 -57 -24 -114q0 -155 121 -255q90 -74 211 -74z" />
<glyph unicode="^" d="M-1226 1100q-25 0 -25 25q0 13 12 30l168 217q105 134 166 196q193 199 349 199q98 0 148 -69q29 -41 29 -93q0 -91 -80 -185q-70 -83 -144 -100q-12 -3 -22 -3q-25 0 -25 18q0 13 29 47q49 60 52 115v11q0 60 -37 82q-14 9 -34 9q-54 0 -149 -84q-62 -54 -212 -208 l-143 -144q-60 -58 -71 -62q-4 -1 -11 -1z" />
<glyph unicode="_" horiz-adv-x="870" d="M44 43l-374 -7q-24 0 -27 10q-1 3 -1 9q0 50 79 119q56 49 87 55q87 5 314 9h52l168 2q479 -11 545 -327q8 -38 8 -76q0 -131 -98 -271q-102 -146 -251 -211q-89 -39 -180 -39q-93 0 -180 45q-111 58 -143 170q-8 29 -8 56q0 81 78 178q64 79 120 96q10 3 19 3 q19 0 19 -19q0 -22 -24 -55q-17 -25 -17 -43q0 -75 65 -144q90 -93 230 -93q67 0 121 25q16 7 20 13q23 33 32 100q2 17 2 33q0 127 -87 224q-73 82 -184 109q-102 24 -284 29h-44h-57z" />
<glyph unicode="`" horiz-adv-x="667" d="M60 598q0 38 68 111q98 105 213 145q38 14 73 17h21q78 0 100 -100q2 -12 4 -26q1 -9 1 -42q0 -336 -17 -421q-10 -51 -45 -109q-58 -94 -140 -155q-45 -34 -71 -34q-18 0 -18 17q0 26 21 51q31 38 41 89q4 24 6 55q5 72 5 331q-8 118 -73 126q-55 0 -100 -37 q-34 -28 -50 -33q-10 -3 -21 -3q-18 0 -18 18z" />
<glyph unicode="a" horiz-adv-x="1294" d="M417 -16q-140 0 -234 100q-91 98 -91 241q0 136 106 289q104 149 247 224q83 43 164 50h32q151 -4 154 -120q0 -101 -92 -143q-36 -17 -65 -17q-40 0 -74 26q-38 27 -71 33q-19 3 -44 3q-96 0 -112 -36q-26 -59 -26 -127q0 -109 69 -198q21 -26 45 -45q79 -62 174 -62 q116 0 242 58q70 32 85 57q33 57 31 181v22q0 139 125 269q70 73 127 95q12 5 19 5q17 0 17 -19q-2 -27 -42 -78q-22 -29 -25 -41q-5 -20 -5 -232l-6 -254q0 -557 -43 -784q-17 -89 -43 -158q-56 -148 -172 -263q-80 -80 -125 -82q-18 0 -18 19q0 26 26 57q45 53 67 102 q65 143 80 448q4 70 10 488q2 73 3 126l-66 -55q-223 -175 -458 -179h-11z" />
<glyph unicode="b" horiz-adv-x="2037" d="M90 799q0 70 77 154q62 67 109 77q6 1 11 1q19 0 19 -19q0 -22 -18 -49q-3 -4 -4 -7q6 -53 29 -74q2 -2 4 -3q66 -33 687 -33q826 0 904 36q4 2 6 4q45 37 76 37q19 0 19 -19q0 -48 -108 -146l-4 -4q-15 -31 -19 -142q-1 -9 -1 -16q0 -96 29 -311q11 -75 11 -103 q0 -33 -64 -104q-73 -82 -125 -93q-7 -1 -12 -1q-14 0 -18 20l-26 218l-15 -14q-221 -208 -446 -223q-15 -1 -29 -1q-135 0 -219 110q-36 48 -59 113q-107 -107 -247 -169q-121 -54 -238 -54q-124 0 -206 97q-74 88 -74 211q0 180 156 361q7 7 7 9q0 1 -19 3q-60 0 -121 17 q-27 8 -35 17q-25 27 -34 74q-3 14 -3 26zM1659 443q10 155 57 235q-12 -12 -359 -22q-44 -2 -70 -2q-140 -2 -151 -10q-3 -2 -5 -8q-26 -58 -26 -129q0 -141 94 -233q59 -57 131 -70q9 -2 33 -2q109 0 205 54q39 21 52 40q33 50 39 147zM358 477q0 -124 79 -205 q68 -70 163 -70q115 0 217 54q29 16 43 30q18 18 27 72q15 97 49 166q29 61 79 127h-191l-264 2q-140 0 -159 -19q-3 -2 -5 -6q-38 -70 -38 -151z" />
<glyph unicode="c" horiz-adv-x="1361" d="M757 846q111 0 247 6q11 1 21 1l2 38q10 306 49 462q57 224 212 378q78 77 120 77q18 0 18 -18q0 -27 -26 -57q-45 -53 -66 -101q-60 -129 -80 -395q-15 -192 -15 -650q0 -220 23 -349q6 -33 6 -56q0 -33 -63 -104q-73 -81 -125 -93q-7 -1 -12 -1q-14 0 -18 18q0 2 -1 8 q-18 113 -25 211v4q-266 -228 -505 -240q-18 -1 -37 -1q-148 0 -238 103q-77 88 -77 214q0 173 158 355h-5q-130 10 -175 37q-51 31 -51 102t77 155q62 69 112 79q6 2 11 2q19 0 19 -20q0 -15 -19 -49q-6 -11 -6 -16q0 -23 20 -53q8 -10 15 -15q55 -33 417 -32h17zM385 485 q0 -129 88 -210q78 -73 195 -73q80 0 186 35q121 40 145 95q18 39 21 94q3 50 3 226q0 26 -2 26l-81 -14q-104 -13 -315 -13q-141 0 -188 -17q-13 -5 -16 -6q-33 -72 -35 -127q-1 -8 -1 -16z" />
<glyph unicode="d" horiz-adv-x="1294" d="M633 609q-40 0 -75 25q-38 28 -73 34q-17 2 -39 2q-52 0 -107 -22q-31 -69 -32 -125q-1 -7 -1 -13q0 -112 70 -201q21 -26 45 -45q79 -62 174 -62q134 0 253 60q58 29 75 55q33 51 36 258l1 340q10 408 114 619q19 38 41 72q66 100 148 163q48 39 76 39q18 0 18 -18 q0 -29 -27 -60q-42 -49 -62 -89q-62 -127 -83 -404q-14 -199 -14 -655q0 -217 23 -345q6 -33 6 -55q0 -33 -64 -104q-72 -81 -125 -93q-7 -1 -12 -1q-14 0 -17 16q-1 2 -2 10q-17 115 -25 215q-192 -165 -359 -214q-92 -27 -190 -27q-105 0 -195 71q-27 21 -45 45 q-78 99 -78 226q0 158 126 318q109 138 252 205q86 40 161 40q164 0 164 -122q0 -87 -82 -136q-23 -14 -42 -19q-12 -3 -34 -3z" />
<glyph unicode="e" horiz-adv-x="1353" d="M918 1l-393 9q-200 0 -345 -21q-36 -5 -61 -5q-16 0 -16 17q0 32 20 53q26 28 35 61q10 32 13 82q3 40 3 370q0 247 8 394q15 293 62 446q57 185 197 324q77 77 120 77q18 0 18 -18q0 -34 -66 -111q-12 -13 -14 -17q-105 -181 -105 -815q-1 -73 -1 -188l-1 -55l21 20 q115 115 254 189q141 75 261 75q149 0 238 -105q75 -88 75 -211q0 -171 -149 -346l-28 -30h24h17q156 0 196 34q56 48 87 48q20 0 20 -19q0 -60 -113 -150q-61 -47 -105 -67q-78 -33 -191 -39q-36 -2 -81 -2zM1023 388q0 128 -87 209q-79 73 -197 73q-100 0 -212 -69 q-52 -33 -73 -61q-46 -63 -61 -156q-16 -97 -24 -125q-11 -37 -30 -73l33 3q160 16 312 16l162 -4q68 0 122 28q40 20 53 131q2 18 2 28z" />
<glyph unicode="f" horiz-adv-x="1941" d="M1342 608q-36 0 -72 26q-40 29 -78 34q-16 2 -35 2q-62 0 -75 -18q-3 -4 -8 -16q-26 -60 -26 -131q0 -139 94 -231q59 -57 130 -70q10 -2 34 -2q102 0 201 51q43 22 56 41q33 49 38 147l6 414q0 21 1 42q10 305 51 464q57 221 210 370q78 77 120 77q17 0 17 -18 q0 -29 -26 -60q-43 -49 -62 -90q-62 -127 -83 -403q-15 -192 -15 -655q0 -217 23 -345q6 -33 6 -55q0 -34 -63 -104q-72 -80 -125 -92q-7 -2 -13 -2q-30 0 -40 176q-2 29 -2 46l-1 6q-249 -228 -480 -228q-131 0 -215 105q-41 51 -64 121q-201 -201 -433 -224q-26 -2 -50 -2 q-138 0 -222 121q-49 70 -61 156q-4 28 -4 57q0 156 121 320q104 139 240 208q83 42 155 42q161 0 161 -121q0 -49 -33 -95q-44 -63 -125 -63q-41 0 -76 26q-37 27 -72 32q-18 3 -39 3q-63 0 -78 -20q-3 -5 -7 -14q-29 -64 -29 -134q0 -125 79 -216q7 -8 14 -15 q71 -69 159 -69q108 0 199 46q36 18 47 35q19 29 41 111q31 119 84 201q40 61 100 122q136 139 258 164q32 7 66 7q154 -8 160 -116q0 -86 -66 -134q-42 -30 -93 -30z" />
<glyph unicode="g" horiz-adv-x="1966" d="M1857 182q0 -50 -85 -127q-69 -62 -109 -70q-3 -1 -6 -1q-14 0 -19 20l-17 154q-7 60 -8 61v3l-15 -14q-209 -197 -426 -221q-25 -3 -49 -3q-195 0 -279 226l-16 -15q-206 -196 -433 -211q-16 -1 -31 -1q-149 0 -234 136q-11 17 -20 36q-36 74 -36 159q0 152 118 317 q103 141 236 213q67 39 141 44h13q136 0 163 -72q8 -21 8 -48q0 -61 -47 -111q-46 -48 -110 -48q-10 -1 -14 -1q-29 0 -61 25q-41 30 -82 36q-14 1 -30 1q-72 0 -85 -28q7 16 -4 -8q-28 -63 -28 -133q0 -142 97 -232q62 -59 134 -66q8 -1 22 -1q101 0 196 44q30 14 43 27 q24 24 42 97q29 112 62 176q48 92 134 178q160 160 304 164h12q162 0 162 -122q0 -86 -83 -135q-23 -14 -43 -19q-11 -3 -33 -3q-40 0 -74 26q-37 27 -71 32q-17 3 -38 3h-12q-77 0 -93 -81q-7 -30 -7 -81q0 -144 95 -235q58 -56 129 -69q10 -2 35 -2q106 0 203 52 q40 21 52 40q35 51 40 130q6 97 13 130q5 26 13 51q25 76 93 163q74 93 146 118q7 2 16 2q17 0 17 -17q0 -21 -22 -52q-39 -52 -51 -120q-7 -46 -7 -106q0 -95 28 -302q11 -79 11 -109z" />
<glyph unicode="h" horiz-adv-x="1316" d="M418 -16q-143 0 -238 103q-90 99 -90 239q0 153 126 315q105 135 239 203q71 36 152 44h30q136 0 154 -94q2 -12 2 -25q0 -62 -48 -113q-46 -48 -111 -48q-38 0 -73 25q-39 29 -75 34q-18 3 -39 3q-90 0 -109 -31q-4 -5 -13 -29q-17 -48 -17 -101q0 -107 66 -194 q70 -94 184 -111q17 -2 41 -2q79 0 185 34q119 39 146 94q17 34 24 123q9 117 39 188q39 89 123 173q75 74 119 74q17 0 17 -17q0 -21 -22 -52q-39 -52 -51 -120q-7 -46 -7 -106q0 -88 29 -308q10 -76 10 -102q0 -52 -86 -129q-68 -62 -108 -69q-3 -1 -6 -1q-13 0 -17 15 q-2 6 -20 159l-8 71l-1 5q-273 -250 -547 -250z" />
<glyph unicode="i" horiz-adv-x="1224" d="M111 335q0 176 150 343q124 138 289 206q97 39 180 39q190 0 301 -118q93 -100 93 -242q0 -180 -157 -430q-29 -44 -62 -92l-283 -403q-121 -183 -132 -277q-1 -13 -1 -26q0 -55 34 -96q15 -17 15 -25q0 -34 -63 -105q-72 -83 -126 -95q-7 -1 -13 -1q-21 0 -44 47 q-22 47 -22 92q0 139 173 402q34 52 208 297q93 131 141 211q114 191 114 317q0 122 -85 215q-75 82 -193 105q-32 6 -68 6q-68 0 -139 -22q-54 -17 -65 -40q-27 -54 -27 -124q0 -86 39 -138q28 -38 33 -50q8 -19 8 -44q0 -81 -72 -130q-43 -29 -87 -29q-98 0 -128 119 q-11 41 -11 88z" />
<glyph unicode="j" horiz-adv-x="1976" d="M665 699q-97 9 -200 10q-210 0 -297 -63l-42 -31q-16 -9 -34 -9t-18 19q1 40 73 115q13 13 27 26q131 120 294 148q73 13 175 13q148 0 464 -39q308 -38 454 -38q206 0 291 63l41 32q15 9 34 9q18 0 18 -17q0 -45 -82 -127q-47 -47 -100 -82q-124 -83 -311 -94 q-36 -2 -78 -2q-132 0 -434 35l-155 19l-18 -15q-221 -197 -304 -365q-63 -128 -63 -259q0 -249 164 -423q143 -153 360 -196q71 -15 144 -15q163 0 307 68q69 33 123 79q53 46 105 132q63 104 63 186q0 61 -33 105q-27 34 -32 53q-4 14 -4 32q0 102 94 145q35 16 64 16 q85 0 115 -82q14 -38 14 -91q0 -168 -198 -417q-82 -102 -156 -169q-305 -275 -645 -275q-251 0 -442 142q-176 130 -236 334q-26 87 -26 179q0 331 347 708q58 63 126 128q11 11 11 13z" />
<glyph unicode="k" horiz-adv-x="1224" d="M732 1607q0 51 85 129q75 63 115 71q20 0 41 -40q23 -42 23 -96q0 -116 -145 -334q-67 -102 -185 -256q-208 -272 -264 -393q-39 -85 -39 -161q0 -147 117 -243q83 -67 185 -80q13 -2 41 -2q95 0 171 35q16 7 29 15q15 9 28 77q7 33 7 60q0 86 -40 138q-27 35 -32 46 q-9 20 -9 47q0 58 46 108q47 51 114 51q68 0 107 -64q32 -53 32 -142q0 -142 -113 -296q-114 -156 -281 -235q-121 -58 -242 -58q-39 0 -80 7q-47 -56 -77 -174q-21 -80 -21 -154q0 -139 100 -235q101 -96 248 -96q98 0 176 39q15 8 20 10q20 20 31 90q4 25 4 46 q0 87 -40 139q-28 36 -32 47q-9 20 -9 47q0 77 68 126q45 33 91 33q81 0 117 -80q22 -50 22 -126q0 -170 -145 -338q-108 -126 -246 -193q-117 -58 -237 -58q-174 0 -284 111q-102 102 -102 251q0 281 210 531q12 14 12 16l-40 20q-31 20 -66 56q-98 100 -98 244 q0 176 189 451q48 71 218 293q156 203 199 300q27 61 27 106q0 49 -32 89q-14 17 -14 25z" />
<glyph unicode="l" horiz-adv-x="1257" d="M228 636q0 36 66 107q92 100 194 133q27 10 58 12q4 1 13 1q104 0 165 -74q6 -7 11 -15q7 -10 147 -276l118 -226q52 -89 98 -110q21 -10 47 -10q28 0 69 36t64 41q7 1 14 1q19 0 19 -21q0 -36 -68 -109q-92 -98 -190 -131q-35 -11 -65 -11q-96 0 -151 93q-11 18 -97 180 l-91 171l-19 -26q-90 -128 -110 -154q-206 -264 -364 -264q-54 0 -98 54q-20 24 -19 35q5 55 92 132q69 61 109 66q9 0 36 -29q36 -40 62 -40q10 0 27 3l14 18q85 112 203 284q14 21 14 22l-51 94q-42 62 -122 70q-9 1 -18 1q-36 0 -80 -37q-40 -34 -61 -39q-7 -1 -14 -1h-5 q-17 0 -17 19z" />
<glyph unicode="m" horiz-adv-x="1912" d="M644 928q159 0 447 -38q289 -38 442 -40h26q203 0 291 64l42 32q15 8 33 8t18 -17q0 -41 -71 -116q-64 -67 -142 -112q-133 -77 -359 -77q-154 0 -531 48q-88 11 -112 12q-104 -57 -153 -103q-98 -95 -98 -220q0 -162 130 -266q133 -106 337 -108h6q91 0 211 29 q127 30 226 30h7q286 0 356 -161q19 -45 19 -97q0 -129 -98 -275q-80 -119 -198 -215q-148 -120 -294 -143q-20 -3 -55 -3q-209 0 -282 91q-21 27 -21 48q0 34 60 104q72 84 128 96q8 1 14 1q10 0 20 -19q21 -43 56 -63q35 -21 92 -31q50 -8 117 -8q85 0 148 35q20 11 34 25 q49 49 60 149q1 13 1 24q0 147 -168 201q-76 24 -170 24q-93 0 -218 -29q-134 -30 -231 -30q-238 0 -379 123q-127 111 -127 285q0 245 319 519q-28 4 -129 4q-197 0 -281 -62l-42 -31q-16 -10 -35 -10q-18 0 -18 16q0 46 77 122q11 11 23 22q122 112 270 144q85 18 202 18z " />
<glyph unicode="n" horiz-adv-x="1396" d="M320 656l-23 2h-1q-137 12 -167 40q-3 2 -5 5q-36 43 -36 94q0 69 77 153q62 69 110 80q6 1 12 1q19 0 19 -19q0 -16 -18 -50q-5 -9 -5 -14q0 -30 25 -60q5 -7 9 -9q60 -34 440 -33q449 0 518 42l31 25q11 6 31 9q5 1 9 1q20 0 20 -19q0 -43 -79 -118q-35 -34 -37 -40 q-17 -65 -17 -152q0 -95 29 -303q11 -78 11 -109q0 -32 -64 -104q-74 -82 -126 -93q-6 -1 -11 -1q-14 0 -19 20l-22 192l-4 38l-13 -11q-227 -209 -475 -236q-31 -3 -60 -3q-149 0 -240 103q-77 88 -77 213q0 139 103 288q28 41 55 68zM380 484q0 -68 38 -141 q74 -141 240 -141q123 0 244 57q64 31 82 58q27 42 29 89q8 170 51 256q5 10 5 12l-72 -11q-110 -10 -348 -12q-166 -1 -202 -11q-10 -3 -31 -11q-36 -76 -36 -145z" />
<glyph unicode="o" horiz-adv-x="1376" d="M658 877q82 0 173 -39l4 -2l1 6q0 230 55 450q46 184 123 299q88 132 178 192q28 18 50 24h9q16 0 16 -17q0 -25 -31 -63q-53 -67 -79 -123q-88 -187 -102 -570q-4 -89 -4 -307q-2 -230 -2 -259v-29q0 -126 20 -207l56 -11q101 -20 154 -20q150 0 225 52q35 24 43 27 q10 4 21 4q17 0 17 -18q0 -39 -74 -116q-83 -88 -173 -126q-94 -40 -240 -40q-65 0 -184 23q-77 15 -127 15q-45 0 -160 -22q-82 -16 -137 -16q-143 0 -247 93q-114 103 -115 268q0 135 103 279q103 145 248 212q90 41 179 41zM832 442q-49 158 -206 217q-50 19 -97 23 q-9 1 -26 1q-68 0 -130 -31q-28 -56 -28 -123q0 -78 43 -160q84 -158 274 -167h10q47 0 133 17l25 5l1 80q1 44 1 109v29z" />
<glyph unicode="p" d="M-354 1109q80 0 125 39q28 24 37 28q12 6 28 6q19 0 19 -20q0 -30 -48 -84q-89 -102 -222 -126q-35 -6 -71 -6q-66 0 -213 31q-116 24 -176 24q-88 0 -133 -39q-27 -24 -35 -28q-13 -5 -29 -5q-19 0 -19 20q0 28 46 82q89 103 219 127q35 6 70 6q77 0 218 -30 q117 -25 184 -25z" />
<glyph unicode="q" horiz-adv-x="1464" d="M1035 1l-371 9q-138 0 -171 -6h-6v-5q-31 -505 -126 -722q-22 -51 -51 -94q-70 -106 -153 -170q-46 -35 -74 -35q-17 0 -17 17q0 27 24 57q43 50 64 94q39 82 64 223q44 252 55 549q9 215 9 550q0 139 -35 171q-15 14 -38 14q-54 0 -97 -36q-34 -29 -50 -34 q-11 -4 -24 -4q-17 0 -17 19q0 40 76 119q77 80 162 121q71 33 132 33q70 0 96 -74q7 -20 12 -48v-73l1 -73l16 16q120 117 262 193q121 65 223 75l16 1h29q132 0 221 -94q85 -90 85 -223q0 -165 -145 -338l-32 -38l45 1q152 2 193 35q54 47 87 47q19 0 19 -20 q0 -33 -50 -92q-96 -112 -251 -149q-39 -9 -80 -13q-38 -3 -103 -3zM497 185q159 18 336 20l129 -3q73 0 119 27q12 7 16 14q37 65 37 148q0 105 -70 186q-71 82 -183 93q-11 1 -22 1q-112 0 -233 -79q-53 -34 -74 -63q-32 -44 -42 -94q-15 -72 -15 -247v-2q0 -1 2 -1z" />
<glyph unicode="r" horiz-adv-x="1984" d="M1503 2l-648 8q-364 0 -628 -21l-107 -5q-17 0 -17 19q0 29 19 50q28 29 38 67q8 31 11 77q3 40 3 370q0 247 8 394q15 293 62 446q57 185 197 324q77 77 120 77q18 0 18 -18q0 -34 -66 -111q-12 -13 -14 -17q-105 -181 -105 -841q-1 -88 -1 -179l-1 -20l25 25 q138 138 282 201q91 40 169 40q116 0 198 -90q59 -65 85 -169l27 27q146 143 291 202q77 31 143 31q112 0 189 -85q80 -87 80 -219q0 -177 -188 -389h27q169 0 207 34q55 48 88 48q20 0 20 -19q0 -31 -53 -92q-95 -108 -227 -146q-27 -8 -55 -12q-50 -7 -180 -7h-17z M941 365q0 115 -67 205q-62 82 -157 98q-12 2 -39 2q-79 0 -169 -61q-25 -17 -36 -30q-56 -65 -77 -180l-20 -118q-14 -56 -39 -98h3l518 23q44 5 53 20l11 27q19 52 19 112zM1662 409q0 122 -80 198q-67 63 -165 63q-53 0 -121 -36q-48 -25 -74 -60q-34 -46 -78 -150 q-54 -125 -116 -206l-10 -13h61l386 -7q129 0 160 59l7 15q30 64 30 137z" />
<glyph unicode="s" horiz-adv-x="1943" d="M78 320q0 150 118 312q102 141 234 212q69 39 143 44q5 1 24 1q137 0 157 -95q2 -13 2 -27q0 -63 -50 -113q-46 -46 -110 -46q-38 0 -72 25q-38 28 -72 34q-19 3 -41 3q-39 0 -77 -15q-38 -70 -38 -153q0 -106 61 -193q66 -96 171 -106q8 -1 20 -1q108 0 199 45 q37 19 47 35q28 44 45 119q20 90 58 157q12 21 27 43q76 113 182 194q103 78 202 92q10 1 33 1q154 0 163 -110v-11q0 -58 -45 -107q-46 -51 -111 -51q-10 -1 -14 -1q-30 0 -63 25q-39 30 -77 35q-13 2 -27 2h-10q-38 0 -71 -13q-36 -72 -36 -152q0 -142 96 -233 q57 -55 128 -68q10 -2 35 -2q133 0 240 77q58 41 56 211v30q0 108 71 204q24 32 61 71q70 74 122 91q9 3 16 3q17 0 17 -19q0 -24 -37 -72q-25 -32 -29 -47q-6 -22 -13 -608v-20q-5 -477 -47 -671q-14 -68 -37 -129q-55 -145 -171 -262q-81 -81 -127 -83q-18 0 -18 19 q0 22 40 76q53 70 69 115q65 179 72 662l5 345v10q-94 -94 -222 -157q-130 -64 -250 -64q-112 0 -196 86q-56 57 -83 140q-201 -201 -433 -224q-26 -2 -50 -2q-121 0 -204 98t-83 238z" />
<glyph unicode="t" horiz-adv-x="2095" d="M1589 1l-621 9q-333 0 -730 -26q-21 -1 -23 13q-1 2 -1 5q0 24 25 57q31 41 38 82q9 61 9 360q0 138 -58 151q-7 1 -14 1q-54 0 -99 -37q-34 -29 -50 -33q-11 -4 -22 -4q-18 0 -18 17q0 48 82 128q99 97 208 133q44 14 81 14q84 0 104 -101q5 -28 5 -92l-1 -56l25 25 q202 202 400 237q14 2 29 4h26q109 0 190 -86q62 -67 89 -173l27 27q130 130 267 192q90 41 167 41q100 0 176 -73q73 -69 90 -180q2 -16 2 -43q0 -192 -188 -397h27q168 0 208 34q54 46 87 48q20 0 20 -20q0 -32 -55 -94q-95 -107 -230 -144q-25 -7 -50 -11q-56 -8 -222 -8 zM1053 365q0 73 -37 153q-71 152 -226 152q-79 0 -168 -60q-26 -17 -38 -31q-54 -61 -74 -174l-22 -120q-14 -59 -39 -102h3l517 23q46 5 55 23l10 24q19 52 19 112zM1774 409q0 115 -74 191q-69 70 -171 70q-74 0 -153 -56q-16 -11 -26 -21q-36 -35 -79 -134 q-55 -128 -93 -187q-23 -35 -49 -67h62l385 -7q128 0 159 58q1 1 8 16q31 64 31 137z" />
<glyph unicode="u" horiz-adv-x="1298" d="M556 -19l-74 237q-16 0 -163 -105q-66 -47 -93 -71q6 -57 43 -83q18 -13 19 -22q0 -35 -62 -105q-71 -81 -125 -93q-7 -2 -13 -2q-27 0 -54 37q-26 35 -26 80q0 136 246 320q94 71 186 121q11 6 11 8l-55 144q-5 12 -7 12q-1 0 -4 -1h-4l9 7l-16 37q-45 106 -54 121 q-27 46 -75 52q-10 1 -23 1q-49 0 -87 -32q-29 -24 -48 -28q-7 -1 -15 -1q-19 0 -19 19q0 52 80 124q93 83 193 107q28 6 53 6q89 0 136 -82l52 -115l65 57q34 27 78 58q140 97 264 97q121 0 194 -83q59 -68 59 -166q0 -248 -267 -485q-113 -99 -261 -184 q-143 -84 -251 -185q-122 -114 -122 -246q0 -64 40 -134q71 -125 214 -125q34 0 77 14q84 78 122 78q17 0 17 -18q0 -37 -68 -113q-100 -111 -219 -157q-41 -15 -79 -20q-12 -2 -36 -2q-148 0 -233 125q-21 31 -33 61q-21 51 -21 108q0 114 91 264q117 193 340 350z M1009 446q0 121 -93 185q-63 43 -150 43q-65 0 -148 -37q-29 -13 -29 -18t22 -57q58 -136 137 -411l12 -44q101 65 170 135q11 11 17 19q56 70 62 173v12z" />
<glyph unicode="v" horiz-adv-x="2004" d="M312 1011q0 -14 -19 -48q-4 -8 -4 -12q0 -29 19 -57q10 -13 21 -17q86 -31 649 -31q311 0 446 3q227 4 244 10l2 35q10 305 50 462q56 222 211 375q78 77 120 77q18 0 18 -18q0 -29 -27 -60q-42 -49 -62 -89q-62 -127 -83 -404q-15 -192 -15 -650q0 -220 23 -349 q7 -33 7 -56q0 -33 -64 -104q-73 -81 -125 -93q-7 -1 -12 -1q-25 0 -33 119q-6 88 -10 103v6q-153 -129 -259 -178q-109 -50 -221 -50q-158 0 -243 145q-20 35 -35 78q-175 -153 -322 -198q-80 -25 -164 -25q-127 0 -208 98q-71 87 -71 211q0 146 105 296q23 34 52 67 q5 4 5 7q-60 0 -130 17q-29 7 -40 15q-22 18 -36 64q-7 22 -7 41q0 69 78 153q62 66 110 77q5 1 10 1q20 0 20 -20zM1666 593q0 88 -1 88l-75 -11q-108 -10 -321 -16q-111 -2 -125 -10q-5 -2 -7 -6q-27 -50 -27 -132q0 -139 94 -230q59 -59 131 -72q9 -2 33 -2q103 0 201 51 q43 22 56 41q26 36 33 92t8 207zM813 651l-260 2q-90 0 -133 -13l-14 -4q-30 -42 -40 -117q-3 -22 -3 -42q0 -120 74 -200q68 -75 169 -75q119 0 220 56q26 15 39 28q15 10 35 120q4 20 6 27q27 102 114 218h-207z" />
<glyph unicode="w" horiz-adv-x="2088" d="M38 579q-17 0 -17 19q0 40 76 119q77 80 162 121q71 33 132 33q85 0 105 -107q3 -15 3 -79l1 -65l23 23q158 154 310 215q61 26 126 30h12q151 0 234 -124q38 -56 58 -135l27 27q129 129 265 192q90 41 167 41q139 0 220 -125q24 -36 35 -72q15 -48 15 -102 q0 -185 -188 -395l43 1q154 2 193 35q55 47 86 47q20 0 20 -20q-2 -37 -55 -97q-101 -115 -263 -148q-31 -6 -63 -9q-40 -3 -121 -3l-661 9h-4q-245 -1 -492 -14q-2 -1 -6 -79q-10 -195 -57 -433q-36 -180 -110 -294q-37 -57 -95 -120q-71 -75 -122 -90q-8 -2 -14 -2 q-17 0 -17 17q0 27 24 57q43 50 64 94q39 82 64 223q44 252 55 549q9 215 9 550q0 139 -35 171q-15 14 -38 14q-54 0 -97 -36q-34 -29 -50 -34q-11 -4 -24 -4zM1052 365q0 136 -83 225q-75 80 -182 80q-86 0 -180 -70q-31 -24 -45 -43q-38 -53 -50 -116q-16 -77 -16 -233 l-1 -26h2q184 14 398 18q74 1 123 17q34 74 34 148zM1172 205l436 -7q107 3 138 79q26 59 28 128q0 106 -64 183q-59 71 -151 82q-9 1 -18 1q-98 0 -186 -73q-37 -30 -83 -135q-57 -131 -86 -178q-23 -38 -48 -69q-9 -9 -9 -11h43z" />
<glyph unicode="x" horiz-adv-x="2023" d="M95 798q0 71 75 154q62 68 111 78q6 1 11 1q20 0 20 -21q-2 -23 -23 -55v-8q0 -30 22 -55q12 -14 29 -18q107 -28 683 -28q573 0 754 15q113 10 132 25q48 37 76 37q19 0 19 -20q0 -35 -58 -99q-27 -29 -56 -50q-5 -5 -5 -7q-3 -15 -3 -76q0 -357 -15 -786 q-6 -173 -13 -238q-23 -237 -86 -372q-50 -108 -142 -205q-71 -75 -122 -90q-8 -2 -14 -2q-17 0 -17 17q0 31 26 60q39 45 57 77q65 121 86 406q9 118 14 511l2 128l1 28q-92 -92 -218 -155q-133 -66 -255 -66q-131 0 -215 108q-38 48 -62 115q-2 0 -46 -39 q-211 -184 -440 -184q-127 0 -207 99q-71 87 -71 209q0 174 143 347l13 15l6 8q0 2 -11 2q-112 7 -150 29q-51 29 -51 105zM1705 677q-183 -22 -439 -24q-122 0 -127 -11q-18 -23 -26 -98q-2 -19 -2 -37q0 -150 101 -241q57 -51 122 -62q14 -2 33 -2q105 0 203 52 q43 23 56 43q37 56 37 146q0 95 3 117q8 59 37 110l3 6zM363 478q0 -118 73 -199q70 -77 172 -77q121 0 214 58q37 23 42 25q17 23 30 90q21 109 68 191q24 42 58 85h-193l-262 2h-74q-75 -9 -86 -20q-4 -3 -15 -26q-27 -59 -27 -129z" />
<glyph unicode="y" horiz-adv-x="1464" d="M1030 1l-393 9q-214 0 -355 -22q-31 -4 -51 -4q-17 0 -17 18q0 24 25 57q31 41 38 82q10 59 10 380q-8 124 -73 132q-54 0 -99 -37q-34 -29 -50 -33q-11 -4 -22 -4q-18 0 -18 17q0 48 82 128q99 97 208 133q44 14 81 14q84 0 104 -101q5 -23 5 -102l-1 -64l21 20 q98 98 227 174q155 90 276 90q162 0 253 -108q72 -85 72 -207q0 -176 -157 -355l-19 -21v-1q0 -1 20 -1q176 0 215 35q53 46 87 48q21 0 21 -19q0 -34 -51 -93q-94 -112 -246 -148q-38 -10 -79 -13q-42 -4 -114 -4zM796 205l162 -4q68 0 122 28q40 20 53 129q2 18 2 29 q0 129 -88 210q-79 73 -197 73q-99 0 -213 -70q-52 -33 -72 -60q-47 -64 -61 -157q-15 -96 -23 -124q-11 -37 -30 -73l32 3q161 16 313 16z" />
<glyph unicode="z" horiz-adv-x="1376" d="M323 656q-10 2 -23 2h-1q-118 9 -160 37q-47 32 -47 101q0 68 76 153q62 70 112 81q6 1 11 1q20 0 20 -20q0 -18 -25 -58q7 -54 38 -74q43 -27 212 -31q70 -2 219 -2q457 0 508 39q49 38 78 38q18 0 18 -19q0 -36 -55 -97q-28 -30 -59 -53q-5 -5 -5 -7q-3 -15 -3 -76 q0 -330 -15 -766q-6 -191 -13 -258q-23 -237 -86 -372q-50 -108 -142 -205q-70 -75 -122 -90q-8 -2 -14 -2q-16 0 -18 15q0 31 27 61q41 47 60 84q55 108 77 330q19 191 23 706v36q0 8 -1 8q-2 0 -51 -40q-234 -194 -483 -194q-149 0 -239 106q-75 87 -75 211q0 174 158 355 zM383 484q0 -118 80 -200q79 -82 199 -82q127 0 249 60q62 30 78 56q31 49 30 139q-1 93 6 126q11 49 34 89l-2 1l-117 -13q-98 -7 -273 -8q-205 -1 -236 -17q-11 -6 -19 -21q-29 -58 -29 -130z" />
<glyph unicode="{" d="M-1735 1017q0 46 69 104q49 41 74 41q4 0 56 -11q68 -15 185 -22q23 -1 466 -1q449 0 527 6q63 4 154 24q19 4 25 4q18 0 18 -19q0 -29 -37 -73q-50 -61 -120 -75q-112 -23 -192 -27q-88 -4 -501 -4q-469 0 -564 9q-40 4 -148 26q-12 3 -12 18z" />
<glyph unicode="|" d="M-894 -636q-91 0 -135 76q-25 44 -25 101q0 151 159 311q61 62 213 184l73 59q27 23 38 25q3 1 7 1q24 0 25 -25q0 -23 -46 -73l-122 -130q-64 -72 -129 -153q-53 -67 -53 -116q0 -53 62 -65q13 -3 26 -3q61 0 124 52q43 32 55 34q15 -9 16 -28q0 -70 -79 -149 q-82 -82 -176 -99z" />
<glyph unicode="}" d="M-613 -613q-87 0 -132 73q-29 45 -29 105q0 153 164 309q52 50 202 166l71 56q30 24 42 24q29 0 29 -24q0 -21 -35 -58l-113 -117q-62 -68 -130 -150q-61 -74 -61 -124q0 -47 50 -64q17 -6 38 -6q62 0 126 53q37 30 51 32q16 0 16 -27q0 -71 -81 -149q-82 -80 -175 -97 q-12 -2 -33 -2z" />
<glyph unicode="~" horiz-adv-x="677" d="M62 598q0 38 75 116q99 103 201 141q43 16 78 16h20q70 0 96 -77q8 -24 8 -45v-138v-64q0 -785 -84 -1111q-49 -188 -150 -313q-20 -25 -46 -53q-71 -75 -122 -90q-8 -2 -14 -2q-17 0 -17 17q0 25 55 98q27 37 34 50q126 268 126 1296q0 121 -7 152q-10 41 -40 56 q-12 6 -25 6q-54 0 -97 -36q-34 -29 -50 -34q-11 -4 -24 -4q-17 0 -17 19z" />
<glyph unicode="&#xa1;" horiz-adv-x="784" d="M-334 -16l-273 -7q-26 0 -29 12q-1 3 -1 8q0 33 52 93q60 68 114 80l264 8h28q86 0 129 34q14 11 54 55q131 143 214 197q101 64 214 62q208 -4 307 -201q56 -109 61 -226v-12q0 -195 -138 -363q-106 -131 -244 -185q-65 -26 -122 -26q-66 0 -134 35q-114 60 -114 185 q0 87 81 187q63 79 119 98q11 3 21 3q20 0 20 -19q0 -22 -24 -55q-22 -32 -22 -60q0 -46 36 -96q59 -83 173 -83q86 0 115 49q8 14 19 45q19 59 19 127q0 87 -41 186q-76 184 -243 212q-28 4 -58 4q-73 0 -128 -51q-10 -8 -76 -82q-50 -54 -99 -95q-137 -114 -270 -119h-24z " />
<glyph unicode="&#xa2;" horiz-adv-x="1218" d="M217 728l-467 -10q-20 0 -20 18q0 34 49 92q42 49 92 74q24 12 98 12q172 1 303 8q40 1 75 1q157 0 213 -6q288 -29 385 -229q37 -75 37 -165q0 -138 -105 -280q-104 -141 -251 -203q-84 -36 -167 -36q-147 0 -248 90q-69 62 -83 140q-5 24 -5 44q0 82 81 179 q63 76 117 93q10 3 19 3q19 0 19 -21t-24 -55q-17 -24 -17 -41q0 -108 106 -179q88 -59 187 -59q69 0 124 25q15 7 19 13q33 45 34 133l-1 38q-17 126 -113 213q-79 70 -189 89q-113 19 -268 19z" />
<glyph unicode="&#xa3;" horiz-adv-x="905" d="M-377 172q156 0 290 -6q3 0 45 -1q121 244 310 393q182 145 364 145q101 0 151 -84q31 -53 31 -127q0 -98 -66 -208q-48 -81 -124 -145q-154 -131 -369 -161q-90 -13 -214 -13h-19l-17 -52q-95 -296 -170 -440q-103 -199 -268 -343q-168 -148 -311 -148q-103 0 -157 63 q-33 37 -33 88q0 61 69 132q63 60 107 63q20 0 20 -21q-1 -11 -1 -19q0 -58 61 -91q39 -20 88 -20q100 0 177 94q43 53 88 142q59 119 128 337q46 146 72 218q-236 9 -391 9q-108 0 -116 7q-4 3 -4 11q0 52 80 121q53 47 86 54q7 2 93 2zM620 327q0 101 -54 150 q-36 32 -89 32q-123 0 -208 -67q-12 -9 -22 -19q-67 -67 -127 -195q-29 -61 -29 -66q0 -2 81 -2q264 0 381 48q39 16 48 35q19 41 19 84z" />
<glyph unicode="&#xa5;" horiz-adv-x="1218" d="M-339 -672v-24q0 -85 104 -121q42 -14 77 -14q165 0 280 239q57 119 136 390q42 145 61 202q8 24 8 26q0 5 -339 9q-102 1 -207 1q-126 0 -135 7q-4 3 -4 12q0 33 48 90q54 62 117 85h163q195 0 411 -5l27 -1q117 234 297 384q188 155 376 155q101 0 152 -85 q33 -54 33 -129q0 -116 -85 -237q-55 -77 -139 -141q-143 -109 -338 -134q-75 -10 -190 -12l-38 -1l-46 -157q-87 -282 -158 -419q-91 -172 -254 -323t-329 -151q-119 0 -182 71q-41 46 -41 107q0 83 90 156q54 43 86 45q19 0 19 -25zM1072 394q0 101 -64 148q-35 26 -81 26 q-165 0 -270 -134q-58 -73 -107 -195q-7 -17 -7 -19h34q373 0 458 63q12 8 17 18q20 39 20 93z" />
<glyph unicode="&#xa6;" horiz-adv-x="2152" d="M739 846q213 0 280 7q5 0 5 3l2 40q10 305 52 467q58 217 205 363q81 76 124 81q18 0 18 -17q0 -30 -27 -62q-42 -48 -61 -85q-35 -69 -55 -182q-41 -228 -41 -613q-1 -73 -1 -187l-1 -54l16 15q156 153 321 222q105 44 199 44q144 0 237 -107q85 -98 85 -234 q0 -216 -225 -421q-146 -133 -292 -141q-15 -1 -35 -1q-116 0 -144 78q-6 19 -6 38v10q0 58 47 106t112 48q40 0 74 -26q36 -27 69 -33q19 -3 43 -3q52 0 106 23q32 65 32 139q0 132 -87 221q-83 85 -202 85q-116 0 -242 -87q-21 -14 -36 -27q-49 -43 -70 -138 q-4 -22 -6 -43q-6 -74 -6 -344q2 -345 -35 -535q-16 -80 -39 -148q-54 -161 -176 -283q-84 -81 -132 -87q-17 0 -17 17q0 22 39 75q56 77 75 130q46 139 58 405l15 613q-1 0 -49 -40q-234 -194 -486 -194q-149 0 -239 105q-75 88 -75 213q0 164 138 331l20 23h-6 q-79 0 -152 25q-18 6 -28 13q-32 22 -44 83q-2 11 -2 19q0 68 74 151q63 71 113 82q7 2 13 2q19 0 19 -19q0 -15 -19 -50q-5 -10 -5 -15q0 -30 26 -61q4 -6 8 -8q60 -33 416 -32zM386 484q0 -125 88 -208q78 -74 189 -74q125 0 249 59q64 30 79 55q35 57 32 193q-1 33 -1 42 q0 127 -2 127l-87 -15q-105 -12 -307 -12q-111 0 -163 -11q-21 -4 -41 -11q-35 -74 -36 -139v-6z" />
<glyph unicode="&#xa7;" horiz-adv-x="2082" d="M632 609q-39 0 -74 25q-38 28 -73 34q-18 2 -39 2q-51 0 -107 -22q-30 -68 -32 -124q-1 -7 -1 -15q0 -111 70 -200q21 -26 45 -45q79 -62 174 -62q118 0 242 57q69 31 85 57q23 38 27 92q4 43 4 203q3 538 61 763q23 91 60 162q63 122 164 212q66 59 100 59q18 0 18 -16 v-4q0 -24 -26 -55q-47 -57 -72 -116q-69 -169 -82 -534q-4 -89 -4 -234l-1 -187v-54l15 15q144 141 302 213q116 53 218 53q147 0 240 -110q82 -97 82 -231q0 -159 -127 -320q-108 -138 -251 -204q-63 -29 -121 -37q-18 -2 -53 -2q-136 0 -149 101q-1 12 -1 25q3 85 76 130 q40 24 83 24q40 0 74 -26q37 -27 70 -33q19 -3 42 -3q52 0 106 23q32 52 33 139q0 142 -103 233q-66 59 -147 71q-12 2 -40 2q-115 0 -240 -86q-22 -15 -37 -28q-49 -43 -70 -130q-6 -26 -7 -51q-4 -68 -8 -400q-4 -348 -45 -529q-12 -52 -27 -98q-50 -151 -168 -275 q-82 -87 -133 -94q-4 -1 -7 -1q-17 0 -17 17q0 28 27 60q44 52 65 97q45 94 66 261q18 139 21 313q5 359 8 468v25q-90 -90 -225 -156q-160 -79 -310 -79q-140 0 -234 100q-91 98 -91 241q0 140 109 294q105 147 247 221q95 49 184 49q155 0 163 -111q1 -5 1 -11 q0 -44 -32 -91q-45 -67 -128 -67z" />
<glyph unicode="&#xa8;" d="M-839 -425q0 80 71 162q75 88 167 101q13 2 26 2q72 0 120 -52q7 -8 13 -17q29 -42 29 -93q0 -94 -86 -179q-76 -74 -158 -84q-10 -1 -20 -1q-108 0 -149 99q-13 34 -13 62zM-544 -422q0 71 -57 109q-34 22 -79 22q-22 0 -26 -9q-2 -6 -2 -24q0 -65 52 -105 q36 -26 82 -26q10 0 27 3q3 15 3 30z" />
<glyph unicode="&#xa9;" d="M-528 -432q0 92 86 177q75 74 155 85q10 2 20 2q84 0 133 -64q33 -43 33 -99q0 -95 -88 -179q-75 -73 -156 -84q-10 -1 -20 -1q-50 0 -97 31q-66 45 -66 132zM-233 -434q0 71 -55 110q-34 24 -81 24q-23 0 -26 -9q-2 -5 -2 -20q0 -73 56 -111q33 -23 75 -23q16 0 30 2 q3 12 3 27z" />
<glyph unicode="&#xaa;" d="M-1106 1415q-16 0 -101 90q-53 55 -53 63t20 29l122 121q7 4 12 4q17 0 102 -90q53 -55 53 -64q0 -12 -72 -85q-67 -68 -83 -68zM-753 1718l13 4q12 0 42 -32l39 -40q70 -69 72 -76q1 -2 1 -6q0 -11 -72 -84q-67 -69 -83 -69t-100 88q-53 56 -53 65t20 29zM-1076 1307 q0 12 77 90q64 63 76 63q17 0 99 -87q55 -57 55 -66q0 -15 -82 -95q-61 -59 -72 -59q-14 0 -93 82q-60 61 -60 72z" />
<glyph unicode="&#xab;" horiz-adv-x="854" d="M169 1486q40 91 127 155q48 36 73 36h1q12 0 15 -15t3 -129q0 -113 -16 -180q-42 -166 -188 -285q-54 -44 -85 -44q-17 0 -17 17q0 30 25 58q33 38 45 76q10 31 14 75q4 45 4 150zM683 1677q12 0 15 -15t3 -129q0 -104 -9 -153q-24 -126 -118 -236q-72 -84 -132 -112 q-17 -8 -29 -8q-18 0 -18 18q0 20 27 57q44 60 55 125q2 13 3 26q3 34 3 150v86q23 70 108 140q51 47 92 51z" />
<glyph unicode="&#xac;" horiz-adv-x="1044" d="M404 738q62 0 188 -27q98 -22 159 -22q65 0 105 34q27 23 41 27q8 2 18 2q20 0 20 -18q0 -33 -51 -89q-88 -95 -208 -115q-26 -5 -53 -5q-55 0 -153 20l-102 21q-52 8 -88 8q-71 0 -109 -33q-24 -22 -36 -26q-10 -3 -23 -3q-17 8 -19 19q0 32 51 88q88 96 208 115 q26 4 52 4zM749 376q68 0 109 34q26 23 40 26q9 3 19 3q18 0 18 -18q0 -31 -50 -86q-87 -97 -206 -118q-27 -5 -54 -5q-61 0 -182 27q-98 21 -163 22q-70 1 -111 -34q-26 -23 -39 -27q-8 -2 -18 -2q-18 6 -19 20q0 30 49 85q87 96 206 117q28 5 56 5q41 0 207 -31 q99 -18 138 -18z" />
<glyph unicode="&#xad;" d="M-840 1718l13 4q12 0 42 -32l39 -40q70 -69 72 -76q1 -2 1 -6q0 -11 -72 -84q-67 -69 -83 -69t-100 88q-53 56 -53 65t20 29zM-462 1415q-16 0 -101 89q-52 56 -52 64q0 9 19 29l122 121q7 4 12 4q16 0 99 -86q56 -58 56 -68q0 -12 -72 -85q-67 -68 -83 -68zM-798 1307 q0 11 77 89q64 64 77 64q16 0 100 -88q53 -56 53 -65q0 -15 -83 -96q-59 -58 -70 -58q-15 0 -97 85q-57 59 -57 69z" />
<glyph unicode="&#xae;" horiz-adv-x="1167" d="M437 2q-161 0 -268 102q-109 104 -109 267q0 123 97 257q35 48 81 93q187 185 382 185h3q170 0 285 -114q127 -126 127 -338q0 -189 -61 -379q-134 -424 -564 -859q-88 -90 -133 -90q-17 0 -17 17q0 36 65 108l125 135q163 185 258 397q93 209 107 418v9 q-144 -208 -378 -208zM817 281q0 167 -103 284q-102 115 -254 122q-10 1 -19 1q-73 0 -123 -22q-16 -7 -19 -14q-21 -37 -21 -106q0 -118 81 -211q75 -85 192 -109q31 -6 70 -6q70 0 121 23q46 21 75 29v9z" />
<glyph unicode="&#xaf;" d="M-752 1718l13 4q12 0 42 -32l39 -40q70 -69 72 -76q1 -2 1 -6q0 -11 -72 -84q-67 -69 -83 -69t-100 88q-53 56 -53 65t20 29zM-374 1415q-15 0 -98 86q-55 58 -55 67t20 29l121 121q7 4 13 4q15 0 98 -86q56 -58 56 -68t-69 -82q-69 -71 -86 -71zM-710 1307q0 11 76 88 q65 65 78 65q16 0 102 -90q52 -55 52 -63q0 -14 -82 -94q-61 -60 -72 -60q-15 0 -99 87q-55 58 -55 67z" />
<glyph unicode="&#xb0;" d="M-552 448q88 0 135 40q29 24 39 28q11 4 24 4q19 0 19 -19q0 -28 -46 -82q-88 -102 -218 -128q-35 -7 -72 -7q-73 0 -219 31q-118 25 -182 25q-81 0 -126 -39q-29 -24 -39 -28q-12 -5 -27 -5q-17 0 -17 18q0 32 49 87q89 101 223 125q34 5 68 5q67 0 213 -31 q116 -24 176 -24z" />
<glyph unicode="&#xb1;" horiz-adv-x="436" d="M61 1261q0 125 106 267q74 99 145 136q24 13 41 13t17 -18q0 -24 -31 -64q-42 -53 -53 -96q-6 -26 -6 -56q0 -115 81 -202l8 -8q1 -2 1 -7q0 -53 -88 -132q-74 -62 -114 -70q-16 0 -47 45q-60 87 -60 192z" />
<glyph unicode="&#xb2;" horiz-adv-x="436" d="M66 1481q0 32 64 103q73 81 125 91q5 2 10 2q18 0 50 -47q59 -85 59 -188q0 -147 -124 -292q-74 -87 -139 -118q-17 -8 -28 -8q-16 0 -17 17q0 27 31 65q40 51 51 90q8 28 8 62q0 115 -83 201q-7 8 -7 16v6z" />
<glyph unicode="&#xb3;" horiz-adv-x="1202" d="M261 210q-90 0 -114 91q-8 29 -8 68q0 189 183 372q171 171 346 186q14 1 27 1q188 0 296 -108q92 -92 92 -232q0 -322 -278 -663q-131 -161 -391 -400l-77 -70l78 5h28q83 0 190 -18l102 -17q44 -6 84 -6q111 0 215 81l71 56q28 19 48 19q17 0 17 -18q0 -43 -85 -130 q-116 -120 -261 -183q-100 -44 -187 -44q-52 0 -190 24q-110 18 -185 18q-106 0 -183 -19q-19 -5 -33 -5q-16 0 -16 17q0 54 155 201l302 277q104 98 166 171q203 239 211 498v24q0 132 -100 219q-98 85 -240 85q-74 0 -139 -33q-28 -57 -28 -124q0 -59 30 -100 q25 -34 29 -56q3 -12 3 -27q0 -100 -94 -143q-36 -17 -64 -17z" />
<glyph unicode="&#xb4;" d="M-1114 -153q-14 0 -95 84q-59 60 -59 70q0 9 72 84q67 69 82 69q16 0 100 -88q53 -56 53 -65q0 -14 -85 -97q-58 -57 -68 -57zM-766 -153q-14 0 -98 87q-56 58 -56 67q1 9 70 82q68 71 85 71q16 0 102 -92q51 -53 51 -61q0 -14 -85 -97q-59 -57 -69 -57z" />
<glyph unicode="&#xb5;" d="M-606 1560q0 12 79 91q62 62 74 62q17 0 101 -88q53 -56 53 -65q0 -15 -82 -95q-61 -59 -72 -59q-13 0 -92 80q-61 62 -61 74zM-258 1560q0 12 78 90q63 63 76 63q16 0 100 -88q53 -56 53 -65q0 -16 -87 -99q-57 -55 -66 -55q-15 0 -95 82q-59 60 -59 72zM-432 1307 q0 12 77 90q64 63 76 63q17 0 99 -87q55 -57 55 -66q0 -15 -82 -95q-61 -59 -72 -59q-14 0 -93 82q-60 61 -60 72z" />
<glyph unicode="&#xb7;" horiz-adv-x="487" d="M260 283q-15 0 -96 84q-57 59 -57 69v1q0 9 71 82q67 70 83 70q15 0 99 -88q54 -56 54 -65q0 -14 -84 -95q-60 -58 -70 -58z" />
<glyph unicode="&#xb8;" d="M-1282 365q0 46 69 103q50 41 75 41q4 0 33 -11q32 -12 85 -19q28 -4 286 -4l202 -1q84 4 160 31q12 4 19 4q17 0 18 -17q0 -33 -37 -76q-77 -88 -251 -104q-15 -1 -249 -1q-254 0 -303 8q-32 5 -80 22q-22 8 -25 14q-2 4 -2 10z" />
<glyph unicode="&#xb9;" horiz-adv-x="522" d="M101 175q0 32 63 102q73 82 125 93q6 1 11 1q28 0 63 -67q46 -87 46 -168q0 -130 -110 -274q-73 -96 -143 -132q-22 -12 -38 -12q-18 0 -18 18q0 24 31 63q41 52 52 93q7 28 7 59q0 118 -82 203q-7 7 -7 15v6z" />
<glyph unicode="&#xba;" horiz-adv-x="487" d="M259 22q-13 0 -94 83q-58 59 -58 70v1q0 9 71 82q67 70 83 70q15 0 99 -88q54 -56 54 -65q0 -14 -84 -96q-59 -57 -69 -57h-1h-1z" />
<glyph unicode="&#xbb;" horiz-adv-x="854" d="M169 -370q0 77 95 158q61 53 100 59q3 1 5 1q14 0 17 -12q2 -10 2 -131q0 -102 -9 -151q-27 -137 -134 -255q-78 -85 -132 -101q-8 -2 -14 -2q-17 0 -17 17q0 25 38 76q23 30 28 43q20 58 22 190v48q-1 55 -1 60zM483 -484v107q0 38 7 54q35 74 114 133q51 38 79 38 q13 0 16 -13q2 -11 2 -138q0 -178 -57 -281q-60 -106 -151 -179q-51 -41 -81 -41q-17 0 -17 17q0 22 23 51q39 50 53 113q12 57 12 139z" />
<glyph unicode="&#xbc;" horiz-adv-x="1009" d="M540 636q-3 -63 -2 -129v-2q-1 -153 -12 -208q-13 -66 -48 -124q-58 -94 -140 -155q-45 -34 -71 -34q-18 0 -18 17q0 26 21 51q31 38 41 89q4 24 6 55q5 72 5 331q0 102 -50 119q-15 6 -39 6q-37 0 -84 -37q-41 -32 -62 -35q-5 -1 -9 -1q-18 0 -18 18q0 39 73 115 q97 103 203 142l55 16q2 1 32 1q174 -18 397 -17q201 0 394 16l30 2q12 -11 13 -19q0 -33 -60 -101q-55 -63 -108 -89q-52 -24 -449 -27h-100z" />
<glyph unicode="&#xbd;" horiz-adv-x="600" d="M596 1808q18 0 18 -18q0 -28 -26 -58q-44 -52 -66 -98q-69 -151 -87 -494q-12 -217 -6 -557q4 -201 -14 -283q-24 -117 -118 -218l-19 -19q-69 -69 -114 -78q-5 -1 -9 -1q-17 0 -17 17q0 27 20 50q29 32 39 73q7 30 9 72q1 22 5 482q1 200 6 283q15 291 61 442 q57 188 198 328q77 77 120 77z" />
<glyph unicode="&#xbe;" horiz-adv-x="1202" d="M191 535q0 41 82 131q114 125 252 192q91 44 169 48q253 11 319 -123q18 -38 18 -83q0 -239 -268 -465l-27 -23h6q91 -10 164 -10q98 0 196 79l70 57q29 20 50 20q17 0 17 -17q0 -40 -79 -125q-114 -123 -253 -187q-93 -43 -175 -45h-18q-29 0 -197 13q-72 5 -124 5 q-79 0 -189 -15q-20 -3 -32 -3q-15 0 -16 18q0 31 52 93q76 93 160 109q182 31 315 98q80 40 100 78q29 57 29 134v12q0 72 -86 119q-79 43 -190 43q-104 0 -189 -74l-71 -65q-35 -28 -66 -30q-18 0 -19 16z" />
<glyph unicode="&#xbf;" horiz-adv-x="1357" d="M278 976q-78 0 -108 71q-14 35 -14 85q0 165 136 328q106 127 240 191q93 44 187 44q149 0 253 -91q111 -98 111 -253q0 -358 -346 -769l-25 -30q81 -16 165 -126l101 -139q67 -85 127 -85q75 0 147 62l54 47q29 21 54 21q19 0 19 -17q0 -38 -79 -122 q-110 -117 -237 -174q-77 -35 -142 -35q-80 0 -163 105q-7 9 -83 115q-68 96 -117 119q-23 11 -45 11q-5 0 -7 -1q-2 0 -51 -49l-202 -195q-106 -106 -150 -106q-17 0 -17 17q0 37 59 104l170 167q198 190 277 279q197 224 250 436q23 92 23 190q0 140 -122 232 q-23 17 -45 28q-77 40 -165 40q-66 0 -130 -29q-29 -58 -29 -127q0 -59 31 -102q25 -34 29 -55q3 -12 3 -27q0 -101 -95 -144q-36 -16 -64 -16z" />
<glyph unicode="&#xc0;" horiz-adv-x="1132" d="M13 1135q0 52 83 133q99 95 208 129q45 15 84 14q95 -2 104 -160q143 114 283 114q98 0 159 -76q49 -61 49 -143q0 -146 -134 -304q-42 -49 -43 -50q110 -34 140 -139q10 -35 10 -77q0 -163 -142 -332q-143 -172 -365 -268q-25 -11 -50 -20l-39 -101q-53 -123 -148 -231 q-86 -98 -144 -120q-11 -4 -20 -4q-17 0 -17 16q0 34 31 70q48 56 65 84q113 182 133 644l1 39v1q13 455 13 653q0 130 -28 165q-10 12 -25 18q-5 2 -21 2q-52 0 -96 -35q-36 -29 -54 -34q-12 -4 -25 -4q-12 0 -12 16zM765 961q0 91 -65 145q-48 40 -116 40q-45 0 -83 -15 q-9 -35 -10 -61l-7 -378v-10q1 -1 19 14q38 32 104 66q76 39 97 56q61 50 61 143zM738 395q0 95 -64 148q-43 35 -104 35h-11q-21 0 -60 -12q-6 -2 -7 -3q-14 -42 -19 -142q-6 -134 -26 -255q-4 -20 -4 -29q37 0 150 50q97 44 111 68q34 58 34 140z" />
<glyph unicode="&#xc1;" horiz-adv-x="696" d="M291 449q0 100 -42 283q-42 184 -46 274q-1 20 -1 38q0 135 63 247q44 77 118 152q81 81 126 81q17 0 17 -17q0 -25 -31 -64q-45 -55 -60 -102q-15 -48 -15 -110q0 -111 41 -280q40 -166 46 -252q3 -35 3 -69q0 -192 -136 -351q-73 -86 -141 -117q-18 -8 -29 -8 q-17 0 -18 17q0 30 52 92q20 23 24 31q29 55 29 155z" />
<glyph unicode="&#xc2;" horiz-adv-x="1323" d="M476 605q83 0 240 -33q120 -26 190 -33l47 -1h1q103 0 154 45l32 29q19 13 46 13q18 0 18 -16q0 -34 -51 -91q-93 -104 -232 -134q-45 -10 -93 -10q-83 0 -249 35q-150 32 -227 32q-103 0 -149 -38l-35 -31q-17 -11 -38 -16q-6 -1 -11 -1q-18 0 -18 17v4q0 27 48 82 q93 105 230 136q48 11 97 11z" />
<glyph unicode="&#xc3;" horiz-adv-x="522" d="M90 697q0 12 74 87q66 67 81 67q13 0 96 -86q56 -59 56 -68q0 -15 -88 -99q-56 -54 -65 -54q-15 0 -96 83q-58 59 -58 70zM101 175q0 32 63 102q73 82 125 93q6 1 11 1q28 0 63 -67q46 -87 46 -168q0 -130 -110 -274q-73 -96 -143 -132q-22 -12 -38 -12q-18 0 -18 18 q0 24 31 63q41 52 52 93q7 28 7 59q0 118 -82 203q-7 7 -7 15v6z" />
<glyph unicode="&#xc4;" horiz-adv-x="1259" d="M25 596q0 48 82 128q99 97 208 133q44 14 81 14q84 0 104 -101q5 -23 5 -102l-1 -64l21 20q114 114 255 189q142 76 260 76q136 0 229 -99q94 -100 94 -246q0 -130 -99 -278q-103 -153 -248 -229q-101 -53 -202 -53q-58 0 -120 35q-66 37 -103 47q-43 11 -98 11 q-97 0 -163 -40q-21 -13 -41 -93q-13 -56 -13 -106q0 -180 115 -323q51 -62 117 -106q119 -78 259 -78q105 0 185 40q5 3 5 28v6q0 44 -32 84q-14 17 -14 26q0 33 62 104q73 82 126 94q7 1 13 1q20 0 42 -44q21 -42 21 -82q0 -87 -88 -203q-107 -142 -264 -216 q-119 -56 -242 -56q-228 0 -385 177q-49 56 -79 116q-59 115 -59 250q0 226 195 430l15 15q16 66 18 229q1 59 1 191q-8 124 -73 132q-54 0 -99 -37q-34 -29 -50 -33q-11 -4 -22 -4q-18 0 -18 17zM676 296q110 0 192 -46q60 -33 75 -38q29 -10 61 -10q53 0 108 23 q33 65 33 138q0 114 -73 204q-74 92 -191 103q-11 1 -22 1q-109 0 -222 -71q-51 -32 -71 -60q-50 -68 -67 -188q-10 -67 -14 -83q-4 -14 -4 -15v-1l67 25q60 18 128 18z" />
<glyph unicode="&#xc5;" horiz-adv-x="819" d="M-574 -23h-35q-26 0 -27 20q0 26 38 78q68 92 151 96h36l405 -7h48q359 2 497 56q13 5 25 11q30 54 30 124q0 143 -108 220q-45 32 -98 43q-11 3 -35 3q-66 0 -118 -46q-38 -33 -49 -39q-17 -9 -37 -9q-19 0 -19 20q0 49 84 127q100 93 212 128q44 14 82 14q61 0 132 -39 q145 -87 148 -267q0 -146 -109 -283q-44 -55 -103 -104q-116 -96 -281 -125q-67 -12 -203 -21q-107 -8 -232 -8z" />
<glyph unicode="&#xc6;" horiz-adv-x="905" d="M-70 912l197 -7q217 0 370 42q42 11 68 24q29 58 29 121q0 130 -87 209q-67 60 -153 60q-66 0 -118 -45q-39 -33 -49 -39q-17 -9 -37 -9q-19 0 -19 20q0 46 81 123q101 96 212 131q45 14 83 14q147 0 231 -129q22 -34 34 -69q17 -53 17 -106q0 -129 -90 -261 q-110 -160 -291 -223q-49 -17 -101 -26q-190 -32 -321 -32l-212 7q-38 1 -42 10q-2 3 -2 10q0 35 52 94q53 60 109 79q8 2 39 2z" />
<glyph unicode="&#xc7;" horiz-adv-x="610" d="M-741 10q0 49 76 117q62 55 98 59q6 0 47 -24l424 -241q101 -55 143 -85q168 -124 168 -292q0 -132 -128 -268q-110 -116 -246 -169q-68 -26 -125 -26q-159 0 -222 112q-24 42 -24 77q0 77 81 168q62 70 112 83q7 2 13 2q21 0 21 -20q0 -21 -33 -70v-10q3 -55 61 -101 q60 -47 140 -47q72 0 120 30q23 15 29 32q6 18 6 52q0 180 -245 317q114 -64 -48 26l-272 152q-184 105 -191 112q-5 5 -5 14z" />
<glyph unicode="&#xc8;" d="M-991 -614q-13 0 -93 81q-60 61 -60 72q0 14 77 92q63 63 76 63q12 0 90 -78q63 -63 63 -76q0 -18 -90 -103q-54 -51 -63 -51z" />
<glyph unicode="&#xc9;" d="M-696 -614q-13 0 -93 81q-60 61 -60 72q0 14 77 92q63 63 76 63q12 0 90 -78q63 -63 63 -76q0 -18 -90 -103q-54 -51 -63 -51z" />
<glyph unicode="&#xca;" d="M-643 -614q-13 0 -93 81q-60 61 -60 72q0 14 77 92q63 63 76 63q9 0 83 -71q70 -68 70 -84q0 -15 -86 -98q-58 -55 -67 -55z" />
<glyph unicode="&#xcb;" d="M-313 -614q-13 0 -93 81q-60 61 -60 72q0 14 77 92q63 63 76 63q12 0 90 -78q63 -63 63 -76q0 -18 -90 -103q-54 -51 -63 -51z" />
<glyph unicode="&#xcc;" d="M-1165 -614q-13 0 -93 81q-60 61 -60 72q0 14 77 92q63 63 76 63q12 0 90 -78q63 -63 63 -76q0 -18 -90 -103q-54 -51 -63 -51zM-782 -614q-13 0 -93 81q-60 61 -60 72q0 14 77 92q63 63 76 63q12 0 90 -78q63 -63 63 -76q0 -18 -90 -103q-54 -51 -63 -51z" />
<glyph unicode="&#xcd;" d="M-870 -614q-14 0 -94 81q-60 61 -60 72q0 13 77 90q64 65 77 65q12 0 90 -78q63 -63 63 -76q0 -18 -90 -103q-54 -51 -63 -51zM-522 -614q-13 0 -93 81q-60 61 -60 72q0 14 77 92q63 63 76 63q12 0 90 -78q63 -63 63 -76q0 -18 -90 -103q-54 -51 -63 -51z" />
<glyph unicode="&#xce;" d="M-766 -614q-13 0 -93 81q-60 61 -60 72q0 13 77 91q63 64 76 64q10 0 82 -69q71 -69 71 -86q0 -15 -86 -98q-58 -55 -67 -55zM-418 -614q-12 0 -87 75q-66 65 -66 79q0 12 77 91q63 63 76 63q10 0 82 -69q71 -69 71 -86q0 -15 -86 -98q-58 -55 -67 -55z" />
<glyph unicode="&#xcf;" d="M-469 -614q-13 0 -93 81q-60 61 -60 72q0 13 77 91q63 64 76 64q10 0 82 -69q71 -69 71 -86q0 -15 -86 -98q-58 -55 -67 -55zM-309 -460q0 17 90 102q55 52 63 52q10 0 82 -69q71 -69 71 -86q0 -15 -86 -98q-58 -55 -67 -55q-12 0 -87 75q-66 65 -66 79z" />
<glyph unicode="&#xd0;" d="M-1335 -434q0 12 79 91q62 62 74 62q17 0 101 -88q53 -56 53 -65q0 -15 -85 -97q-59 -57 -69 -57q-13 0 -93 82q-60 61 -60 72zM-970 -434q0 12 78 90q63 63 76 63q17 0 100 -88q53 -56 53 -65q0 -14 -85 -97q-58 -57 -68 -57q-14 0 -95 84q-59 60 -59 70zM-1153 -695 q0 12 76 88q64 65 77 65q17 0 101 -88q53 -56 53 -65q0 -15 -87 -99q-57 -55 -66 -55q-15 0 -97 85q-57 59 -57 69z" />
<glyph unicode="&#xd1;" d="M-1057 -434q0 12 78 90q63 63 75 63q18 0 101 -88q53 -56 53 -65q0 -14 -85 -97q-58 -57 -68 -57q-14 0 -95 84q-59 60 -59 70zM-691 -434q0 12 79 91q62 62 74 62q17 0 101 -88q53 -56 53 -65q0 -15 -85 -97q-59 -57 -69 -57q-13 0 -93 82q-60 61 -60 72zM-874 -694 q0 11 77 88q63 64 76 64q16 0 101 -89q53 -55 53 -64q0 -14 -84 -95q-60 -59 -70 -59q-14 0 -96 86q-57 58 -57 68v1z" />
<glyph unicode="&#xd2;" d="M-969 -434q0 12 78 90q63 63 75 63q18 0 101 -88q53 -56 53 -65q0 -14 -85 -97q-58 -57 -68 -57q-14 0 -95 84q-59 60 -59 70zM-603 -434q0 12 79 91q62 62 74 62q17 0 101 -88q53 -56 53 -65q0 -15 -85 -97q-59 -57 -69 -57q-13 0 -93 82q-60 61 -60 72zM-786 -695 q0 11 75 88q65 65 78 65q16 0 101 -89q53 -55 53 -64q0 -14 -84 -95q-60 -59 -70 -59q-14 0 -96 86q-57 58 -57 68z" />
<glyph unicode="&#xd3;" d="M-682 -434q0 12 77 90q64 63 77 63q16 0 100 -88q53 -56 53 -65q0 -15 -87 -99q-57 -55 -66 -55q-15 0 -97 85q-57 59 -57 69zM-334 -434q0 12 78 90q63 63 76 63q17 0 100 -88q53 -56 53 -65q0 -15 -87 -99q-57 -55 -66 -55q-14 0 -95 84q-59 60 -59 70zM-354 -841 q-15 0 -97 85q-57 59 -57 69t74 86q66 67 80 67q16 0 100 -88q53 -56 53 -65q0 -15 -87 -99q-57 -55 -66 -55z" />
<glyph unicode="&#xd4;" d="M-1268 1307q0 11 77 89q64 64 77 64q16 0 100 -88q53 -56 53 -65q0 -16 -85 -98q-58 -56 -68 -56q-15 0 -97 85q-57 59 -57 69zM-885 1307q0 11 77 89q64 64 76 64q17 0 101 -88q53 -56 53 -65q0 -16 -85 -98q-58 -56 -68 -56q-15 0 -97 85q-57 59 -57 69z" />
<glyph unicode="&#xd5;" d="M-954 1307q0 12 77 90q63 63 76 63q15 0 99 -87q55 -57 55 -66q0 -15 -85 -98q-59 -56 -69 -56q-14 0 -93 82q-60 61 -60 72zM-606 1307q0 12 77 90q64 63 76 63q17 0 99 -87q55 -57 55 -66q0 -15 -82 -95q-61 -59 -72 -59q-14 0 -93 82q-60 61 -60 72z" />
<glyph unicode="&#xd6;" d="M-866 1307q0 12 77 90q64 63 76 63q17 0 99 -87q55 -57 55 -66q0 -15 -82 -95q-61 -59 -72 -59q-14 0 -93 82q-60 61 -60 72zM-518 1307q0 12 77 90q64 63 76 63q17 0 99 -87q55 -57 55 -66q0 -15 -82 -95q-61 -59 -72 -59q-14 0 -93 82q-60 61 -60 72z" />
<glyph unicode="&#xd7;" d="M-426 1154q-16 0 -101 90q-53 55 -53 63t20 29l122 121q7 3 12 3q17 0 102 -89q53 -55 53 -64q0 -12 -72 -85q-67 -68 -83 -68zM-113 1154q-15 0 -98 86q-55 58 -55 67t20 29l121 121q7 3 13 3q15 0 98 -85q56 -58 56 -68t-69 -82q-69 -71 -86 -71z" />
<glyph unicode="&#xd8;" d="M-1238 1579q0 46 70 104q49 41 73 41q13 0 32 -24l96 -126l113 -145q3 2 89 112l92 118q59 65 102 65q18 0 18 -19t-20 -49q-20 -32 -263 -339q-23 -29 -26 -32q-49 -51 -89 -59q-4 -1 -8 -1q-14 0 -87 98l-56 73q-124 158 -133 172q-3 4 -3 11z" />
<glyph unicode="&#xd9;" d="M-925 1571q0 46 70 104q49 41 75 41q11 0 31 -26q-35 45 91 -119l109 -141q1 0 68 87q118 152 160 182q24 17 47 17q15 0 17 -18q0 -31 -83 -136l-75 -95q-122 -159 -157 -194q-47 -48 -82 -48q-12 0 -58 60l-211 276q-2 4 -2 10z" />
<glyph unicode="&#xda;" d="M-839 1571q0 46 70 104q49 41 75 41q11 0 31 -26q-35 45 91 -119l109 -141q1 0 68 87q118 152 160 182q24 17 47 17q15 0 17 -18q0 -31 -83 -136l-75 -95q-122 -159 -157 -194q-47 -48 -82 -48q-12 0 -58 60l-82 108q-128 167 -129 168q-2 4 -2 10z" />
<glyph unicode="&#xdb;" d="M-595 1562q0 47 69 105q49 40 74 40q12 0 30 -22q-11 14 89 -118l105 -137l165 214q47 51 88 62q5 1 10 1q20 -4 20 -19q0 -22 -27 -59l-249 -326q-43 -55 -94 -74q-11 -4 -18 -4q-14 0 -121 144l-13 18q-122 159 -124 163q-4 5 -4 12z" />
<glyph unicode="&#xdc;" d="M-1220 1225q-18 0 -18 19q0 20 20 49l278 359q5 6 6 7q42 47 85 62q9 3 15 3q7 0 12 -2q10 -7 182 -232q87 -115 87 -121q0 -29 -46 -82q-55 -62 -98 -62q-13 0 -55 55l-72 95l-114 145q-4 0 -31 -39q-63 -92 -154 -196q-42 -48 -86 -59q-6 -1 -11 -1z" />
<glyph unicode="&#xdd;" d="M-906 1225q-19 0 -19 19q0 18 19 47l257 336q12 15 14 17q62 71 107 72q13 0 52 -51l88 -118q127 -164 129 -167t2 -12q0 -45 -69 -102q-50 -41 -75 -41q-13 0 -53 53l-179 233l-166 -214q-39 -48 -88 -68q-12 -4 -19 -4z" />
<glyph unicode="&#xde;" d="M-820 1225q-19 0 -19 19q0 18 19 47l257 336q12 15 14 17q62 71 107 72q13 0 54 -54l87 -115l128 -167q2 -4 2 -11q0 -45 -69 -102q-50 -42 -75 -42q-13 0 -47 46l-185 240l-166 -214q-39 -48 -88 -68q-12 -4 -19 -4z" />
<glyph unicode="&#xdf;" d="M-577 1225q-18 0 -18 19q0 18 18 47l259 340q43 53 91 72q11 4 18 4q14 0 50 -47l87 -116l125 -163q2 -3 2 -11q0 -47 -69 -104q-49 -41 -75 -41q-11 0 -31 26l-86 114q-104 135 -105 136l-142 -181q-81 -91 -124 -95z" />
<glyph unicode="&#xe0;" d="M-1025 1609l-43 -35q-28 -18 -48 -18q-19 0 -19 18q0 56 96 129q77 59 129 68q6 2 11 2q23 0 39 -16l274 -469q5 -5 9 -5l51 38q24 15 41 15t18 -19q0 -32 -61 -96q-80 -84 -151 -99q-12 -3 -22 -3q-28 0 -45 23l-138 237l-110 -110q-103 -103 -124 -120q-37 -30 -62 -30 q-9 0 -27 17l-76 78q-2 4 -2 12q0 29 46 81q55 63 99 63q8 0 23 -15l50 -49l143 143l-44 75q-42 74 -49 81q-5 4 -8 4z" />
<glyph unicode="&#xe1;" d="M-728 1609l-43 -35q-28 -18 -48 -18q-19 0 -19 18q0 55 95 128q76 59 129 69q7 2 12 2q23 0 39 -16l274 -469q5 -5 9 -5l50 38q25 15 42 15q16 0 18 -18q0 -54 -94 -127q-77 -60 -130 -70q-6 -2 -10 -2q-28 0 -45 23l-138 237l-111 -111q-103 -103 -123 -119 q-36 -30 -62 -30q-9 0 -27 17l-76 78q-2 4 -2 12q0 29 44 80q56 63 102 63q7 0 23 -15l48 -48l144 143l-44 75q-42 74 -49 81q-5 4 -8 4z" />
<glyph unicode="&#xe2;" d="M-642 1609l-43 -35q-28 -18 -48 -18q-19 0 -19 18q0 55 95 128q76 59 129 69q7 2 12 2q23 0 39 -16l274 -469q5 -5 9 -5l51 38q24 15 41 15q16 0 18 -18q0 -54 -94 -127q-77 -60 -130 -70q-6 -2 -10 -2q-28 0 -45 23l-138 237l-111 -111q-103 -103 -123 -119 q-36 -30 -62 -30q-9 0 -27 17l-76 78q-2 4 -2 12q0 29 44 80q56 63 102 63q7 0 23 -15l48 -48l144 143l-44 75q-42 74 -49 81q-5 4 -8 4z" />
<glyph unicode="&#xe3;" d="M-443 1614q0 53 95 127q78 61 129 71q6 1 11 1q28 0 40 -17q13 -18 58 -145l39 -111q79 -216 90 -249q5 -11 10 -11l48 37q28 19 47 19q18 0 18 -18q0 -57 -96 -131q-78 -59 -131 -69q-6 -2 -11 -2q-27 0 -42 27q-7 12 -46 122q-42 115 -42 116q-1 0 -85 -100 q-102 -120 -138 -146q-26 -18 -48 -18q-11 0 -64 54q-40 40 -40 51q0 49 71 106q48 39 73 39q12 0 32 -22l34 -33l133 157l-32 88q-31 86 -40 93l-45 -36q-29 -20 -48 -20q-20 0 -20 20z" />
<glyph unicode="&#xe4;" d="M-1209 -986q-89 0 -138 70q-31 45 -31 100q0 158 180 305q102 82 329 213l85 49q35 21 46 21q22 0 26 -20q1 -3 1 -6q0 -17 -35 -46q-20 -18 -66 -53l-115 -88q-204 -155 -250 -226q-23 -35 -23 -66q0 -46 50 -66q24 -10 54 -10q59 0 100 36q28 25 42 29q7 1 14 1 q17 0 17 -20q0 -57 -90 -137q-17 -15 -31 -25q-82 -61 -165 -61z" />
<glyph unicode="&#xe5;" d="M-894 -984q-91 0 -135 76q-25 44 -25 101q0 155 173 325q60 58 199 170l94 77q12 7 23 7q26 0 26 -24t-46 -73l-121 -129q-65 -72 -130 -154q-53 -67 -53 -116q0 -46 50 -63q17 -6 38 -6q62 0 125 53q42 32 54 34q15 -5 16 -28q0 -74 -86 -155q-80 -76 -162 -92 q-16 -3 -30 -3h-10z" />
<glyph unicode="&#xe6;" d="M-795 -969q-83 0 -130 65q-33 46 -33 108q0 171 242 355q96 74 283 186q43 26 49 26q28 0 30 -25q0 -19 -53 -65l-88 -75q-193 -162 -243 -224q-44 -54 -44 -97q0 -46 52 -66q22 -8 48 -8q55 0 111 43q34 27 49 28q18 0 18 -22q0 -38 -51 -102q-80 -100 -190 -122 q-25 -5 -50 -5z" />
<glyph unicode="&#xe7;" d="M-473 -961q-88 0 -134 74q-28 45 -28 104q0 150 159 304q64 62 214 176l65 51q31 24 42 24q28 0 28 -24q0 -21 -35 -58l-113 -117q-62 -68 -130 -150q-60 -75 -61 -124q0 -47 50 -64q18 -6 38 -6q62 0 126 53q36 30 50 31h3q15 0 15 -23q0 -69 -76 -147 q-81 -83 -176 -101q-19 -3 -37 -3z" />
<glyph unicode="&#xe8;" d="M-1402 1467q0 72 70 151q56 64 101 69q3 1 6 1q17 0 17 -19q0 -25 -25 -56q-5 -6 -6 -9l1 -14q0 -66 60 -94q75 -34 318 -34q322 0 414 -32q67 -23 67 -71q0 -64 -125 -159l-125 -102q-58 -43 -74 -43q-24 5 -27 26q0 21 73 96l86 86q-65 26 -175 31q-75 4 -241 4 q-250 0 -319 29q-65 26 -87 86q-9 25 -9 54z" />
<glyph unicode="&#xe9;" d="M-1003 1467q0 73 71 153q56 62 100 67q3 1 6 1q18 0 18 -19q0 -20 -31 -65v-14q0 -92 136 -116q66 -12 187 -12q288 0 362 -47q35 -22 35 -56q0 -64 -122 -158q-114 -92 -164 -128q-28 -18 -38 -18q-24 5 -27 26q0 21 73 96l86 86q-69 28 -196 33q-56 2 -136 2 q-187 0 -255 26q-60 22 -89 75q-16 29 -16 68z" />
<glyph unicode="&#xea;" d="M-794 1467q0 73 71 153q56 62 100 67q3 1 6 1q17 0 17 -19q0 -22 -23 -53q-6 -8 -7 -12v-14q0 -54 54 -91q31 -22 183 -33q179 -14 238 -31q89 -25 89 -76q0 -63 -120 -156l-17 -13q-112 -92 -142 -112q-34 -23 -46 -23q-23 5 -26 26q0 18 16 34l142 148q-64 28 -212 35 q-142 6 -192 19q-98 25 -124 103q-7 24 -7 47z" />
<glyph unicode="&#xeb;" d="M-567 1467q0 70 68 149q57 66 103 71q3 1 6 1q18 0 18 -19q0 -20 -31 -65v-14q0 -60 64 -96q16 -9 28 -12q24 -7 159 -20q173 -16 219 -56q24 -20 24 -47q0 -64 -125 -159l-125 -102q-58 -43 -74 -43q-24 5 -27 26q0 21 73 96l86 86q-52 21 -190 34q-137 13 -190 38 q-48 23 -69 64q-17 31 -17 68z" />
<glyph unicode="&#xec;" d="M-2655 1763q-13 6 -13 17q0 35 61 104q71 81 128 96q5 1 1377 1l1032 1l326 1q22 -1 27 -14v-4q0 -32 -54 -97q-73 -88 -142 -105h-2742z" />
<glyph unicode="&#xed;" d="M-2655 -1196q-12 11 -13 18q1 36 63 105q68 77 125 93q7 2 1380 2h1373q9 -9 10 -18q0 -32 -53 -95q-66 -79 -137 -104l-1374 -1h-1374z" />
<glyph unicode="&#xee;" d="M-1662 1763q-12 5 -12 18q0 34 60 103q71 82 129 96q4 1 881 1h876q10 -5 11 -10q1 -3 1 -8q0 -32 -54 -96q-65 -76 -136 -103h-878z" />
<glyph unicode="&#xef;" d="M-1662 -1196q-12 5 -12 17q0 33 56 98q66 77 133 102q4 1 881 1h876q11 -6 12 -18q0 -35 -59 -101q-65 -74 -131 -99h-1756z" />
<glyph unicode="&#xf0;" horiz-adv-x="1097" d="M339 303q43 0 81 -31q43 -35 67 -46q52 -24 135 -24q67 0 126 26q24 43 24 118q0 117 -80 210q-19 23 -41 40q-95 75 -211 75q-168 0 -282 -85l-70 -56q-24 -16 -45 -16q-18 0 -18 18q0 49 104 146q70 65 146 112q165 99 347 99q156 0 262 -103q104 -108 106 -256 q0 -198 -183 -373q-37 -35 -79 -67q-143 -106 -278 -106q-199 0 -255 99q-16 29 -16 61q0 48 33 95q45 64 127 64z" />
<glyph unicode="&#xf1;" horiz-adv-x="1122" d="M25 794q0 72 77 157q62 68 110 79q6 1 11 1q20 0 20 -21q0 -16 -22 -53q-2 -3 -2 -4v-9q6 -54 56 -74q59 -23 275 -24h28q360 0 423 41l31 25q12 7 33 10q5 1 9 1q19 0 19 -19q0 -64 -117 -150q-60 -44 -104 -61q-94 -36 -250 -38q-145 -2 -194 -10q-40 -6 -76 -17 q-35 -70 -35 -145q0 -117 80 -199t200 -82q204 0 319 87l68 56q24 15 46 15q17 0 17 -17q0 -32 -63 -104q-111 -128 -270 -197q-85 -36 -173 -49q-58 -9 -123 -9q-152 0 -243 104q-77 87 -77 213q0 164 150 346l6 7l-5 1q-206 0 -222 116q-2 11 -2 23z" />
<glyph unicode="&#xf2;" horiz-adv-x="1740" d="M35 798q0 68 76 152q62 69 110 80q6 1 12 1q19 0 19 -20t-23 -57l1 -8q0 -23 18 -51q9 -13 18 -17q75 -32 622 -32q589 0 705 29q14 4 19 8q44 40 80 40q20 0 20 -19q0 -63 -110 -145q-75 -56 -127 -71q-77 -21 -280 -29q-114 -5 -148 -13q-15 -4 -27 -99q-4 -26 -4 -40 q0 -130 81 -220q75 -85 183 -85q155 0 259 76l63 48q23 14 43 14q16 0 16 -17q0 -36 -64 -108q-109 -124 -267 -186q-114 -45 -233 -45q-143 0 -227 114q-30 41 -49 94q-5 12 -5 14l-44 -41q-86 -73 -192 -123q-120 -58 -246 -58q-121 0 -200 94q-74 87 -74 216 q0 141 104 295q31 46 59 74l-25 3q-91 10 -123 34q-40 30 -40 98zM278 477q0 -124 79 -205q69 -70 164 -70q98 0 196 47q47 23 58 42q12 22 28 98q25 122 91 217l31 44q0 2 -190 2h-252q-44 1 -56 1q-51 0 -105 -16q-8 0 -26 -58q-18 -57 -18 -102z" />
<glyph unicode="&#xf3;" horiz-adv-x="2211" d="M19 799q0 78 84 162q60 61 104 69q4 1 7 1q21 0 21 -19q0 -14 -17 -48q-5 -9 -5 -13q0 -24 20 -59q5 -8 9 -11q43 -30 655 -34q120 -1 266 -1q440 0 751 17q155 9 168 20q46 41 80 41q19 0 19 -20v-1q0 -59 -107 -143q-65 -50 -108 -65q-62 -22 -268 -33q-98 -5 -125 -10 q-22 -56 -27 -90q-4 -26 -4 -57q0 -149 97 -241q46 -44 98 -57q22 -5 45 -5q134 0 234 71l60 43q22 12 39 12q16 0 16 -19q-6 -54 -106 -146q-31 -29 -66 -55q-166 -124 -360 -124q-122 0 -207 114q-39 56 -48 95q-1 0 -9 -8q-187 -182 -381 -199q-17 -2 -34 -2 q-155 0 -224 188l-4 12q-215 -200 -410 -200q-106 0 -177 94q-66 88 -66 210q0 182 160 378q-2 0 -7 1q-92 9 -121 24q-52 27 -52 108zM698 651l-332 6q-6 -1 -13 -1q-44 -2 -51 -12l-6 -12q-39 -78 -39 -161q0 -115 68 -197q31 -37 70 -56q32 -16 69 -16q85 0 149 36 q20 11 28 22q26 39 46 118q27 103 73 180q27 44 65 93h-127zM1286 260q20 20 34 90q24 117 57 187q29 60 73 117h-11q-32 0 -56 -1q-25 0 -217 -2q-208 0 -224 -8q-20 -10 -39 -113q-7 -38 -7 -58q0 -118 71 -201q46 -54 106 -66q13 -3 32 -3q85 0 157 41q16 9 24 17z" />
<glyph unicode="&#xf4;" horiz-adv-x="1183" d="M1189 -300q0 -132 -113 -276q-116 -148 -286 -221q-116 -50 -232 -50q-173 0 -299 106q-31 26 -56 57q-85 105 -100 240q-2 14 -2 643q0 673 12 853q13 183 60 326l11 33q57 161 178 293q87 95 140 102q4 1 7 1h2q15 0 15 -17q0 -24 -40 -77q-59 -76 -80 -127 q-62 -151 -77 -392q-11 -158 -10 -699v-114q0 -623 2 -638q15 -136 111 -241q121 -132 306 -132q112 0 213 51q20 46 20 94q0 51 -37 100q-32 42 -38 63q-5 15 -5 32q0 65 53 116q46 44 106 44q65 0 107 -61q32 -46 32 -109z" />
<glyph unicode="&#xf5;" horiz-adv-x="1636" d="M1167 17q9 -53 10 -115q0 -229 -158 -435q-129 -169 -311 -256q-124 -59 -238 -59q-204 0 -306 194q-55 104 -62 214l-1 503q0 730 3 839q6 197 39 356q48 238 191 414q83 103 150 129q14 6 25 6h2q15 0 15 -17q0 -28 -30 -64q-50 -61 -74 -109q-100 -201 -103 -671 l-1 -69q84 -32 522 -31h27q596 0 641 37q50 40 80 40q19 0 19 -19q0 -63 -113 -147q-67 -50 -114 -66q-77 -25 -281 -34q-171 -7 -216 -22q-8 -3 -15 -6q-16 -8 -32 -98q-5 -30 -5 -46q0 -119 80 -201t199 -82q205 0 321 87l68 56q23 15 45 15q17 0 17 -17q0 -42 -82 -126 q-116 -118 -260 -179zM630 651l-308 7h-4v-443q0 -438 2 -458q12 -180 119 -292q16 -18 32 -30q82 -65 180 -65q105 0 189 43q26 14 37 27q72 83 81 258q1 16 1 30q0 111 -50 228q-8 17 -8 23v6h-4q-54 0 -124 38q-140 76 -158 235q-2 20 -2 42q0 168 149 348l3 3h-135z" />
<glyph unicode="&#xf6;" horiz-adv-x="2193" d="M1121 73q35 -89 37 -203q0 -216 -153 -414q-104 -135 -250 -221q-139 -83 -288 -83q-207 0 -307 203q-49 98 -58 201q-1 15 -1 640q0 655 6 773q6 144 36 289q48 238 191 414q83 103 150 129q14 6 25 6h2q15 0 15 -17q0 -28 -29 -63q-49 -58 -72 -102 q-103 -199 -106 -687l-1 -77h6q140 -15 744 -15q709 0 902 20q83 8 99 20q48 37 76 37q19 0 19 -19q0 -63 -115 -149q-57 -43 -96 -58q-58 -23 -277 -35q-127 -6 -158 -13q-31 -62 -31 -138q0 -137 87 -231q54 -58 121 -74q21 -4 45 -4q156 0 255 75l59 45q21 14 41 14 q19 0 19 -17q0 -35 -64 -107q-107 -122 -264 -184q-112 -44 -229 -44t-199 94q-44 50 -70 124q-43 -43 -135 -109q-28 -20 -32 -20zM869 -15l-40 -1q-114 0 -191 94q-71 88 -71 212q0 176 152 361l-95 1l-289 5l-17 1l1 -453q0 -459 4 -485q21 -158 114 -256q89 -93 215 -93 q136 0 203 54q18 14 28 31q57 94 57 231q0 136 -64 251q-8 10 -10 24l5 23h-2zM1367 653l-283 -2q-197 0 -231 -7q-5 -1 -12 -3q-17 -4 -36 -52q-19 -49 -19 -107q0 -140 84 -221q62 -59 144 -59q96 0 173 38q48 25 63 57q12 26 25 98q20 104 84 203q18 27 39 55h-31z" />
<glyph unicode="&#xf7;" horiz-adv-x="1114" d="M178 -108q18 0 18 -17q0 -28 -35 -70q-40 -46 -47 -75q-4 -15 -4 -30q0 -78 49 -156q95 -149 320 -172q11 -1 42 -1q109 0 168 35q24 14 34 32q31 60 37 129l1 636v2q1 598 4 689q6 186 31 323q63 348 269 528q12 11 24 20q53 42 81 42q18 0 18 -18q0 -27 -62 -105 q-30 -39 -37 -51q-86 -161 -105 -512q-3 -78 -3 -696q0 -613 -2 -647q-8 -243 -239 -452q-192 -174 -398 -174q-183 0 -312 99q-128 97 -137 246q-1 10 -1 20q0 117 119 251q75 85 139 116q17 8 28 8z" />
<glyph unicode="&#xf8;" horiz-adv-x="2019" d="M178 -108q18 0 18 -17q0 -28 -35 -70q-40 -46 -47 -75q-4 -15 -4 -30q0 -78 49 -156q95 -149 320 -172q11 -1 42 -1q109 0 168 35q24 14 34 32q31 60 37 129l1 636v2q1 598 4 689q6 186 31 323q63 348 269 528q12 11 24 20q53 42 81 42q18 0 18 -18q0 -27 -62 -105 q-30 -39 -37 -51q-71 -132 -93 -369q-15 -162 -16 -441v-220l15 15q151 146 313 219q115 51 215 51q141 0 228 -96q81 -89 81 -227q0 -177 -175 -369h17h15q164 0 205 36q54 46 86 46q20 0 20 -20q0 -33 -52 -93q-94 -109 -236 -146q-32 -8 -66 -12q-46 -5 -122 -5h-43 q-54 0 -196 12q-85 8 -178 9q-73 0 -127 -4v-107q0 -177 -16 -245q-18 -81 -80 -175q-113 -171 -276 -264q-132 -76 -266 -76q-183 0 -312 99q-128 97 -137 246q-1 10 -1 20q0 117 119 251q75 85 139 116q17 8 28 8zM1251 218l201 -9q80 0 118 27q6 4 8 8q37 62 37 144 q0 71 -40 145q-72 138 -234 138q-115 0 -235 -78q-45 -29 -66 -54q-55 -64 -59 -187q-1 -18 -1 -62v-94q147 18 195 20q34 2 76 2z" />
<glyph unicode="&#xf9;" horiz-adv-x="2646" d="M178 -108q18 0 18 -17q0 -28 -35 -70q-40 -46 -47 -75q-4 -15 -4 -30q0 -78 49 -156q95 -149 320 -172q11 -1 42 -1q109 0 168 35q24 14 34 32q31 60 37 129l1 636v2q1 598 4 689q6 186 31 323q63 348 269 528q12 11 24 20q53 42 81 42q18 0 18 -18q0 -27 -62 -105 q-30 -39 -37 -51q-73 -136 -94 -388q-14 -155 -15 -413v-212q268 268 481 268q123 0 205 -100q52 -63 77 -159l22 22q116 116 243 183q103 54 185 54h15q103 0 180 -78q28 -28 45 -60q40 -71 40 -158q0 -175 -164 -369l-24 -27h17h14q164 0 205 36q55 45 86 45q19 0 20 -19 q0 -33 -52 -93q-96 -109 -240 -146q-31 -8 -63 -12q-39 -5 -141 -5h-50q-77 0 -407 14q-176 8 -317 8q-168 0 -344 -11l-33 -2v-103q0 -170 -15 -236q-18 -84 -81 -180q-113 -171 -276 -264q-132 -76 -266 -76q-183 0 -312 99q-128 97 -137 246q-1 10 -1 20q0 117 119 251 q75 85 139 116q17 8 28 8zM1533 368q0 138 -94 229q-74 72 -162 74q-93 0 -188 -70q-23 -16 -36 -31q-66 -74 -72 -215q-1 -25 -1 -75v-87q170 18 398 23q82 1 125 10q30 74 30 142zM1653 217l432 -17q64 0 112 32q26 18 46 92q12 45 12 87q0 94 -61 172q-69 88 -173 88 q-88 0 -170 -61q-11 -8 -18 -15q-41 -39 -84 -140q-51 -121 -80 -168q-16 -26 -34 -49q-14 -18 -14 -20q0 -1 32 -1z" />
<glyph unicode="&#xfa;" horiz-adv-x="1183" d="M321 1462q0 112 103 232q64 75 114 96q10 4 17 4q1 1 10 1q19 0 19 -19q0 -31 -27 -61q-30 -34 -37 -61q-4 -18 -4 -39q0 -92 87 -229q60 -95 180 -245q109 -137 138 -177q186 -258 186 -432q0 -189 -178 -363q-206 -202 -447 -202q-198 0 -327 99q-124 97 -124 244 q0 144 121 286q72 85 137 115q18 8 29 8q17 0 17 -17q0 -26 -30 -64q-39 -49 -49 -88q-7 -26 -7 -57q0 -176 190 -259q103 -46 208 -49h7q111 0 190 35q23 10 32 20q27 29 34 102q2 16 2 33q0 132 -100 295q-43 69 -105 149l-209 268q-161 214 -176 342q-1 16 -1 33z" />
<glyph unicode="&#xfb;" horiz-adv-x="1183" d="M321 1462q0 112 103 232q64 75 114 96q10 4 17 4q1 1 10 1q19 0 19 -19q0 -31 -27 -61q-30 -34 -37 -61q-4 -18 -4 -39q0 -92 87 -229q60 -95 180 -245q109 -137 138 -177q186 -258 186 -432q0 -207 -216 -399l13 -18q189 -254 202 -423q1 -15 1 -31q0 -138 -110 -285 q-113 -153 -281 -228q-116 -52 -234 -52q-189 0 -318 94q-131 96 -133 249q0 131 102 261q100 128 170 146q8 3 15 3q18 0 18 -17q0 -25 -31 -64q-40 -51 -50 -92q-6 -25 -6 -53q0 -126 111 -214q120 -95 307 -95q98 0 176 35q24 10 33 20q25 28 34 100q2 18 2 35 q0 175 -206 445l-38 50q-81 -32 -190 -32q-189 0 -318 97q-119 90 -128 220q-1 10 -1 19q0 158 129 302q71 80 134 108q15 6 24 6q17 0 17 -17q0 -26 -30 -64q-39 -49 -49 -88q-7 -26 -7 -57q0 -176 190 -259q103 -46 208 -49h7q111 0 190 35q23 10 32 20q27 29 34 102 q2 16 2 33q0 132 -100 295q-43 69 -105 149l-209 268q-161 214 -176 342q-1 16 -1 33z" />
<glyph unicode="&#xfc;" d="M-1066 -300q21 70 105 140q63 52 96 52q13 0 16 -14q1 -8 1 -101q0 -219 -24 -327q-40 -184 -182 -323q-79 -79 -123 -79q-17 0 -17 17q0 27 27 58q41 50 59 96q25 64 35 162q6 66 7 212v107z" />
<glyph unicode="&#xfd;" d="M-586 -108q13 0 15 -14q1 -7 1 -101q0 -218 -23 -325q-40 -186 -182 -325q-70 -70 -115 -78q-4 -1 -8 -1q-17 0 -17 16q0 29 27 61q41 48 58 90q26 65 35 166q7 67 7 212l1 107q21 71 106 141q62 51 95 51z" />
<glyph unicode="&#xfe;" d="M-753 -300q35 86 121 152q52 40 81 40q13 0 15 -14q1 -7 1 -101q0 -218 -23 -325q-40 -186 -182 -325q-69 -69 -114 -78q-5 -1 -9 -1q-17 0 -17 17q0 29 27 60q40 48 57 88q27 65 36 168q7 80 7 212v107z" />
<glyph unicode="&#xff;" d="M-405 -300q43 96 130 159q46 33 72 33q12 0 14 -14q2 -9 2 -72v-33q0 -218 -23 -324q-40 -181 -182 -322q-70 -70 -115 -78q-4 -1 -8 -1q-17 0 -17 16q0 29 25 58q39 45 56 87q46 113 46 360v52v79z" />
<glyph unicode="&#x109;" d="M-840 1718l13 4q12 0 42 -32l39 -40q70 -69 72 -76q1 -2 1 -6q0 -11 -72 -84q-67 -69 -83 -69t-100 88q-53 56 -53 65t20 29zM-462 1415q-16 0 -101 89q-52 56 -52 64q0 9 19 29l122 121q7 4 12 4q16 0 99 -86q56 -58 56 -68q0 -12 -72 -85q-67 -68 -83 -68zM-798 1307 q0 11 77 89q64 64 77 64q16 0 100 -88q53 -56 53 -65q0 -15 -83 -96q-59 -58 -70 -58q-15 0 -97 85q-57 59 -57 69z" />
<glyph unicode="&#x125;" horiz-adv-x="1376" d="M499 -16q-172 0 -278 113q-93 101 -93 245q0 225 236 420l10 9q130 104 258 116l29 1q178 0 289 -112q99 -102 99 -250q0 -124 -76 -232q-36 -51 -37 -53l23 -1q51 -1 150 -23q72 -15 131 -15q152 0 199 38q53 43 85 43q17 0 17 -15q0 -29 -49 -92q-95 -118 -234 -165 q-48 -17 -99 -22q-50 -5 -109 -5q-58 0 -166 23q-72 15 -118 15l-36 -1h-1l-194 -34q-22 -3 -36 -3zM831 344q0 129 -90 222q-102 104 -264 104q-49 0 -94 -19q-13 -5 -15 -10l-6 -14q-17 -45 -17 -102q0 -111 76 -203q82 -101 211 -118q14 -2 39 -2q80 0 125 24q12 7 15 13 q20 46 20 105z" />
<glyph unicode="&#x152;" horiz-adv-x="731" d="M631 -430q0 -34 -62 -105q-71 -81 -125 -93q-7 -2 -13 -2l-10 1q-6 4 -68 72q-247 283 -314 655q-23 123 -23 247q0 490 321 904q67 88 148 169q85 85 128 85q18 0 18 -18q0 -36 -74 -117l-55 -60q-178 -211 -240 -516q-27 -132 -27 -267q0 -372 194 -689 q79 -130 187 -241q13 -13 13 -15q2 -4 2 -10z" />
<glyph unicode="&#x153;" horiz-adv-x="731" d="M66 1306q0 33 63 103q73 82 125 92q6 2 11 2q13 0 39 -29l39 -44q250 -287 316 -663q21 -119 21 -240q0 -477 -309 -887q-72 -96 -160 -185q-72 -73 -119 -84q-5 -1 -9 -1q-17 0 -17 18q0 32 48 87l82 93q93 113 156 254q110 243 110 523q0 409 -230 746q-67 99 -152 187 q-14 14 -14 22v6z" />
<glyph unicode="&#x160;" d="M-892 -702q-45 0 -63 37q-7 15 -7 31q0 34 28 65q31 33 147 122l200 143l106 75q20 12 37 12q27 -2 31 -27q1 -3 1 -6q0 -20 -30 -51l-84 -87q-258 -270 -320 -303q-24 -11 -46 -11z" />
<glyph unicode="&#x161;" horiz-adv-x="2142" d="M25 596q0 48 82 128q99 97 208 133q44 14 81 14q84 0 104 -101q5 -28 5 -92l-1 -56l25 25q202 202 400 237q14 2 29 4h26q109 0 190 -86q62 -67 89 -173l27 27q130 130 267 192q90 41 167 41q100 0 176 -73q73 -69 90 -180q2 -16 2 -43q0 -192 -188 -397l4 -1 q69 0 152 -44q127 -66 172 -195q18 -54 18 -111q0 -126 -97 -263q-110 -156 -281 -229q-112 -47 -234 -47q-149 0 -268 69q-85 49 -118 119q-21 42 -21 83q0 78 78 173q64 78 120 94q9 3 18 3q19 0 19 -20q0 -27 -40 -79v-17q0 -73 81 -139q106 -87 266 -92q10 -1 19 -1 q114 0 190 38q41 20 52 47q21 50 21 104q0 152 -121 243q-71 54 -159 67l-376 8l-136 2h-2q-65 2 -204 2q-359 0 -619 -21q-67 -5 -113 -5q-11 3 -11 18q0 24 25 58q31 41 38 81q9 61 9 360q0 138 -58 151q-7 1 -14 1q-54 0 -99 -37q-34 -29 -50 -33q-11 -4 -22 -4 q-18 0 -18 17zM451 183q224 14 457 20q69 0 110 15q34 75 34 144q0 137 -83 227q-75 81 -179 81q-79 0 -168 -60q-26 -17 -38 -31q-54 -61 -74 -174l-22 -120q-14 -59 -39 -102h2zM1774 401q0 137 -89 214q-65 55 -156 55q-74 0 -153 -56q-16 -11 -26 -21q-36 -35 -79 -134 q-55 -128 -93 -187q-23 -35 -49 -67l94 -1q102 -2 150 -2q185 -6 235 -4q141 5 163 152q3 24 3 51z" />
<glyph unicode="&#x178;" d="M-509 -729q-48 0 -63 42q-5 13 -5 28q0 47 86 140q54 58 177 175l86 84q30 30 39 35q13 9 24 9q32 0 35 -35q0 -25 -158 -250q-100 -141 -140 -185q-38 -43 -81 -43z" />
<glyph unicode="&#x181;" horiz-adv-x="1039" d="M647 438q0 12 73 86q66 67 81 67q14 0 99 -89q54 -57 54 -65q0 -14 -84 -95q-60 -58 -70 -58q-15 0 -96 84q-57 59 -57 69v1zM117 438q0 12 73 86q66 67 81 67q14 0 99 -89q54 -57 54 -65q0 -14 -84 -95q-60 -58 -70 -58q-15 0 -96 84q-57 59 -57 69v1zM387 698 q0 12 73 86q66 67 81 67q14 0 99 -89q54 -57 54 -65q0 -14 -84 -95q-60 -58 -70 -58q-15 0 -96 84q-57 59 -57 69v1zM539 22q-13 0 -94 83q-58 59 -58 70v1q0 9 71 82q67 70 83 70q15 0 99 -88q54 -56 54 -65q0 -14 -84 -96q-59 -57 -69 -57h-1h-1z" />
<glyph unicode="&#x182;" horiz-adv-x="1353" d="M1050 283q-15 0 -96 84q-57 59 -57 69v1q0 9 71 82q67 70 83 70q15 0 99 -88q54 -56 54 -65q0 -14 -84 -95q-60 -58 -70 -58zM250 283q-15 0 -96 84q-57 59 -57 69v1q0 9 71 82q67 70 83 70q15 0 99 -88q54 -56 54 -65q0 -14 -84 -95q-60 -58 -70 -58zM650 674 q-13 0 -93 81q-60 61 -60 72t71 86q66 69 82 69q10 0 82 -69q71 -69 71 -86q0 -15 -86 -98q-58 -55 -67 -55zM650 283q-15 0 -96 84q-57 59 -57 69v1q0 9 71 82q67 70 83 70q15 0 99 -88q54 -56 54 -65q0 -14 -84 -95q-60 -58 -70 -58zM650 -110q-12 0 -93 82q-60 61 -60 72 q0 12 75 89q64 66 78 66q12 0 86 -73q67 -67 67 -82q0 -16 -90 -101q-55 -53 -63 -53z" />
<glyph unicode="&#x192;" d="M-1306 1674q0 48 40 65q14 5 30 5q44 0 97 -60l37 -44q122 -140 313 -387q66 -87 78 -107q5 -9 5 -23q-6 -29 -33 -34q-21 0 -63 38l-88 85q-346 326 -403 416q-5 8 -7 13q-6 17 -6 33z" />
<glyph unicode="&#x200;" d="M-738 -227q0 46 69 103q50 41 75 41q8 0 36 -12q31 -13 93 -21q169 -21 358 4q37 5 70 20q20 9 31 9q19 0 19 -19q0 -30 -45 -81q-32 -36 -68 -54q-101 -51 -319 -46q-217 6 -272 24q-42 14 -46 24q-1 3 -1 8z" />
<glyph unicode="&#x201;" d="M-183 -179q61 -17 124 37q30 26 36 28q12 4 27 4q19 0 19 -18q0 -30 -50 -86q-111 -125 -208 -122q-67 2 -149 28q-100 19 -148 19q-79 0 -123 -38q-28 -24 -38 -28q-11 -4 -26 -4q-18 0 -18 20q0 33 52 89q112 120 213 119q124 -1 289 -48z" />
<glyph unicode="&#x202;" d="M-645 1022q0 46 69 103q50 41 75 41q8 0 36 -12q31 -13 93 -21q169 -21 358 4q37 5 70 20q20 9 31 9q19 0 19 -19q0 -30 -45 -81q-32 -36 -68 -54q-101 -51 -319 -46q-217 6 -272 24q-42 14 -46 24q-1 3 -1 8z" />
<glyph unicode="&#x203;" d="M-68 1163q61 -17 124 37q30 26 36 28q12 4 27 4q19 0 19 -18q0 -30 -50 -86q-111 -125 -208 -122q-67 2 -149 28q-100 19 -148 19q-79 0 -123 -38q-28 -24 -38 -28q-11 -4 -26 -4q-18 0 -18 20q0 33 52 89q112 120 213 119q124 -1 289 -48z" />
<glyph unicode="&#x2c6;" horiz-adv-x="487" d="M260 674q-13 0 -93 81q-60 61 -60 72t71 86q66 69 82 69q10 0 82 -69q71 -69 71 -86q0 -15 -86 -98q-58 -55 -67 -55zM260 283q-15 0 -96 84q-57 59 -57 69v1q0 9 71 82q67 70 83 70q15 0 99 -88q54 -56 54 -65q0 -14 -84 -95q-60 -58 -70 -58zM260 -110q-12 0 -93 82 q-60 61 -60 72q0 12 75 89q64 66 78 66q12 0 86 -73q67 -67 67 -82q0 -16 -90 -101q-55 -53 -63 -53z" />
<glyph unicode="&#x2dc;" d="M-1327 -424q0 80 72 162q75 87 167 100q13 2 26 2q72 0 120 -52q7 -8 13 -17q29 -42 29 -93q0 -96 -87 -180q-76 -73 -159 -83q-9 -1 -18 -1q-86 0 -134 68q-29 42 -29 94zM-1032 -425q0 69 -53 108q-35 26 -83 26q-5 0 -25 -3q-3 -15 -3 -25q0 -71 54 -111 q35 -25 80 -25q11 0 28 3q2 14 2 27z" />
<glyph unicode="&#x10fb;" horiz-adv-x="819" d="M367 438q0 12 73 86q66 67 81 67q14 0 99 -89q54 -57 54 -65q0 -14 -84 -95q-60 -58 -70 -58q-15 0 -96 84q-57 59 -57 69v1zM107 698q0 12 73 86q66 67 81 67q14 0 99 -89q54 -57 54 -65q0 -14 -84 -95q-60 -58 -70 -58q-15 0 -96 84q-57 59 -57 69v1zM259 22 q-13 0 -94 83q-58 59 -58 70v1q0 9 71 82q67 70 83 70q15 0 99 -88q54 -56 54 -65q0 -14 -84 -96q-59 -57 -69 -57h-1h-1z" />
<glyph unicode="&#x2013;" horiz-adv-x="1968" d="M425 -16q-140 0 -228 123q-86 119 -86 300q0 343 238 663q202 273 521 455q73 42 149 76q366 165 802 200q86 6 162 6q44 0 48 -7q2 -3 2 -10q0 -29 -27 -60q-42 -49 -62 -89q-62 -127 -83 -404q-14 -182 -14 -677q0 -205 23 -326q6 -31 6 -52q0 -33 -64 -103 q-73 -83 -126 -94q-6 -1 -11 -1q-14 0 -17 16q-1 2 -2 10q-18 106 -24 205q-95 -95 -225 -160q-140 -72 -269 -72q-154 0 -246 146q-22 35 -36 71l-16 -16q-206 -200 -415 -200zM1333 609q-42 0 -77 26q-35 27 -67 33q-18 3 -40 3q-36 0 -69 -12q-30 -67 -30 -131 q0 -161 104 -257q60 -55 131 -67q15 -2 35 -2q110 0 211 53q52 27 66 53q28 51 31 133l2 332q3 107 9 225q20 361 110 536l30 54l-53 -1q-348 -15 -658 -119q-223 -75 -387 -189q-233 -161 -315 -433q-37 -124 -37 -257q0 -174 88 -286q78 -101 191 -101q103 0 160 40 q20 14 29 31q18 33 37 122q26 118 77 199q52 83 145 168q143 124 278 126q140 0 156 -98q2 -11 2 -22q0 -46 -31 -92q-45 -67 -128 -67z" />
<glyph unicode="&#x2014;" horiz-adv-x="1114" d="M723 629l-416 24q-121 0 -153 -18l-47 -31q-4 -3 -9 -5q-21 -10 -35 -10q-15 0 -15 17q0 42 76 120q69 71 142 107q72 34 182 37q19 1 43 1q12 0 294 -18q86 -6 119 -6q44 0 78 25q24 17 44 17q17 0 17 -17q0 -27 -39 -78q-23 -29 -26 -41q-4 -17 -4 -82q0 -309 -15 -755 q-6 -196 -13 -269q-23 -234 -83 -366q-49 -108 -145 -211q-70 -75 -122 -90q-8 -2 -14 -2q-16 0 -18 15q0 29 42 81q41 53 54 80q63 139 77 442l17 737l4 207q4 67 19 94z" />
<glyph unicode="&#x2018;" d="M-1279 -696q0 -69 43 -97q17 -10 37 -10q53 0 123 75q77 84 229 313q88 134 112 160q24 28 38 28q20 0 24 -19q1 -4 1 -7q0 -11 -37 -82l-40 -78q-136 -266 -230 -384q-148 -189 -300 -189q-86 0 -136 64q-35 46 -35 108q0 118 103 217q59 56 103 66q5 1 9 1q18 0 18 -17 q0 -23 -24 -51q-32 -36 -37 -73q-1 -12 -1 -25z" />
<glyph unicode="&#x2019;" d="M-957 -648q0 -87 61 -117q16 -8 28 -8q82 0 187 178l89 169q81 159 95 178q16 22 31 22q22 0 25 -24q1 -2 1 -5q0 -4 -1 -7l-13 -38l-93 -253q-70 -174 -134 -257q-88 -115 -197 -146q-30 -9 -59 -9q-82 0 -134 62q-41 49 -41 117q0 84 70 183q57 81 107 95q6 2 12 2 q19 0 19 -19q0 -29 -28 -65q-25 -33 -25 -58z" />
<glyph unicode="&#x201a;" d="M-1201 -249q-58 0 -69 51q-2 9 -2 17q0 39 47 84q60 58 330 247q109 77 113 79q12 6 27 6q28 -1 32 -26q1 -3 1 -6q0 -21 -34 -55l-73 -76q-153 -158 -181 -185q-123 -119 -167 -133q-8 -3 -24 -3z" />
<glyph unicode="&#x201c;" d="M-847 -708q0 -65 40 -96q18 -14 40 -14q49 0 105 56q82 81 256 348q92 140 122 170q18 17 29 17q18 0 24 -18q1 -4 1 -8q0 -9 -25 -59l-51 -97q-135 -266 -224 -383q-156 -208 -318 -208q-89 0 -139 70q-31 45 -31 100q0 114 100 215q60 59 104 70q5 1 9 1q17 0 20 -14 q0 -1 -1 -6q0 -21 -25 -51q-33 -40 -36 -81v-12z" />
<glyph unicode="&#x201d;" d="M-576 -669q0 -57 37 -95q23 -24 54 -24q80 0 182 172q52 90 98 185q83 166 102 189q13 16 26 16q22 0 25 -24v-5q0 -10 -7 -27l-45 -124q-103 -286 -177 -394l-15 -21q-121 -158 -260 -158q-93 0 -144 74q-31 46 -31 103q0 88 73 187q56 77 105 91q5 2 10 2q20 2 21 -19 q0 -25 -28 -64q-26 -36 -26 -64z" />
<glyph unicode="&#x201e;" d="M-979 1665q0 45 37 64q14 7 30 7q35 0 63 -27q45 -42 181 -259q131 -209 156 -255q33 -58 33 -72q0 -35 -34 -35q-17 0 -29 12q-14 10 -192 219l-24 28l-163 203q-35 47 -39 55q-19 33 -19 60z" />
<glyph unicode="&#x2020;" d="M-649 1665q0 46 38 64q13 7 29 7q35 0 63 -27q45 -42 181 -259q154 -246 179 -301q9 -19 9 -26q-6 -31 -33 -35q-18 0 -30 12q-14 10 -200 229l-178 221q-41 56 -49 74q-9 21 -9 41z" />
<glyph unicode="&#x2021;" horiz-adv-x="1099" d="M688 12q-99 -25 -157 -27q-16 -1 -34 -1q-137 0 -237 82q-57 47 -93 117q-38 76 -38 161q0 109 61 214q70 122 192 216q20 16 40 29q128 86 259 86q133 0 206 -54q57 -43 55 -112q-3 -89 -79 -132q-38 -21 -79 -21q-44 0 -83 31q-45 36 -72 47q-53 22 -138 22 q-60 0 -119 -25q-24 -57 -24 -114q0 -155 121 -255q90 -74 211 -74q172 0 282 84l69 55q25 17 48 17q16 0 17 -16q0 -45 -124 -171l-161 -159l-162 -166q-138 -136 -185 -136q-16 0 -16 15q0 39 67 112q20 21 82 84z" />
<glyph unicode="&#x2022;" horiz-adv-x="1097" d="M633 -639q17 0 17 -17q0 -43 -80 -124q-79 -79 -167 -123q-81 -38 -157 -38q-133 0 -220 99q-27 30 -46 68q-31 62 -31 136q0 131 102 295q58 93 145 185l15 16l1 37q9 158 9 588l3 386v1q9 311 57 498q57 233 226 382l13 11q55 46 88 46q17 0 17 -17q0 -29 -44 -82 q-35 -42 -44 -61q-98 -200 -98 -809v-36l1 -74l20 16q190 143 350 145q133 2 183 -127q21 -55 21 -116q0 -124 -88 -271q-77 -128 -209 -239q-54 -45 -164 -118q-118 -78 -237 -179q-109 -92 -140 -218q-9 -38 -9 -76q0 -62 38 -133q73 -135 223 -135q69 0 126 44 q40 31 54 36q12 4 25 4zM795 466q0 70 -34 130q-42 74 -122 74h-21q-101 -7 -178 -62l-1 -134q-1 -247 -9 -399q0 -19 -1 -36q19 0 165 113q91 69 123 102q78 78 78 212z" />
<glyph unicode="&#x2026;" d="M-923 1674q0 48 40 65q14 5 30 5q44 0 97 -60l37 -44q122 -140 313 -387q66 -87 78 -107q5 -9 5 -23q-6 -29 -33 -34q-21 0 -63 38l-88 85q-346 326 -403 416q-5 8 -7 13q-6 17 -6 33z" />
<glyph unicode="&#x2030;" d="M-1370 -748q-48 0 -65 40q-6 13 -6 29q0 49 64 91q151 106 400 256q189 114 214 114q33 -2 33 -33q0 -23 -24 -43l-285 -234q-180 -143 -267 -200q-4 -2 -7 -4q-27 -16 -57 -16z" />
<glyph unicode="&#x2039;" d="M-810 -702q-47 0 -64 40q-6 13 -6 28q0 34 28 65q31 33 147 122l200 143l106 75q20 12 37 12q27 -2 31 -27q1 -3 1 -6q0 -20 -30 -51l-84 -87q-258 -270 -320 -303q-24 -11 -46 -11z" />
<glyph unicode="&#x203a;" horiz-adv-x="1009" d="M30 1223q0 40 72 116q97 103 206 142q47 16 89 16q86 0 103 -90q2 -13 3 -13q78 43 96 50q48 19 103 19q61 0 84 -67q20 -57 20 -174q0 -750 -93 -990q-74 -188 -328 -401l-175 -143q-22 -20 -31 -32q-20 -26 -20 -62q0 -61 54 -93q30 -19 66 -19q40 0 80 32q42 28 64 30 q17 0 17 -18q0 -36 -67 -109q-93 -102 -197 -139q-42 -14 -79 -14q-88 0 -132 65q-24 36 -24 82q0 99 117 241q26 32 57 64q147 155 166 790q11 436 11 576q0 131 -24 169q-11 19 -29 26q-5 2 -21 2q-53 0 -97 -36q-35 -28 -54 -33q-11 -4 -25 -4q-12 0 -12 17zM587 1008 q0 194 -37 227q-12 10 -31 10h-9v-5q0 -248 -15 -639q-3 -87 -6 -132q-24 -330 -109 -523q1 0 40 33q82 72 117 228q50 219 50 801z" />
<glyph unicode="&#x2122;" d="M-1206 -423q0 79 71 160q75 88 167 101q13 2 26 2q70 0 119 -50q8 -9 15 -19q29 -42 29 -93q0 -95 -87 -179q-76 -73 -157 -84q-10 -1 -20 -1q-87 0 -134 68q-29 43 -29 95zM-911 -425q0 69 -53 108q-35 26 -83 26q-23 0 -26 -8q-2 -5 -2 -21q0 -78 63 -116 q32 -19 71 -19q25 0 29 8q1 6 1 22z" />
<glyph unicode="&#x25fc;" horiz-adv-x="1030" d="M0 1030h1030v-1030h-1030v1030z" />
<glyph unicode="&#x2e2c;" horiz-adv-x="1091" d="M627 698q0 12 73 86q66 67 81 67q14 0 99 -89q54 -57 54 -65q0 -14 -84 -95q-60 -58 -70 -58q-15 0 -96 84q-57 59 -57 69v1zM779 22q-13 0 -94 83q-58 59 -58 70v1q0 9 71 82q67 70 83 70q15 0 99 -88q54 -56 54 -65q0 -14 -84 -96q-59 -57 -69 -57h-1h-1zM107 698 q0 12 73 86q66 67 81 67q14 0 99 -89q54 -57 54 -65q0 -14 -84 -95q-60 -58 -70 -58q-15 0 -96 84q-57 59 -57 69v1zM259 22q-13 0 -94 83q-58 59 -58 70v1q0 9 71 82q67 70 83 70q15 0 99 -88q54 -56 54 -65q0 -14 -84 -96q-59 -57 -69 -57h-1h-1z" />
<glyph unicode="&#x3020;" horiz-adv-x="540" />
<glyph unicode="&#x3021;" horiz-adv-x="1337" d="M1022 387q0 119 -80 202q-79 81 -197 81q-113 0 -235 -80q-44 -29 -63 -52q-50 -61 -60 -194q-2 -19 -8 -246q-9 -306 -62 -586q-35 -191 -107 -308q-18 -29 -40 -59q-72 -97 -145 -145q-33 -22 -54 -22q-18 0 -18 17q0 24 56 98q29 40 36 54q116 255 123 1190 q1 73 1 155q0 512 28 713q11 80 31 163q62 244 240 393q55 46 88 46q17 0 17 -16q0 -30 -26 -59q-41 -46 -59 -83q-65 -127 -88 -416q-13 -159 -13 -484v-146l17 16q131 129 282 204q130 65 241 65q148 0 238 -105q75 -88 75 -212q0 -196 -191 -389q-120 -121 -253 -187 q-60 -29 -90 -29q-16 0 -16 16q0 33 54 97q66 78 137 103q91 31 109 70q30 61 32 135z" />
<glyph unicode="&#x3023;" d="M-1106 1415q-16 0 -101 90q-53 55 -53 63t20 29l122 121q7 4 12 4q17 0 102 -90q53 -55 53 -64q0 -12 -72 -85q-67 -68 -83 -68zM-753 1718l13 4q12 0 42 -32l39 -40q70 -69 72 -76q1 -2 1 -6q0 -11 -72 -84q-67 -69 -83 -69t-100 88q-53 56 -53 65t20 29zM-1442 1307 q0 11 77 89q64 64 77 64q16 0 100 -88q53 -56 53 -65q0 -16 -85 -98q-58 -56 -68 -56q-15 0 -97 85q-57 59 -57 69zM-1076 1307q0 12 77 90q64 63 76 63q17 0 99 -87q55 -57 55 -66q0 -15 -82 -95q-61 -59 -72 -59q-14 0 -93 82q-60 61 -60 72zM-711 1307q0 11 76 88 q65 65 78 65q16 0 102 -90q52 -55 52 -63q0 -14 -82 -94q-61 -60 -72 -60q-15 0 -99 87q-55 58 -55 67z" />
<glyph unicode="&#x3024;" d="M-1273 1091q-29 7 -33 33q0 15 11 30q19 24 250 230q224 199 294 246q32 21 57 21q63 0 76 -51q2 -9 2 -17q0 -37 -35 -72l-28 -23q-144 -112 -382 -272q-186 -125 -212 -125zM-925 1091q-29 7 -33 33q0 15 11 30q19 24 250 230q224 199 294 246q32 21 58 21q62 0 75 -52 q2 -8 2 -16q0 -37 -44 -79q-54 -51 -291 -212q-246 -170 -301 -195q-14 -6 -21 -6z" />
<glyph unicode="&#x3026;" d="M-1118 1602q0 42 73 102q88 73 178 86q15 3 29 3q92 0 147 -77q8 -12 15 -25q100 82 173 97q23 5 47 5q94 0 145 -72q34 -46 34 -103q0 -246 -505 -432q100 37 -71 -26l-134 -50q-20 -8 -29 -8q-24 0 -28 24q0 28 119 89l223 113q208 112 231 198q3 11 3 22q0 30 -29 58 q-34 31 -91 31q-31 0 -48 -15q-15 -13 -25 -19q-19 -136 -137 -230q-125 -99 -438 -213l-134 -50q-20 -8 -29 -8q-24 0 -28 24q0 28 119 89l223 113q208 112 231 198q3 11 3 22q0 30 -29 58q-34 31 -91 31q-28 0 -67 -28q-35 -26 -61 -26q-19 0 -19 19z" />
<glyph unicode="&#x302e;" horiz-adv-x="1376" d="M499 -16q-172 0 -278 113q-93 101 -93 245q0 225 236 420l10 9q130 104 258 116l29 1q178 0 289 -112q99 -102 99 -250q0 -124 -76 -232q-36 -51 -37 -53l23 -1q51 -1 150 -23q72 -15 131 -15q152 0 199 38q53 43 85 43q17 0 17 -15q0 -29 -49 -92q-95 -118 -234 -165 q-48 -17 -99 -22q-50 -5 -109 -5q-58 0 -166 23q-72 15 -118 15l-36 -1h-1l-194 -34q-22 -3 -36 -3zM831 344q0 129 -90 222q-102 104 -264 104q-49 0 -94 -19q-13 -5 -15 -10l-6 -14q-17 -45 -17 -102q0 -111 76 -203q82 -101 211 -118q14 -2 39 -2q80 0 125 24q12 7 15 13 q20 46 20 105z" />
<glyph unicode="&#x3030;" d="M-108 345q0 36 65 108q72 80 124 91q7 2 12 2q17 0 17 -17q0 -36 -64 -108q-72 -80 -125 -92q-6 -1 -12 -1q-17 0 -17 17z" />
<glyph unicode="&#x3031;" horiz-adv-x="1449" d="M38 579q-17 0 -17 19q0 40 76 119q77 80 162 121q71 33 132 33q70 0 96 -74q7 -20 12 -48v-73l1 -73l16 16q120 117 262 193q121 65 223 75l16 1h29q132 0 221 -94q85 -90 85 -223q0 -202 -197 -396q-120 -119 -253 -182q-57 -28 -86 -28q-16 0 -16 18q0 34 57 99 q68 78 136 101q90 30 108 67q31 63 33 140q0 106 -70 186q-73 86 -188 94q-10 1 -21 1q-104 0 -222 -74q-58 -36 -81 -68q-44 -61 -53 -190l-12 -348q-12 -222 -52 -451q-36 -201 -100 -316q-44 -78 -116 -154q-71 -75 -122 -90q-8 -2 -14 -2q-17 0 -17 17q0 27 24 57 q43 50 64 94q39 82 64 223q44 252 55 549q9 215 9 550q0 139 -35 171q-15 14 -38 14q-54 0 -97 -36q-34 -29 -50 -34q-11 -4 -24 -4z" />
<glyph unicode="&#x3032;" horiz-adv-x="2080" d="M38 579q-17 0 -17 19q0 40 76 119q77 80 162 121q71 33 132 33q85 0 105 -107q3 -15 3 -79l1 -65l23 23q158 154 310 215q64 28 140 30h11q139 0 228 -136q42 -65 49 -116q1 0 49 46q216 206 402 206q124 0 202 -94q69 -83 69 -202q0 -173 -149 -354q-126 -152 -293 -237 q-28 -14 -55 -25t-37 -11q-18 0 -18 18q0 35 60 103q62 70 124 94q68 28 93 53q33 33 48 100q9 37 9 74q0 112 -73 190q-68 73 -169 73q-72 0 -139 -45q-34 -23 -52 -51q-31 -49 -81 -164q-38 -88 -73 -139q-70 -106 -172 -186q-106 -83 -211 -100q-8 -1 -28 -1 q-165 5 -169 121q0 47 33 94q46 65 130 65q35 0 70 -25q40 -30 79 -35q15 -2 33 -2q62 0 75 18q4 5 9 16q25 60 25 131q0 106 -63 196q-76 108 -193 108q-93 0 -187 -70q-17 -12 -29 -24q-68 -68 -79 -198q-2 -27 -4 -130q-12 -549 -91 -846q-13 -49 -28 -87 q-56 -147 -172 -260q-79 -77 -123 -78q-17 0 -17 17q0 27 24 57q43 50 64 94q39 82 64 223q44 252 55 549q9 215 9 550q0 139 -35 171q-15 14 -38 14q-54 0 -97 -36q-34 -29 -50 -34q-11 -4 -24 -4z" />
<glyph unicode="&#x3033;" horiz-adv-x="1337" d="M1023 387q0 123 -86 207q-78 76 -189 76t-224 -71q-49 -31 -70 -59q-46 -62 -61 -158q-16 -97 -25 -127q-31 -98 -125 -192q-69 -69 -114 -78q-5 -1 -9 -1q-17 0 -17 17q0 29 20 52q29 33 39 77q6 28 9 67q2 30 2 372q1 242 9 392q15 293 62 446q57 185 197 324 q77 77 120 77q18 0 18 -18q0 -34 -66 -111q-12 -13 -14 -17q-105 -181 -105 -815q-1 -73 -1 -188l-1 -55l21 20q115 115 254 189q141 75 261 75q148 0 238 -105q75 -88 75 -212q0 -204 -196 -397q-120 -119 -254 -182q-58 -27 -86 -27q-16 0 -16 17q0 36 59 103 q68 76 133 98q91 29 110 68q-9 -17 6 14q26 58 26 122z" />
<glyph unicode="&#x3034;" horiz-adv-x="2037" d="M941 367q0 105 -63 194q-76 109 -194 109q-87 0 -176 -62q-24 -16 -35 -29q-58 -67 -75 -166l-19 -116q-27 -125 -136 -234q-69 -69 -114 -78q-5 -1 -9 -1q-17 0 -17 17q0 29 20 52q29 33 39 77q6 28 9 67q2 30 2 372q1 242 9 392q15 293 62 446q57 185 197 324 q77 77 120 77q18 0 18 -18q0 -34 -66 -111q-12 -13 -14 -17q-105 -181 -105 -841q-1 -88 -1 -179l-1 -20l25 25q138 138 282 201q91 40 169 40q134 0 224 -124q49 -67 56 -120q1 -5 1 -8q2 0 27 26q34 36 82 74q173 139 318 152q13 1 25 1q164 0 237 -153q35 -75 35 -143 q0 -218 -266 -477q-46 -46 -105 -97q-64 -54 -97 -54q-17 0 -17 18q0 45 106 147q90 85 97 93q12 13 18 23q45 68 45 163q0 135 -102 214q-20 15 -40 25q-45 22 -90 22q-57 0 -125 -31q-46 -21 -65 -48q-19 -28 -97 -191q-46 -96 -68 -129q-103 -154 -237 -232 q-94 -55 -183 -55q-159 0 -159 122q0 84 71 131q42 27 88 27q37 0 71 -25q39 -28 75 -34q17 -3 39 -3q62 0 75 18q3 4 8 16q26 60 26 131z" />
<glyph unicode="&#x3035;" horiz-adv-x="2080" d="M25 596q0 48 82 128q99 97 208 133q44 14 81 14q84 0 104 -101q5 -28 5 -92l-1 -56l25 25q202 202 400 237q14 2 29 4h26q136 0 225 -133q44 -65 52 -114v-5q5 0 27 25q68 77 189 149q129 79 235 79q120 0 199 -92q73 -85 73 -208q0 -155 -136 -330q-122 -158 -288 -248 q-37 -20 -74 -35q-27 -11 -37 -11q-18 0 -18 18q0 35 60 103q62 70 124 94q110 42 139 135q12 38 12 87q0 170 -130 239q-55 29 -103 29q-57 0 -125 -31q-45 -21 -64 -48q-34 -48 -87 -168q-44 -99 -79 -152q-99 -149 -230 -228q-98 -59 -189 -59q-160 0 -160 121 q0 83 70 130q42 29 89 29q38 0 72 -25q39 -28 76 -34q17 -3 38 -3q61 0 74 17q3 4 9 17q25 56 25 131q0 135 -90 227q-61 63 -134 74q-12 2 -33 2q-87 0 -176 -62q-24 -16 -35 -29q-54 -62 -75 -172l-21 -121q-15 -65 -45 -113q-58 -94 -141 -156q-45 -33 -70 -33 q-18 0 -18 17q0 25 22 52q32 38 41 88q9 54 9 360q0 138 -58 151q-7 1 -14 1q-54 0 -99 -37q-34 -29 -50 -33q-11 -4 -22 -4q-18 0 -18 17z" />
<glyph unicode="&#x3036;" horiz-adv-x="1449" d="M25 596q0 48 82 128q99 97 208 133q44 14 81 14q84 0 104 -101q5 -23 5 -102l-1 -64l21 20q98 98 227 174q155 90 276 90q156 0 249 -103q75 -86 75 -207q0 -206 -192 -400q-119 -121 -253 -184q-60 -29 -91 -29q-16 0 -16 18q0 34 57 99q68 78 136 101q89 29 108 67 q-23 -46 7 14q26 59 26 123q0 123 -85 206q-79 77 -189 77q-111 0 -226 -72q-49 -31 -69 -58q-45 -62 -62 -163q-16 -99 -26 -131q-13 -39 -34 -73q-56 -93 -139 -155q-47 -34 -72 -34q-18 0 -18 17q0 25 22 52q32 38 41 88q10 59 10 380q-8 124 -73 132q-54 0 -99 -37 q-34 -29 -50 -33q-11 -4 -22 -4q-18 0 -18 17z" />
<glyph unicode="&#x3037;" d="M-108 345q0 36 65 108q72 80 124 91q7 2 12 2q17 0 17 -17q0 -36 -64 -108q-72 -80 -125 -92q-6 -1 -12 -1q-17 0 -17 17z" />
<glyph unicode="&#x3038;" d="M-108 345q0 36 65 108q72 80 124 91q7 2 12 2q17 0 17 -17q0 -36 -64 -108q-72 -80 -125 -92q-6 -1 -12 -1q-17 0 -17 17z" />
<glyph unicode="&#x3039;" horiz-adv-x="1335" d="M37 1462q0 39 71 113q93 97 193 130q35 11 66 11q77 0 117 -71q3 -7 6 -13l560 -1383q30 -57 90 -69q10 -2 20 -2q36 -1 75 34q36 33 55 39q11 4 23 4q18 0 20 -10q1 -3 1 -8q0 -39 -70 -112q-92 -98 -190 -130q-34 -11 -65 -11q-89 0 -140 75q-5 8 -9 15q-4 9 -98 240 l-93 229q-1 0 -12 -21q-165 -298 -247 -390q-39 -44 -93 -82q-93 -66 -181 -66q-43 0 -91 52q-20 23 -20 33q0 53 85 131q69 62 109 70q3 1 6 1q9 0 36 -29q37 -40 64 -40l16 1l23 38q38 63 152 267l80 144q16 30 16 32l-314 777q-17 38 -52 54q-14 6 -29 6q-41 0 -81 -35 q-35 -32 -53 -38q-12 -4 -25 -5q-21 0 -21 19z" />
<glyph unicode="&#x303c;" horiz-adv-x="1331" d="M214 357q0 129 101 265q113 153 286 222q109 44 226 44q92 0 143 -28q16 -8 25 -8q2 0 2 39q10 307 50 465q57 223 212 375q78 77 119 77q18 0 18 -18q0 -28 -42 -79q-39 -47 -50 -71q-62 -134 -81 -434q-13 -217 -13 -645q0 -203 23 -323q6 -33 6 -56q0 -48 -85 -125 q-69 -64 -109 -73h-7q-9 0 -17 9l-28 -2q-214 -15 -574 -15q-152 0 -264 23q-37 8 -55 17q-7 4 -7 16q0 51 83 124q54 47 72 47q-33 89 -34 154zM997 177q-4 95 -5 195l-1 95q-43 130 -157 189q-73 38 -166 38q-72 0 -153 -25q-71 -22 -85 -53q-21 -44 -21 -105 q0 -117 82 -213q81 -94 207 -119q32 -6 111 -6z" />
<glyph unicode="&#x3040;" horiz-adv-x="2037" d="M940 364q0 107 -63 198q-76 108 -193 108q-109 0 -210 -86q-75 -64 -86 -220q-2 -25 -4 -115q-14 -644 -118 -923q-38 -104 -96 -181q-72 -97 -145 -145q-33 -22 -54 -22q-18 0 -18 17q0 24 56 98q29 40 36 54q116 255 123 1190q1 73 1 155q0 512 28 713q11 80 31 163 q62 244 240 393q55 46 88 46q17 0 17 -16q0 -30 -26 -59q-41 -46 -59 -83q-65 -127 -88 -416q-13 -156 -13 -475v-138l22 22q240 235 442 246h16q134 0 224 -124q49 -67 56 -120q1 -5 1 -8q6 0 26 23q66 77 190 151q130 79 236 79q119 0 198 -92q74 -85 74 -206 q0 -170 -156 -356q-43 -51 -105 -113q-133 -133 -182 -152q-12 -5 -22 -5q-18 0 -18 17q0 45 110 153q87 84 96 94q8 10 13 17q45 68 45 163q0 135 -102 214q-20 15 -40 25q-45 22 -90 22q-57 0 -124 -31q-47 -21 -66 -48q-21 -30 -98 -193q-45 -94 -67 -127 q-107 -158 -243 -235q-91 -52 -177 -52q-159 0 -159 122q0 84 71 131q42 27 88 27q37 0 71 -25q39 -28 75 -34q17 -3 39 -3q65 0 77 20q1 2 6 14q26 59 26 128z" />
<glyph unicode="&#x3043;" d="M-438 1686l12 2q12 0 42 -30l107 -107l66 67l64 63q9 7 17 7q18 0 103 -89q52 -55 52 -64q0 -12 -76 -89q-65 -64 -79 -64q-12 0 -47 35l-33 34l-67 68l-68 -67q-62 -62 -65 -64q-8 -6 -16 -6q-16 0 -101 90q-53 55 -53 63t21 30zM-727 1307q0 12 76 88q64 65 77 65 q11 0 40 -30l109 -108l66 67q73 69 81 71q9 0 31 -20l117 -118l68 67q73 69 80 71q15 0 96 -83q58 -59 58 -70q0 -15 -82 -95q-60 -59 -72 -59q-8 0 -29 21l-119 117l-66 -66q-73 -70 -82 -72q-9 0 -32 23l-115 115l-68 -67q-73 -69 -80 -71q-15 0 -95 82q-59 61 -59 72z " />
<glyph unicode="&#x3044;" d="M-679 1390q-15 0 -105 93q-48 51 -48 57v3v1q0 9 71 82q67 70 83 70t102 -92q51 -53 51 -61q0 -14 -86 -96q-58 -57 -68 -57zM-519 1543q0 12 76 89q65 64 78 64q16 0 100 -88q53 -56 53 -65q0 -15 -84 -95q-59 -58 -70 -58q-13 0 -93 81q-60 61 -60 72zM-989 1307 q0 12 77 90q64 63 76 63q17 0 99 -87q55 -57 55 -66q0 -15 -82 -95q-61 -59 -72 -59q-14 0 -93 82q-60 61 -60 72zM-676 1307q0 11 77 89q64 64 77 64q16 0 100 -88q53 -56 53 -65q0 -16 -87 -99q-57 -55 -66 -55q-15 0 -97 85q-57 59 -57 69zM-362 1308q0 11 77 88 q63 64 76 64q16 0 101 -88q53 -56 53 -65q0 -15 -85 -98q-59 -56 -69 -56q-14 0 -95 83q-58 60 -58 71v1z" />
<glyph unicode="&#x3045;" d="M-791 1398q-18 0 -103 90q-51 54 -51 63t20 30l121 121l13 2q18 0 102 -88q52 -56 52 -65q0 -12 -78 -90q-63 -63 -76 -63zM-460 1398q-18 0 -103 90q-51 54 -51 63t20 30l52 53l69 68l13 2q17 0 101 -88q53 -56 53 -65q0 -12 -78 -90q-63 -63 -76 -63zM-1110 1307 q0 12 76 88q64 65 78 65q16 0 100 -88q53 -56 53 -65q0 -16 -87 -99q-57 -55 -66 -55q-15 0 -95 82q-59 61 -59 72zM-779 1307q0 12 77 90q64 63 76 63q17 0 99 -87q55 -57 55 -66q0 -15 -82 -95q-61 -59 -72 -59q-14 0 -93 82q-60 61 -60 72zM-448 1308q0 10 75 87 q65 65 78 65q16 0 102 -90q52 -55 52 -63q0 -14 -82 -94q-61 -60 -72 -60q-16 0 -105 94q-48 51 -48 57v3v1z" />
<glyph unicode="&#x3046;" d="M-871 1091q-30 7 -34 33q0 15 11 30q22 28 264 242q210 185 280 234q32 21 58 21q61 0 74 -50q3 -9 3 -18q0 -38 -44 -79q-55 -52 -290 -212q-197 -135 -244 -164q-62 -37 -78 -37zM-523 1091q-30 7 -34 33q0 15 11 30q22 28 264 242q210 185 280 234q32 21 58 21 q61 0 74 -50q3 -9 3 -18q0 -38 -44 -79q-55 -52 -290 -212q-194 -133 -237 -159q-68 -42 -85 -42z" />
<glyph unicode="&#x3048;" d="M-948 1100q-24 0 -24 25q0 15 16 37l68 87q249 326 379 429q18 14 36 26q89 61 172 73q11 1 19 1q10 1 19 1q91 0 140 -62l17 -24q27 27 100 57q71 29 127 29q92 0 141 -65q31 -41 31 -97q0 -93 -80 -187q-69 -81 -140 -97q-13 -3 -25 -3q-25 0 -25 18q0 13 28 47 q49 59 53 114v11q0 75 -53 89q-8 2 -16 2q-47 0 -102 -43q-40 -34 -49 -54q-16 -34 -42 -69q-67 -86 -142 -108q-12 -4 -13 -5q-2 0 -47 -47q-73 -79 -165 -163q-24 -22 -40 -22q-24 0 -24 25q0 15 16 37l68 87q130 170 205 255l22 25q-12 46 -20 58q-16 25 -50 25 q-58 0 -168 -100q-61 -55 -200 -199l-148 -149q-62 -59 -74 -63q-4 -1 -10 -1z" />
<glyph unicode="&#x304a;" d="M-695 1570q-19 0 -19 19q0 27 49 81q85 94 190 113q22 4 44 4q106 0 157 -93q4 -9 6 -9l53 43q83 59 166 59q96 0 146 -72q31 -45 31 -102q0 -77 -62 -165q-41 -58 -104 -106q-98 -74 -376 -188l-87 -37q-37 -15 -44 -15q-26 0 -28 24q0 27 110 91l196 111 q189 115 205 196q1 8 1 16q0 38 -34 63q-30 22 -81 24q-35 1 -56 -15l-24 -19q-7 -75 -71 -159q-39 -51 -94 -92q-98 -74 -376 -188l-87 -37q-37 -15 -44 -15q-26 0 -28 24q0 27 111 90l193 111q191 115 207 196q2 9 2 17q0 29 -29 56q-32 30 -90 30q-37 0 -73 -29 q-37 -25 -60 -27z" />
<glyph unicode="&#x304d;" d="M-480 1579q1 38 56 100q84 94 188 112q20 4 39 4q108 0 157 -97l5 -11q78 64 115 83q51 25 107 25q90 0 140 -69q32 -44 32 -99q0 -164 -180 -302q-86 -63 -253 -152l-106 -58q-24 -13 -34 -13q-23 0 -27 19q-1 2 -1 5q0 24 62 70l149 108q70 54 131 111q78 73 78 129 q0 55 -73 73q-19 5 -34 5q-57 0 -98 -41q0 -52 -62 -138q-49 -68 -115 -118q-70 -52 -261 -159q-115 -64 -132 -64q-23 0 -27 19q-1 2 -1 5q0 24 62 70l149 108q70 54 131 111q78 73 78 129q0 55 -73 73q-19 5 -34 5q-51 0 -96 -37q-31 -26 -46 -28q-4 -1 -8 -1 q-18 0 -18 23z" />
<glyph unicode="&#x304e;" d="M-615 1099q-22 0 -26 27q0 14 27 60l127 214q179 294 338 359q49 20 97 20q109 0 165 -97q117 97 227 97q86 0 136 -64q35 -45 35 -104q0 -118 -106 -218q-62 -57 -108 -68q-5 -1 -10 -1q-19 0 -20 18q0 19 26 51q36 43 41 84q1 9 1 17q0 66 -40 95q-17 13 -38 13 q-69 0 -157 -110l-72 -92q-4 -5 -8 -9l-19 -19q-7 -6 -74 -93l-87 -113q-48 -58 -60 -64q-5 -3 -13 -3q-20 0 -24 20q-1 4 -1 7q0 27 210 361v9q0 47 -25 80q-21 26 -52 26q-78 0 -239 -202l-186 -244q-23 -28 -39 -44q-13 -13 -26 -13z" />
<glyph unicode="&#x3051;" horiz-adv-x="1345" d="M927 888q149 0 239 -105q74 -88 74 -212q0 -147 -118 -306q-107 -146 -252 -219q-46 -23 -91 -35q-46 -12 -60 -14q-54 -6 -309 -10l-37 -1l-2 -34q-33 -471 -121 -671q-31 -71 -80 -136q-72 -97 -145 -145q-33 -22 -54 -22q-18 0 -18 17q0 24 56 98q29 40 36 54 q116 255 123 1190q1 73 1 155q0 512 28 713q11 80 31 163q62 244 240 393q55 46 88 46q17 0 17 -16q0 -30 -26 -59q-41 -46 -59 -83q-65 -127 -88 -416q-13 -159 -13 -484v-146l17 16q131 129 282 204q130 65 241 65zM1022 388q0 126 -86 207q-79 75 -198 75 q-102 0 -223 -77q-48 -31 -68 -55q-65 -79 -63 -268q0 -75 -2 -84v-8l22 1l85 1h2q306 5 363 12q74 8 120 39q21 14 38 83q10 39 10 74z" />
<glyph unicode="&#x3052;" d="M-971 1089q-26 0 -31 25q-1 4 -1 9q0 20 37 69l66 86q176 234 279 351q21 23 32 33q34 32 70 32q46 0 63 -40q6 -14 6 -30q0 -34 -26 -68q-67 -87 -365 -365q-91 -86 -102 -93q-14 -9 -28 -9zM-622 1089q-29 7 -33 35q0 28 203 286q152 194 211 252q32 32 70 32 q45 0 63 -40q7 -14 7 -31q0 -34 -27 -67q-67 -87 -365 -365q-91 -86 -102 -93q-13 -9 -27 -9z" />
<glyph unicode="&#x3055;" d="M-852 1574q-16 0 -16 20q0 31 50 91q83 101 187 125q14 3 28 5h24q103 0 150 -93q4 -8 7 -16q109 109 222 109q119 0 158 -102q13 -34 13 -71q0 -151 -171 -292q-24 -19 -51 -38q-89 -62 -256 -157q-95 -54 -110 -54q-22 5 -26 25q0 21 39 52l159 121l101 83 q75 63 102 101q33 44 33 80q0 46 -50 67q-25 10 -55 10q-58 0 -101 -40q-38 -144 -165 -249q-75 -62 -268 -171l-24 -13l-102 -59q-15 -7 -26 -7q-22 5 -26 25q0 21 39 52l159 121l101 83q75 63 102 101q33 44 33 80q0 48 -53 68q-24 9 -53 9q-53 0 -97 -37q-31 -26 -47 -28 q-4 -1 -8 -1h-2z" />
<glyph unicode="&#x3056;" d="M-626 1089q-27 0 -32 25q-1 4 -1 9q0 20 37 69l66 86q225 300 311 384q33 32 70 32q46 0 63 -40q6 -14 6 -30q0 -34 -26 -68q-67 -87 -365 -365q-91 -86 -102 -93q-13 -9 -27 -9zM-278 1089q-29 7 -33 35q0 28 203 286q152 194 211 252q32 32 70 32q45 0 63 -40 q7 -14 7 -31q0 -34 -27 -67q-68 -88 -376 -376q-82 -77 -90 -82q-14 -9 -28 -9z" />
<glyph unicode="&#x3057;" horiz-adv-x="1978" d="M1356 0l-942 -15l-41 -1l-2 -33q-33 -473 -122 -673q-31 -69 -79 -133q-72 -97 -145 -145q-33 -22 -54 -22q-18 0 -18 17q0 24 56 98q29 40 36 54q116 255 123 1190q1 73 1 155q0 512 28 713q11 80 31 163q62 244 240 393q55 46 88 46q17 0 17 -16q0 -30 -26 -59 q-41 -46 -59 -83q-65 -127 -88 -416q-13 -156 -13 -475v-138l22 22q240 235 442 246h16q116 0 198 -90q59 -65 85 -169l27 27q146 143 291 202q77 31 143 31q112 0 189 -85q80 -87 80 -219q0 -131 -108 -288q-103 -151 -241 -233q-64 -38 -126 -53q-40 -10 -49 -11zM940 364 q0 68 -36 148q-70 155 -220 158h-7q-85 0 -181 -69q-13 -9 -22 -17q-75 -67 -86 -225q-2 -26 -4 -112l-2 -61v-8l59 1l173 1h8q203 3 228 6q39 5 53 27q37 59 37 151zM1661 407q0 117 -75 194q-68 69 -170 69q-53 0 -121 -36q-48 -25 -74 -60q-32 -44 -78 -149 q-56 -129 -121 -212l-23 -28l42 1q88 0 403 7q98 0 148 31q15 9 23 21q41 63 46 150v12z" />
<glyph unicode="&#x3059;" d="M-457 1472q-7 96 -55 112q-11 3 -23 3q-82 0 -257 -223l-165 -217q-22 -28 -35 -39q-11 -9 -23 -9q-20 0 -24 20q-1 3 -1 6q0 12 22 49l52 90q138 239 229 344q138 157 270 157q66 0 107 -26q16 -11 31 -26q21 -21 33 -45q113 97 227 97q81 0 132 -59q38 -46 38 -109 q0 -118 -105 -218q-60 -57 -105 -67q-5 -1 -9 -1h-6q-19 0 -19 16q0 19 25 49q36 44 42 88q1 10 1 22q0 61 -41 89q-16 12 -36 12q-61 0 -139 -84q-21 -24 -31 -40q-25 -43 -53 -71q-41 -39 -92 -107q-125 -163 -142 -177q-11 -9 -23 -9q-20 0 -24 20q-1 3 -1 6q0 12 22 49 l52 90q76 131 126 208z" />
<glyph unicode="&#x305e;" d="M-1400 1100q-25 0 -25 25q0 14 11 29q1 2 44 57l125 161q108 137 170 200q191 195 347 195q93 0 144 -67q8 -10 12 -19q5 0 41 25q88 60 187 60q96 0 145 -68q29 -41 29 -93q0 -91 -80 -185q-70 -83 -144 -100q-12 -3 -22 -3q-25 0 -25 18q0 13 29 48q49 60 52 114v11 q0 60 -37 82q-14 9 -34 9q-47 0 -114 -55l-25 -20q-19 -56 -73 -116q-63 -70 -136 -88l-48 -50q-105 -107 -132 -131q-44 -39 -58 -39q-25 0 -25 25q0 28 229 305q71 85 71 88q0 31 -22 58q-20 23 -50 23q-55 0 -154 -87q-58 -52 -207 -205l-143 -144q-60 -58 -71 -62 q-4 -1 -11 -1z" />
<glyph unicode="&#x3062;" horiz-adv-x="2037" d="M1052 881l880 8q21 0 24 -9q1 -4 1 -10q0 -24 -22 -53q-37 -47 -48 -107q-10 -48 -10 -115q0 -96 29 -310q11 -75 11 -103q0 -33 -64 -104q-73 -82 -125 -93q-7 -1 -12 -1q-14 0 -18 20l-26 218l-15 -14q-221 -208 -446 -223q-15 -1 -29 -1q-135 0 -219 110 q-36 48 -59 113q-107 -107 -247 -169q-121 -54 -238 -54q-125 0 -206 97q-74 88 -74 210q0 194 183 393q10 10 10 12h-6q-70 0 -147 17q-42 10 -52 21q-26 29 -35 77q-2 12 -2 23q0 72 79 156q62 65 109 75q5 1 10 1q18 0 18 -20q0 -19 -19 -49l-3 -6l1 -9q0 -25 22 -58 q30 -45 711 -44q22 1 34 1zM1724 693q0 -2 -396 -5q-138 0 -164 -11q-17 -8 -28 -30q-31 -66 -31 -140q0 -141 94 -233q59 -57 131 -70q9 -2 33 -2q109 0 205 54q39 21 52 40q35 52 40 138q6 97 14 133q14 59 46 118q4 5 4 8zM821 686l-270 2q-107 0 -142 -41l-6 -8 q-43 -72 -46 -162q0 -126 86 -209q54 -53 123 -64q9 -2 34 -2q115 0 217 54q29 16 43 30q20 20 29 77q14 92 40 151q38 83 115 172h-223z" />
<glyph unicode="&#x3065;" horiz-adv-x="1353" d="M116 -17q-12 13 -13 20q0 29 19 50q28 29 38 67q8 31 11 77q3 40 3 370q0 247 8 394q15 293 62 446q57 185 197 324q77 77 120 77q18 0 18 -18q0 -34 -66 -111q-12 -13 -14 -17q-105 -181 -105 -815q-1 -73 -1 -188l-1 -55l21 20q115 115 254 189q141 75 261 75 q147 0 236 -103q77 -89 77 -214q0 -159 -130 -323q-109 -138 -249 -206q-25 -11 -49 -20q-53 -20 -67 -22q-31 -5 -260 -10q-139 -4 -313 -6zM1023 388q0 127 -87 208q-79 74 -197 74q-100 0 -212 -69q-52 -33 -73 -61q-47 -64 -62 -161q-15 -95 -22 -121q-16 -45 -34 -78 q0 -1 19 -1q220 0 467 10q26 1 33 2q115 13 141 73q27 65 27 124z" />
<glyph unicode="&#x3068;" horiz-adv-x="1339" d="M214 671q-106 0 -113 7q-2 2 -2 11q0 34 60 103q72 81 129 95q10 2 142 2q136 0 144 -6q3 -2 3 -13q0 -29 -50 -89q-69 -82 -92 -122q-49 -84 -49 -173q0 -79 65 -161q83 -104 204 -121q19 -2 39 -2q75 0 152 30q74 29 97 76q21 43 30 140q10 117 36 183q38 95 127 183 q76 74 118 74q18 0 18 -17q0 -23 -23 -52q-37 -50 -49 -113q-8 -47 -8 -112q0 -96 28 -309q11 -75 11 -103q0 -50 -86 -128q-69 -62 -109 -69q-3 -1 -6 -1q-13 0 -17 14l-26 220l-17 -16q-207 -198 -423 -217q-20 -1 -39 -1q-142 0 -245 107q-82 86 -94 189q-1 13 -1 25 q0 155 150 366h-104z" />
<glyph unicode="&#x306a;" horiz-adv-x="1976" d="M665 699q-97 9 -200 10q-210 0 -297 -63l-42 -31q-16 -9 -34 -9t-18 19q1 40 73 115q13 13 27 26q131 120 294 148q73 13 175 13q148 0 464 -39q308 -38 454 -38q206 0 291 63l41 32q15 9 34 9q18 0 18 -17q0 -45 -82 -127q-47 -47 -100 -82q-124 -83 -311 -94 q-36 -2 -78 -2q-132 0 -434 35l-155 19l-18 -15q-221 -197 -304 -365q-63 -128 -63 -259q0 -249 164 -423q143 -153 360 -196q71 -15 144 -15q163 0 307 68q69 33 123 79q53 46 105 132q63 104 63 186q0 61 -33 105q-27 34 -32 53q-4 14 -4 32q0 102 94 145q35 16 64 16 q85 0 115 -82q14 -38 14 -91q0 -168 -198 -417q-82 -102 -156 -169q-305 -275 -645 -275q-251 0 -442 142q-176 130 -236 334q-26 87 -26 179q0 331 347 708q58 63 126 128q11 11 11 13z" />
<glyph unicode="&#x306e;" horiz-adv-x="1396" d="M755 881l537 8q19 -6 21 -19q0 -24 -22 -53q-37 -47 -48 -106q-10 -49 -10 -118q0 -95 29 -301q11 -79 11 -110q0 -32 -64 -104q-74 -82 -126 -93q-6 -1 -11 -1q-14 0 -19 20l-22 192l-4 38l-13 -11q-227 -209 -475 -236q-31 -3 -60 -3q-151 0 -241 104q-76 88 -76 214 q0 186 188 388q-156 11 -195 27q-20 8 -31 20q-36 44 -36 95q0 69 77 153q63 69 112 79q6 2 11 2q18 0 18 -20q0 -14 -18 -49q-5 -9 -5 -14q0 -30 25 -60q5 -7 9 -9q52 -33 438 -33zM380 486q0 -120 81 -203q79 -81 197 -81q123 0 244 57q64 31 82 58q28 43 29 89 q4 179 67 286h-40q-5 -1 -375 -6l-125 -1q-104 -14 -130 -69q-30 -61 -30 -130z" />
<glyph unicode="&#x3071;" horiz-adv-x="1464" d="M38 579q-17 0 -17 19q0 40 76 119q77 80 162 121q71 33 132 33q70 0 96 -74q7 -20 12 -48v-73l1 -73l16 16q120 117 262 193q121 65 223 75l16 1h29q132 0 221 -94q85 -90 85 -223q0 -153 -124 -314q-109 -142 -254 -213q-33 -16 -65 -27q-51 -17 -61 -18 q-41 -7 -304 -11l-58 -2l-2 -34q-34 -467 -118 -665q-24 -56 -56 -104q-70 -106 -153 -169q-46 -36 -74 -36q-17 0 -17 17q0 27 24 57q43 50 64 94q39 82 64 223q44 252 55 549q9 215 9 550q0 139 -35 171q-15 14 -38 14q-54 0 -97 -36q-34 -29 -50 -34q-11 -4 -24 -4z M1134 390q0 105 -70 187q-71 82 -183 93q-11 1 -22 1q-112 0 -233 -79q-53 -34 -74 -63q-32 -44 -42 -94q-15 -72 -15 -248l-1 -9l23 1l85 1h2q300 5 360 11q75 9 120 38q23 14 40 85q10 40 10 76z" />
<glyph unicode="&#x3072;" horiz-adv-x="1984" d="M116 -17q-12 13 -13 20q0 29 19 50q28 29 38 67q8 31 11 77q3 40 3 370q0 247 8 394q15 293 62 446q57 185 197 324q77 77 120 77q18 0 18 -18q0 -34 -66 -111q-12 -13 -14 -17q-105 -181 -105 -841q-1 -88 -1 -179l-1 -20l25 25q138 138 282 201q91 40 169 40 q116 0 198 -90q59 -65 85 -169l27 27q146 143 291 202q77 31 143 31q112 0 189 -85q80 -87 80 -219q0 -134 -102 -282q-44 -65 -106 -127q-117 -117 -225 -152q-55 -18 -58 -19q-17 -7 -112 -8q-139 -1 -243 -3q-266 -5 -758 -9zM941 365q0 146 -98 236q-75 69 -165 69 q-79 0 -169 -61q-25 -17 -36 -30q-56 -65 -76 -176l-21 -119q-12 -52 -34 -92q-7 -12 -7 -14l483 5q72 1 92 40q3 6 12 30q19 52 19 112zM1662 407q0 119 -76 196q-68 67 -169 67q-53 0 -121 -36q-48 -25 -74 -60q-35 -48 -79 -152q-51 -120 -109 -196q-16 -20 -34 -41l24 1 l379 7q117 1 156 14q64 21 88 99q9 29 14 67q1 13 1 34z" />
<glyph unicode="&#x3074;" horiz-adv-x="2095" d="M25 596q0 48 82 128q99 97 208 133q44 14 81 14q84 0 104 -101q5 -28 5 -92l-1 -56l25 25q202 202 400 237q14 2 29 4h26q109 0 190 -86q62 -67 89 -173l27 27q130 130 267 192q90 41 167 41q100 0 176 -73q73 -69 90 -180q2 -16 2 -43q0 -196 -183 -392l-24 -25 q-120 -120 -235 -155q-44 -14 -49 -16q-17 -7 -95 -8q-154 -1 -260 -3q-495 -10 -921 -10q-11 3 -11 18q0 24 25 58q31 41 38 81q9 61 9 360q0 138 -58 151q-7 1 -14 1q-54 0 -99 -37q-34 -29 -50 -33q-11 -4 -22 -4q-18 0 -18 17zM1053 365q0 143 -97 234q-76 71 -166 71 q-79 0 -168 -60q-26 -17 -38 -31q-53 -61 -75 -176l-22 -120q-12 -53 -33 -91q-7 -12 -7 -14l482 5q72 1 93 39q3 6 12 31q19 52 19 112zM1774 401q0 129 -80 206q-66 63 -165 63q-74 0 -153 -56q-16 -11 -26 -21q-34 -33 -76 -129q-58 -132 -101 -197q-28 -43 -61 -82l24 1 l379 7q115 1 155 15q70 24 93 113q6 23 10 52q1 10 1 28z" />
<glyph unicode="&#x3075;" horiz-adv-x="1298" d="M377 871q95 0 137 -81l26 -55q1 -2 2 -3l34 20q195 115 327 132q16 2 37 4h30q123 0 197 -83q60 -68 60 -168q0 -248 -267 -485q-113 -99 -261 -184q-143 -84 -251 -185q-122 -114 -122 -246q0 -64 40 -134q71 -125 214 -125q34 0 77 14q84 78 122 78q17 0 17 -18 q0 -37 -68 -113q-100 -111 -219 -157q-41 -15 -79 -20q-12 -2 -36 -2q-148 0 -233 125q-21 31 -33 61q-21 51 -21 108q0 114 91 264q117 193 340 350l18 13l-25 85q-66 216 -156 433q-6 0 -74 -51q-55 -40 -73 -71q-6 -11 -13 -26q-21 -47 -21 -91q0 -80 69 -101 q31 16 45 16q18 0 18 -18q0 -33 -61 -103q-80 -90 -152 -110q-15 -3 -28 -3q-60 0 -91 58q-18 34 -18 79q0 113 97 254q82 120 223 232q38 28 39 29q0 18 -26 45q-35 38 -87 38q-49 0 -87 -32q-29 -24 -48 -28q-7 -1 -15 -1q-19 0 -19 19q0 51 79 123q93 84 192 108 q28 6 53 6zM1009 446q0 101 -63 163q-62 61 -172 61l-29 -1h-1q-66 -6 -157 -46l82 -222q40 -114 79 -250l12 -44q101 65 170 135q11 11 17 19q56 70 62 173v12z" />
<glyph unicode="&#x3077;" horiz-adv-x="2088" d="M38 579q-17 0 -17 19q0 40 76 119q77 80 162 121q71 33 132 33q85 0 105 -107q3 -15 3 -79l1 -65l23 23q158 154 310 215q61 26 126 30h12q151 0 234 -124q38 -56 58 -135l27 27q129 129 265 192q90 41 167 41q139 0 220 -125q24 -36 35 -72q15 -48 15 -102 q0 -144 -107 -295q-94 -132 -213 -213q-79 -53 -156 -72q-44 -11 -78 -12l-270 -4l-641 -9l-41 -1l-3 -33q-31 -479 -127 -685q-20 -44 -46 -83q-70 -106 -153 -169q-46 -36 -74 -36q-17 0 -17 17q0 27 24 57q43 50 64 94q39 82 64 223q44 252 55 549q9 215 9 550 q0 139 -35 171q-15 14 -38 14q-54 0 -97 -36q-34 -29 -50 -34q-11 -4 -24 -4zM1052 365q0 136 -83 225q-75 80 -182 80q-86 0 -180 -70q-31 -24 -45 -43q-35 -47 -46 -93q-21 -80 -21 -277l-1 -9l60 1l173 1h8l199 1q58 4 78 30q11 14 23 46q17 51 17 108zM1153 186 q9 0 373 6q142 2 184 35q22 17 42 64q22 56 22 114q0 106 -64 183q-59 71 -151 82q-9 1 -18 1q-98 0 -186 -73q-40 -33 -102 -179q-41 -95 -55 -117q-32 -53 -86 -117z" />
<glyph unicode="&#x3078;" horiz-adv-x="2023" d="M1051 881l875 8q22 0 25 -9q1 -4 1 -10q0 -28 -43 -82q-21 -26 -23 -35q-4 -17 -4 -82q0 -357 -15 -786q-6 -173 -13 -238q-23 -237 -86 -372q-50 -108 -142 -205q-71 -75 -122 -90q-8 -2 -14 -2q-17 0 -17 17q0 31 26 60q39 45 57 77q65 121 86 406q9 118 14 511l2 128 l1 28q-92 -92 -218 -155q-133 -66 -255 -66q-131 0 -215 108q-38 48 -62 115q-2 0 -46 -39q-211 -184 -440 -184q-123 0 -204 97q-74 88 -74 212q0 156 120 317q28 37 62 73l11 13h-6q-55 0 -140 16q-18 3 -28 6q-30 8 -52 46q-17 30 -17 69q0 73 78 156q61 66 110 76 q5 1 10 1q19 0 19 -21q-2 -20 -23 -55v-8q0 -30 21 -55q13 -14 30 -19q106 -28 711 -27zM1110 508q0 -142 94 -233q74 -73 163 -73q109 0 207 55q40 22 52 40q37 55 37 141q0 93 3 115q9 72 50 140l-389 -5q-124 0 -148 -7q-27 -9 -41 -41q-3 -7 -7 -16q-21 -54 -21 -116z M825 686l-270 2q-120 0 -162 -70q-30 -50 -30 -143q0 -127 88 -209q55 -51 120 -62q11 -2 37 -2q121 0 214 58q37 23 42 25q18 24 34 99q26 116 72 195q32 54 79 107h-224z" />
<glyph unicode="&#x3079;" horiz-adv-x="1464" d="M25 596q0 48 82 128q99 97 208 133q44 14 81 14q84 0 104 -101q5 -23 5 -102l-1 -64l21 20q98 98 227 174q155 90 276 90q162 0 253 -107q72 -86 72 -210q0 -101 -64 -223q-109 -208 -336 -312q-40 -18 -82 -32q-32 -11 -426 -18q-107 -2 -191 -2q-34 0 -38 8q-2 4 -2 10 q0 24 25 57q31 41 38 82q10 59 10 380q-8 124 -73 132q-54 0 -99 -37q-34 -29 -50 -33q-11 -4 -22 -4q-18 0 -18 17zM1134 388q0 126 -86 207q-79 75 -198 75q-99 0 -213 -70q-52 -33 -72 -60q-46 -63 -62 -165q-16 -99 -26 -129q-12 -36 -30 -66q0 -1 19 -1q221 0 467 10 q26 1 33 2q114 13 139 67l3 6q26 59 26 124z" />
<glyph unicode="&#x307a;" horiz-adv-x="1376" d="M768 881l518 8q20 -4 21 -19q0 -29 -40 -78q-23 -28 -26 -39q-4 -17 -4 -82q0 -330 -15 -766q-6 -191 -13 -258q-23 -237 -86 -372q-50 -108 -142 -205q-70 -75 -122 -90q-8 -2 -14 -2q-16 0 -18 15q0 31 27 61q41 47 60 84q55 108 77 330q19 191 23 706v36q0 8 -1 8 q-2 0 -51 -40q-234 -194 -483 -194q-145 0 -236 103q-78 89 -78 214q0 163 142 336q23 28 47 53l-23 1q-133 8 -178 30q-61 30 -61 110q0 71 78 155q62 68 111 78q6 2 11 2q19 0 19 -20q0 -21 -25 -58q7 -53 36 -72q44 -28 216 -33q75 -2 230 -2zM383 484q0 -121 82 -203 q79 -79 197 -79q127 0 250 60q61 30 77 56q33 52 31 130q-3 84 1 112q9 65 50 132h-16l-416 -6h-12q-135 0 -179 -30q-22 -15 -36 -42q-29 -60 -29 -130z" />
<glyph unicode="&#x30a2;" horiz-adv-x="262" d="M-270 737q0 48 73 116q84 78 169 95q16 3 32 3q47 0 140 -25q71 -18 117 -18q20 0 50 20q25 18 46 18q19 0 19 -20q0 -31 -53 -91q-83 -95 -180 -117q-23 -5 -45 -5q-46 0 -138 25q-66 18 -106 18q-31 0 -59 -21q-23 -17 -46 -17q-19 0 -19 19z" />
<glyph unicode="&#x30ab;" horiz-adv-x="1044" d="M423 556q36 -29 68 -37q24 -7 54 -7q123 0 305 136q38 28 207 168q88 73 146 114q175 126 300 126q140 0 268 -109q74 -62 94 -115q4 -11 4 -18q0 -19 -17 -19q-31 0 -67 33q-43 39 -70 50q-34 15 -79 15q-129 0 -331 -155q-35 -27 -206 -169q-94 -78 -151 -116 q-160 -102 -275 -104q-136 0 -271 121l-34 31l-21 -20q-24 -24 -34 -24q-15 0 -99 88q-54 56 -54 65q0 15 83 96q59 58 70 58q15 0 97 -85q57 -59 57 -69q0 -9 -24 -34zM160 262q0 12 76 89q65 64 78 64q16 0 100 -88q53 -56 53 -65t-24 -34l-20 -20q67 -56 181 -56 q128 0 334 77l223 84q171 60 293 60q170 0 311 -118q77 -64 100 -119q4 -11 4 -19q0 -18 -19 -18q-24 0 -63 32q-56 47 -101 62t-101 15q-128 0 -326 -72l-229 -86q-70 -24 -130 -39q-95 -23 -171 -23q-193 0 -361 165l-21 -20q-23 -24 -34 -24q-13 0 -93 81q-60 61 -60 72z " />
<glyph unicode="&#x30ae;" horiz-adv-x="1218" d="M257 972q-76 0 -116 79q-26 51 -26 119q0 142 130 293q99 115 221 176q122 59 253 59q188 0 295 -111q87 -90 87 -219q0 -161 -165 -334q-50 -53 -136 -128l-87 -78q-46 -46 -46 -121q0 -100 93 -134l38 -13q7 -3 7 -14q0 -34 -60 -104q-72 -83 -128 -96q-7 -1 -14 -1 q-36 0 -79 29q-75 50 -75 147q0 159 179 345q57 58 153 142q56 49 69 65q33 42 33 114q0 135 -116 221q-79 59 -178 71q-9 1 -31 1q-73 0 -158 -19q-45 -11 -50 -21q-11 -11 -16 -75q-1 -7 -1 -12q0 -73 40 -125q29 -39 35 -53q8 -20 8 -45q0 -76 -68 -126q-45 -32 -91 -32z M617 -30q-16 0 -100 88q-53 56 -53 65t20 30l121 120q10 3 13 3q12 0 42 -31l39 -40q70 -69 72 -76q1 -2 1 -6q0 -12 -74 -87q-66 -66 -81 -66z" />
<glyph unicode="&#x30bb;" horiz-adv-x="1044" d="M-825 814q0 46 82 119q99 87 206 115q35 9 65 9q147 0 337 -142q49 -37 211 -174q166 -140 264 -188q85 -41 160 -41q77 0 122 44l-20 20q-24 24 -24 34q0 15 83 96q59 58 70 58q15 0 97 -85q57 -59 57 -69q0 -13 -82 -93q-61 -60 -72 -60q-9 0 -34 24l-20 20 q-111 -103 -196 -133q-52 -19 -110 -19q-159 0 -406 199l-194 164q-213 168 -338 180q-13 1 -25 1q-72 0 -130 -49q-41 -34 -50 -39q-17 -10 -36 -10q-17 0 -17 19zM578 262q0 12 76 89q64 64 78 64q15 0 99 -88q54 -56 54 -65q0 -14 -86 -96q-58 -57 -68 -57t-34 24l-20 20 q-165 -165 -362 -165q-140 0 -344 77l-221 85q-166 58 -290 58q-103 0 -186 -62q-47 -37 -53 -40q-14 -7 -27 -7q-19 0 -19 18q0 32 56 93q98 107 237 145q60 17 123 17q142 0 348 -78l220 -85q161 -57 281 -57q121 0 182 56l-20 20q-24 24 -24 34z" />
<glyph unicode="&#x30bf;" horiz-adv-x="1259" d="M415 1505q4 46 79 122q104 107 227 144q37 11 71 14h28q151 0 246 -132q14 -20 25 -41q35 -69 35 -151q0 -140 -102 -310q-70 -117 -183 -230l-33 -34l6 -20q61 -217 149 -443q77 -201 115 -225q31 -20 67 -20q49 0 88 32q30 25 48 28q6 1 14 1q20 0 20 -19 q0 -34 -59 -99q-90 -99 -197 -129q-35 -9 -69 -9q-87 0 -132 72q-15 24 -46 100l-11 25q-6 0 -54 -43q-153 -137 -293 -162q-30 -5 -62 -6q-118 0 -191 81q-61 67 -61 166q0 254 329 521q53 43 117 89q96 69 111 81q209 170 209 368q0 132 -90 218q-79 73 -184 73 q-72 0 -125 -43q-36 -29 -49 -34q-12 -5 -26 -5q-18 0 -17 20zM595 182q79 0 154 35q21 9 30 19q0 13 -20 56q-62 136 -141 415l-8 30l-62 -46l-69 -52q-122 -102 -122 -237q0 -100 80 -165q67 -55 158 -55z" />
<glyph unicode="&#x30c4;" horiz-adv-x="1376" d="M239 356q0 178 150 331q120 124 279 177q75 24 140 24q187 0 306 -136l14 16q69 82 130 112q19 9 32 9q17 0 17 -18q0 -25 -40 -77q-23 -30 -26 -41q-4 -17 -4 -82q0 -330 -15 -766q-6 -191 -13 -258q-23 -237 -86 -372q-50 -108 -142 -205q-70 -75 -122 -90 q-8 -2 -14 -2q-16 0 -18 15q0 32 27 63q41 48 59 82q58 111 80 345q14 153 16 449l1 61q-87 -12 -388 -16l-172 -1h-3h-41q-173 0 -269 24q-55 13 -55 33q0 29 48 88q67 81 125 85h5q2 0 9 -1q-30 78 -30 151zM1018 387q-45 181 -183 261q-79 46 -172 46q-83 0 -149 -27 q-44 -17 -57 -44q-23 -47 -23 -110q0 -143 94 -240q97 -101 248 -101q95 0 203 5q19 0 34 1l2 54q0 50 2 104z" />
<glyph unicode="&#x30c6;" d="M-247 717q-22 0 -23 20q0 26 39 78q68 92 152 97q118 6 166 45q33 26 34 26q13 9 30 13q8 2 14 2q20 0 20 -18q0 -35 -57 -98q-99 -108 -244 -147q-64 -18 -131 -18z" />
<glyph unicode="&#x30c7;" horiz-adv-x="696" d="M292 1582q9 92 77 117q14 5 25 5q82 0 107 -90q4 -16 6 -32q1 -10 1 -52q0 -315 -29 -824q-16 -301 -30 -347q-12 -41 -50 -41q-34 0 -49 41q-22 60 -47 699q-12 311 -12 464q0 49 1 60zM246 123q0 12 79 91q62 62 74 62q17 0 101 -88q53 -56 53 -65q0 -15 -85 -97 q-59 -57 -69 -57q-13 0 -93 82q-60 61 -60 72z" />
<glyph unicode="&#x30d8;" d="M-1271 1331q0 46 68 103q50 41 75 41q15 0 23 -18q19 -44 39 -67q15 -17 36 -34q65 -54 149 -54q139 0 182 71q34 55 88 87q24 15 41 15q19 0 19 -21q-3 -37 -65 -111q-104 -125 -240 -177q-73 -28 -145 -28q-142 0 -229 113q-37 48 -41 80z" />
<glyph unicode="&#x30d9;" d="M-927 1330q0 47 69 105q49 41 74 41q16 0 23 -22q15 -46 27 -63q21 -31 59 -56q50 -33 106 -33q89 0 119 32q4 4 31 46q15 23 33 41q53 53 91 55q18 0 18 -19q0 -28 -52 -100q-94 -129 -216 -185q-71 -34 -144 -34q-112 0 -187 85q-51 56 -51 107z" />
<glyph unicode="&#x30da;" d="M-849 1331q0 47 70 104q50 40 76 40q12 0 19 -20q16 -49 34 -73q7 -9 15 -18q60 -62 142 -62q79 0 103 27q3 4 26 43q23 40 64 72q42 31 66 31q16 0 18 -17q0 -39 -59 -118q-91 -121 -211 -173q-66 -29 -132 -29q-109 0 -182 85q-49 57 -49 108z" />
<glyph unicode="&#x30db;" d="M-573 1332q0 30 47 83q54 60 98 60q13 0 19 -21q12 -49 26 -70t36 -40q50 -42 113 -42q70 0 89 26l28 54q29 42 73 73q29 21 50 21q18 0 19 -20q0 -42 -59 -123q-88 -120 -203 -169q-61 -26 -121 -26q-129 0 -189 110q-26 47 -26 84z" />
<glyph unicode="&#x30e0;" d="M-1345 1605q0 76 60 124q46 37 110 37q164 0 359 -204q66 -68 163 -190l124 -161q51 -66 53 -72q2 -5 2 -14q0 -25 -24 -25q-14 0 -36 19q-12 10 -47 44l-142 144q-189 195 -258 247q-61 46 -104 46q-47 0 -65 -51q-6 -19 -6 -41q0 -60 51 -123q30 -36 31 -50 q0 -18 -26 -18q-70 3 -147 82q-82 84 -96 177q-2 15 -2 29z" />
<glyph unicode="&#x30e1;" d="M-1038 1597q0 105 95 151q35 17 61 17h7q161 0 307 -174q39 -45 82 -109q47 -70 132 -218l52 -90q22 -37 22 -49q0 -20 -19 -25q-3 -1 -6 -1q-24 0 -77 70l-129 173q-58 74 -117 139q-66 72 -103 92q-27 14 -53 14q-45 0 -67 -48q-11 -24 -11 -53q0 -54 42 -110 q26 -34 26 -49q0 -16 -19 -16h-6q-37 0 -99 54q-94 83 -115 185q-5 24 -5 47z" />
<glyph unicode="&#x30e2;" d="M-798 1704q0 52 35 104q51 74 146 74q101 0 191 -99q40 -44 70 -101q48 -92 80 -273q10 -60 22 -140l18 -114q3 -19 3 -27q-4 -27 -25 -31q-30 0 -60 104l-59 217q-36 121 -80 184q-52 72 -108 75q-47 0 -80 -48q-21 -29 -26 -65q44 -72 44 -111q0 -26 -19 -26t-60 47 q-82 93 -91 206q-1 12 -1 24z" />
<glyph unicode="&#x30e3;" d="M-629 1685q0 95 73 149q48 35 107 35q160 0 266 -203q30 -58 51 -123q28 -90 60 -271l20 -103q7 -35 7 -41q0 -23 -17 -30q-4 -1 -9 -1q-29 0 -64 110q20 -65 -29 98q-81 260 -153 328q-35 33 -75 33h-7q-26 0 -56 -29q-35 -35 -41 -91q45 -64 45 -107q0 -26 -18 -26 q-35 0 -86 73q-64 92 -73 180q-1 10 -1 19z" />
<glyph unicode="&#x30e8;" d="M-1576 1467q0 73 71 153q56 62 99 67q3 1 6 1q18 0 18 -19q0 -25 -25 -56q-5 -6 -6 -9l1 -14q0 -68 62 -97q60 -27 194 -31q290 -9 290 -103q0 -64 -125 -160l-12 -9q-130 -108 -167 -128q-13 -7 -20 -7q-24 5 -27 26q0 18 16 34l142 148q-64 29 -209 35q-136 7 -184 20 q-91 25 -117 102q-7 20 -7 47z" />
<glyph unicode="&#x30e9;" d="M-1437 1467q0 72 70 151q56 64 101 69q3 1 6 1q17 0 17 -19q0 -22 -23 -53q-6 -8 -7 -12v-14q0 -80 100 -109q54 -16 142 -19q173 -5 231 -59q21 -20 21 -43q0 -66 -126 -162q-8 -6 -11 -8q-130 -108 -167 -128q-13 -7 -20 -7q-24 5 -27 26q0 23 89 112l33 33l37 37 q-51 20 -211 38q-145 16 -181 37q-71 48 -74 129z" />
<glyph unicode="&#x30ea;" d="M-1142 1467q0 72 70 151q56 64 101 69q3 1 6 1q17 0 17 -19q0 -22 -23 -53q-6 -8 -7 -12v-14q0 -51 47 -87q24 -18 55 -24l209 -35q50 -11 75 -27q38 -23 38 -58q0 -64 -125 -159l-125 -102q-58 -43 -74 -43q-24 5 -27 26q0 25 115 138l44 44q-53 21 -176 38 q-110 14 -153 41t-60 78q-7 20 -7 47z" />
<glyph unicode="&#x30eb;" d="M-850 1488q0 70 69 149q54 63 101 71h7q17 0 19 -18q0 -22 -32 -65l1 -14q0 -74 82 -106l47 -16l119 -46q53 -24 53 -63q0 -50 -83 -130q-31 -29 -35 -34q-98 -101 -127 -126q-42 -36 -58 -36q-22 5 -25 28q0 25 102 147q36 42 40 50l-175 65q-69 22 -94 89 q-11 26 -11 55z" />
<glyph unicode="&#x3160;" d="M-1053 -860q-27 0 -33 24q-2 4 -2 10q0 19 28 47l80 83q196 204 284 279q11 9 18 14q39 28 68 28q52 0 68 -43q4 -12 4 -27q0 -44 -75 -109q-60 -53 -301 -220l-97 -69q-27 -17 -42 -17zM-844 -964q-27 0 -33 23q-2 5 -2 10q0 19 30 49l78 81q160 167 240 240l61 54 q34 27 65 27q64 0 75 -53q1 -8 1 -15q0 -42 -60 -97q-61 -55 -316 -234l-103 -72q-21 -13 -36 -13z" />
<glyph unicode="&#x3161;" horiz-adv-x="1464" d="M25 596q0 48 82 128q99 97 208 133q44 14 81 14q84 0 104 -101q5 -23 5 -102l-1 -64l21 20q98 98 227 174q155 90 276 90q162 0 253 -108q72 -85 72 -207q0 -176 -157 -355l-19 -20v-1q0 -2 35 -4q70 -6 132 -37q90 -45 144 -131q53 -81 53 -181q0 -131 -101 -269 q-112 -154 -284 -225q-109 -44 -226 -44q-155 0 -274 72q-81 48 -113 116q-21 42 -21 83q0 80 80 176q64 75 118 91q10 3 18 3q19 0 19 -20q0 -26 -41 -79v-17q0 -71 78 -137q106 -88 267 -94q11 -1 22 -1q85 0 161 27q66 22 81 58q21 51 21 104q0 176 -157 264 q-79 45 -153 49l-69 1h-3l-315 8h-9q-202 0 -347 -21q-37 -5 -62 -5q-17 0 -17 18q0 24 25 57q31 41 38 82q10 59 10 380q-8 124 -73 132q-54 0 -99 -37q-34 -29 -50 -33q-11 -4 -22 -4q-18 0 -18 17zM1135 387q0 129 -88 210q-79 73 -197 73q-99 0 -213 -70 q-52 -33 -72 -60q-47 -64 -61 -157q-15 -96 -23 -124q-11 -37 -30 -73l27 3q158 16 314 16l166 -3q121 0 147 56q30 61 30 129z" />
<glyph unicode="&#x3178;" d="M-292 -348q48 0 64 -41q5 -13 5 -30q0 -44 -64 -117q-42 -46 -198 -197l-87 -84q-33 -33 -46 -39q-9 -5 -19 -5q-25 0 -31 25q-1 4 -1 9q0 30 163 259q94 131 135 177q38 43 79 43zM-84 -453q59 0 69 -54q1 -8 1 -16q0 -45 -77 -130q-48 -53 -185 -185l-87 -84 q-34 -33 -44 -38q-10 -6 -20 -6q-26 0 -32 25q-1 5 -1 10q0 18 27 56l50 74q163 243 211 296q48 52 88 52z" />
<glyph unicode="&#x3192;" d="M-1480 1674q0 48 40 65q14 5 30 5q44 0 97 -60l37 -44q122 -140 313 -387q66 -87 78 -107q5 -9 5 -23q-6 -29 -33 -34q-21 0 -63 38l-88 85q-363 342 -407 423q-2 3 -3 6q-6 17 -6 33zM-1132 1674q0 48 40 65q14 5 30 5q44 0 97 -60l37 -44q127 -145 311 -385 q67 -87 80 -109q5 -9 5 -23q-6 -29 -32 -34q-22 0 -64 39q49 -45 -88 84q-346 326 -403 416q-5 8 -7 13q-6 17 -6 33z" />
<glyph unicode="&#x501a;" d="M-1280 -129q-25 0 -33 22q-2 5 -2 12q0 20 29 48l79 82q224 233 301 293q35 28 68 28q51 0 68 -42q5 -12 5 -27q0 -39 -48 -85q-61 -59 -328 -245q-95 -68 -100 -70q-26 -16 -39 -16zM-1071 -233q-27 0 -33 23q-2 4 -2 9q0 21 34 55l74 76l151 158q163 163 215 163 q64 0 75 -53q1 -7 1 -15q0 -38 -47 -84q-59 -57 -329 -247l-99 -69q-23 -16 -40 -16z" />
<glyph unicode="&#x501e;" d="M-1153 1665q0 45 37 64q14 7 30 7q35 0 63 -27q45 -42 181 -259q137 -218 164 -268q25 -47 25 -59q-7 -31 -34 -35q-18 0 -29 12q-14 9 -201 229l-178 221q-35 47 -39 55q-19 33 -19 60zM-805 1665q0 45 37 64q14 7 30 7q37 0 68 -31q43 -43 176 -255q131 -209 156 -255 q33 -58 33 -72q-5 -32 -33 -35q-18 0 -30 12q-14 10 -192 219l-24 28l-163 203q-35 47 -39 55q-19 33 -19 60z" />
<glyph unicode="&#x5020;" d="M-823 1665q0 45 36 64q14 7 31 7q37 0 68 -31q43 -43 176 -255q154 -246 179 -301q9 -19 9 -26q-6 -31 -33 -35q-18 0 -30 12q-14 10 -178 203l-37 44l-163 203q-36 47 -44 63q-14 28 -14 52zM-475 1665q0 46 38 64q13 7 29 7q35 0 63 -27q45 -42 181 -259 q135 -215 161 -263q28 -51 28 -63q-7 -32 -34 -36q-18 0 -30 12q-14 10 -200 229l-178 221q-35 47 -39 55q-19 33 -19 60z" />
<glyph unicode="&#x5022;" horiz-adv-x="1097" d="M917 351q0 74 -40 161q-73 156 -220 174q-17 2 -36 2q-110 0 -207 -50q-19 -44 -21 -63q-1 -5 -1 -11q-3 -219 -24 -301q-24 -90 -100 -173l-26 -27q-69 -69 -114 -78q-5 -1 -9 -1q-17 0 -17 17q0 23 31 66q21 28 25 44q19 69 17 278q-4 347 3 519q2 27 3 53 q15 291 62 444q57 186 197 326q73 71 115 76q3 1 5 1q18 0 18 -18q0 -31 -26 -59q-40 -44 -57 -78q-63 -118 -87 -390q-14 -141 -15 -404l-1 -120l16 13q183 154 394 154q113 0 201 -70q132 -105 132 -325q0 -106 -41 -231q-98 -286 -475 -625l-256 -221q2 0 15 1q35 3 73 3 q108 0 239 -25q86 -17 146 -17q112 0 214 81l71 56q28 20 49 20q17 0 17 -18q0 -43 -84 -130q-116 -119 -261 -183q-101 -44 -189 -44q-49 0 -181 23q-116 19 -202 19q-77 0 -172 -19q-22 -5 -34 -5q-17 0 -17 17q0 74 340 361l228 196q98 90 142 143q160 195 160 438z" />
<glyph unicode="&#x5026;" d="M-1097 1674q0 48 40 65q14 5 30 5q44 0 97 -60l37 -44q122 -140 313 -387q66 -87 78 -107q5 -9 5 -23q-6 -29 -33 -34q-21 0 -63 38l-88 85q-363 342 -407 423q-2 3 -3 6q-6 17 -6 33zM-749 1674q0 48 40 65q14 5 30 5q44 0 97 -60l37 -44q127 -145 311 -385 q67 -87 80 -109q5 -9 5 -23q-6 -29 -32 -34q-22 0 -65 40l-87 83q-346 326 -403 416q-5 8 -7 13q-6 17 -6 33z" />
<glyph unicode="&#x5030;" d="M-1403 -859q-31 5 -34 33q0 19 18 36q12 11 79 67q283 237 401 319q108 76 141 76q45 0 63 -34q9 -15 9 -36q0 -38 -50 -81q-64 -55 -363 -235l-179 -107q-68 -38 -85 -38zM-1193 -964q-28 0 -34 23q-1 5 -1 10q0 19 17 36q8 8 79 68l274 225q215 168 269 168 q48 0 65 -35q7 -14 7 -33q0 -50 -63 -92q-162 -112 -404 -259q-183 -111 -209 -111z" />
<glyph unicode="&#x5039;" d="M-914 -860q-26 0 -33 23q-1 4 -1 9q0 21 34 55l73 77q228 236 302 293q35 28 68 28q52 0 68 -42q5 -12 5 -26q0 -47 -85 -119q-67 -57 -292 -212l-97 -69q-27 -17 -42 -17zM-705 -964q-26 0 -33 22q-1 5 -1 10q0 19 29 51l78 80q217 226 302 294q34 27 65 27q63 0 74 -54 q1 -7 1 -15q0 -38 -47 -84q-59 -57 -329 -246l-104 -73q-21 -12 -35 -12z" />
</font>
</defs>
</svg>
